{"glyphs":{"0":{"ha":2606,"x_min":142,"x_max":2493,"o":"m 288 279 l 246 56 l 206 279 l 147 279 l 142 -78 l 197 -78 l 199 68 l 226 -78 l 268 -78 l 297 69 l 300 -78 l 351 -78 l 349 279 l 288 279 m 1946 153 q 1942 217 1946 183 q 1907 271 1938 251 q 1868 283 1890 282 q 1826 278 1846 283 q 1791 249 1803 269 q 1775 204 1779 228 q 1774 177 1774 190 q 1774 150 1774 164 l 1774 53 q 1774 26 1774 39 q 1775 -1 1774 13 q 1791 -46 1779 -25 q 1826 -75 1803 -67 q 1868 -80 1846 -81 q 1907 -68 1890 -79 q 1942 -15 1938 -49 q 1946 50 1946 19 l 1946 153 m 1408 979 q 1322 1051 1335 979 q 1319 1082 1319 1067 q 1319 1113 1319 1097 q 1318 1184 1319 1146 q 1325 1254 1317 1222 q 1355 1295 1333 1282 q 1403 1310 1376 1308 q 1455 1300 1431 1311 q 1489 1261 1479 1289 q 1499 1192 1500 1231 q 1499 1121 1499 1154 q 1498 1083 1499 1101 q 1493 1046 1497 1064 q 1408 979 1478 979 m 1324 610 q 1267 627 1289 610 q 1238 678 1244 644 q 1235 710 1235 694 q 1236 744 1236 726 q 1235 813 1236 776 q 1240 882 1233 850 q 1269 924 1249 911 q 1318 938 1290 938 q 1371 929 1347 939 q 1404 892 1394 919 q 1414 822 1417 860 q 1411 751 1411 783 q 1412 712 1411 729 q 1408 675 1413 694 q 1324 610 1396 610 m 504 108 l 443 279 l 397 279 l 397 -78 l 453 -78 l 453 97 l 515 -78 l 560 -78 l 560 279 l 504 279 l 504 108 m 954 56 l 990 56 q 990 33 990 49 q 988 2 990 17 q 977 -22 985 -12 q 954 -25 969 -31 q 940 -12 944 -22 q 935 9 936 -3 q 934 33 933 21 q 935 51 935 44 l 935 136 q 934 174 935 153 q 938 214 933 196 q 949 226 942 221 q 965 229 957 231 q 985 207 983 224 q 987 181 988 194 q 986 153 986 168 l 1046 153 q 1042 218 1046 183 q 1007 272 1038 253 q 968 284 990 283 q 926 278 946 285 q 891 250 903 271 q 875 206 879 229 q 873 154 872 181 q 874 101 874 128 q 873 52 874 76 q 875 3 872 28 q 885 -40 878 -18 q 913 -71 893 -61 q 957 -83 931 -83 q 999 -67 983 -82 l 1000 -78 l 1047 -78 l 1047 108 l 954 108 l 954 56 m 928 982 l 928 1308 q 994 1309 960 1308 q 1056 1294 1028 1310 q 1082 1262 1072 1283 q 1092 1217 1092 1240 q 1082 1173 1092 1193 q 1053 1146 1072 1153 l 1096 982 l 1053 982 l 1010 1136 l 975 1136 l 975 982 l 928 982 m 2096 108 l 2067 140 q 2048 158 2057 150 q 2035 182 2039 167 q 2034 212 2031 193 q 2056 229 2038 231 q 2069 219 2065 228 q 2076 201 2074 211 q 2078 179 2078 190 q 2079 160 2079 168 l 2135 163 q 2128 229 2135 196 q 2089 276 2121 263 q 2050 283 2069 285 q 2015 274 2031 282 q 1988 249 1999 265 q 1976 213 1978 233 q 1977 169 1974 192 q 1993 131 1981 147 q 2006 113 1997 119 q 2024 96 2015 106 q 2060 55 2040 76 q 2079 6 2079 33 q 2077 -15 2079 -6 q 2065 -25 2075 -24 q 2051 -24 2057 -28 q 2043 -12 2046 -19 q 2033 19 2035 3 q 2031 51 2032 35 l 1975 47 q 1977 3 1975 24 q 1989 -39 1979 -18 q 2024 -75 2000 -64 q 2075 -81 2049 -86 q 2119 -54 2103 -75 q 2138 -10 2135 -33 q 2096 108 2146 57 m 804 108 l 775 140 q 756 158 765 150 q 743 182 747 167 q 742 212 739 193 q 764 229 746 231 q 778 219 774 228 q 784 201 782 211 q 787 179 786 190 q 788 160 788 168 l 843 163 q 836 229 843 196 q 797 276 829 263 q 758 283 778 285 q 723 274 739 282 q 697 249 707 265 q 685 213 686 233 q 685 169 682 192 q 701 131 689 147 q 715 113 706 119 q 732 96 724 106 q 768 55 749 76 q 788 6 788 33 q 785 -15 788 -6 q 774 -25 783 -24 q 760 -24 765 -28 q 751 -12 754 -19 q 742 19 743 3 q 739 51 740 35 l 683 47 q 685 3 683 24 q 697 -39 688 -18 q 733 -75 708 -64 q 783 -81 757 -86 q 827 -54 811 -75 q 846 -10 843 -33 q 804 108 854 57 m 1440 279 l 1375 -78 l 1435 -78 l 1449 7 l 1488 7 l 1499 -78 l 1558 -78 l 1496 279 l 1440 279 m 1582 208 l 1582 -7 q 1604 -60 1582 -40 q 1654 -82 1626 -79 q 1697 -75 1678 -85 q 1736 -28 1729 -61 q 1743 39 1743 6 l 1688 42 q 1687 22 1688 33 q 1684 1 1686 11 q 1678 -18 1682 -10 q 1664 -28 1674 -26 q 1642 -4 1642 -31 l 1642 206 q 1664 229 1642 232 q 1678 219 1674 228 q 1684 201 1682 211 q 1687 179 1686 190 q 1688 160 1688 168 l 1743 163 q 1736 229 1743 196 q 1697 276 1729 263 q 1654 283 1678 286 q 1604 261 1626 281 q 1582 208 1582 242 m 574 982 l 574 1308 l 642 1308 q 688 1303 667 1308 q 722 1272 710 1297 q 733 1241 729 1258 q 735 1207 736 1224 q 726 1175 733 1190 q 707 1150 719 1160 q 664 1135 689 1135 q 618 1135 639 1135 l 618 982 l 574 982 m 1457 613 l 1457 936 l 1488 936 l 1579 719 l 1579 936 l 1619 936 l 1619 613 l 1589 613 l 1494 833 l 1494 613 l 1457 613 m 1543 982 l 1543 1308 l 1574 1308 l 1664 1092 l 1664 1308 l 1703 1308 l 1703 982 l 1674 982 l 1579 1203 l 1579 982 l 1543 982 m 1736 982 l 1804 1308 l 1849 1308 l 1917 982 l 1875 982 l 1858 1063 l 1793 1063 l 1778 982 l 1736 982 m 697 614 q 633 613 668 603 q 586 657 599 622 q 578 692 579 674 q 576 735 576 711 l 576 936 l 619 936 l 619 719 q 622 678 619 701 q 646 643 625 654 q 676 643 664 638 q 694 660 688 649 q 703 685 700 671 q 706 714 706 700 q 706 766 707 742 q 706 818 706 790 l 706 936 l 751 936 l 751 788 q 752 740 751 767 q 749 689 753 714 q 734 643 746 664 q 697 614 722 622 m 2265 -78 l 2265 217 l 2315 217 l 2315 279 l 2154 279 l 2154 217 l 2206 217 l 2206 -78 l 2265 -78 m 1229 -78 l 1367 -78 l 1367 -15 l 1289 -15 l 1289 279 l 1229 279 l 1229 -78 m 1213 979 q 1149 1006 1172 979 q 1125 1072 1126 1033 l 1167 1083 q 1172 1052 1169 1068 q 1185 1026 1175 1036 q 1211 1014 1196 1015 q 1238 1022 1226 1013 q 1249 1053 1250 1033 q 1239 1088 1249 1072 q 1203 1122 1231 1101 q 1170 1151 1188 1136 q 1142 1182 1153 1165 q 1128 1219 1131 1199 q 1129 1256 1125 1239 q 1145 1288 1133 1274 q 1176 1307 1157 1301 q 1217 1309 1194 1311 q 1254 1296 1239 1307 q 1276 1265 1271 1285 q 1283 1226 1282 1246 l 1249 1215 q 1240 1251 1246 1232 q 1213 1276 1233 1271 q 1185 1270 1197 1278 q 1169 1249 1172 1263 q 1171 1223 1167 1235 q 1183 1201 1175 1211 q 1202 1183 1192 1192 q 1222 1168 1213 1175 q 1263 1128 1243 1149 q 1289 1081 1282 1108 q 1275 1010 1296 1040 q 1213 979 1254 979 m 874 610 q 811 636 832 610 q 788 703 790 663 l 831 714 q 834 683 832 699 q 846 657 836 668 q 872 643 857 644 q 899 653 888 642 q 911 683 913 664 q 900 715 910 703 q 884 735 893 725 q 864 751 875 744 q 831 781 849 767 q 801 814 813 796 q 789 848 792 829 q 791 885 786 867 q 807 917 796 903 q 838 936 818 931 q 878 939 856 940 q 917 926 900 938 q 938 895 932 915 q 944 856 943 875 l 910 843 q 901 881 907 863 q 874 904 894 900 q 847 899 858 907 q 832 875 835 892 q 832 851 828 863 q 844 831 836 840 q 863 813 853 821 q 882 797 874 806 q 923 758 904 778 q 947 708 942 739 q 935 640 957 671 q 874 610 914 610 m 1060 -122 l 1111 -122 l 1213 325 l 1156 325 l 1060 -122 m 986 613 l 986 936 l 1113 936 l 1113 901 l 1032 901 l 1032 796 l 1097 796 l 1097 763 l 1032 763 l 1032 642 l 1113 642 l 1113 613 l 986 613 m 767 982 l 767 1308 l 892 1308 l 892 1274 l 811 1274 l 811 1168 l 876 1168 l 876 1135 l 811 1135 l 811 1014 l 893 1014 l 893 982 l 767 982 m 1301 647 q 1324 642 1311 642 q 1343 647 1336 642 q 1360 666 1356 654 q 1368 690 1365 678 q 1369 707 1369 697 q 1368 724 1368 717 l 1368 839 q 1367 867 1368 853 q 1354 893 1365 882 q 1314 904 1336 911 q 1282 874 1292 899 q 1279 822 1278 850 q 1281 771 1281 794 l 1281 713 q 1283 676 1281 696 q 1301 647 1285 657 m 1876 613 l 1876 679 q 1878 704 1876 692 q 1876 728 1879 717 q 1867 760 1874 746 q 1854 790 1861 775 l 1808 936 l 1850 936 l 1899 781 l 1946 936 l 1990 936 q 1968 869 1979 903 q 1946 801 1957 836 l 1924 735 q 1920 713 1919 724 q 1921 693 1921 701 l 1921 613 l 1876 613 m 1390 1017 q 1431 1017 1408 1010 q 1448 1035 1444 1024 q 1453 1058 1451 1047 l 1453 1210 q 1451 1238 1453 1224 q 1439 1263 1450 1253 q 1422 1275 1432 1274 q 1400 1274 1411 1276 q 1369 1246 1376 1272 q 1365 1194 1363 1222 q 1368 1142 1368 1165 l 1368 1082 q 1369 1046 1368 1065 q 1390 1017 1371 1026 m 1951 982 l 1951 1308 l 1996 1308 l 1996 1014 l 2079 1014 l 2079 982 l 1951 982 m 1669 613 l 1669 936 l 1714 936 l 1714 642 l 1796 642 l 1796 613 l 1669 613 m 617 -539 q 586 -530 596 -539 q 573 -508 576 -521 q 569 -478 569 -494 q 569 -450 569 -462 q 570 -419 569 -435 q 576 -393 571 -404 q 591 -376 581 -382 q 621 -371 601 -369 q 647 -381 638 -372 q 659 -401 656 -389 q 663 -428 663 -414 q 663 -456 663 -443 q 663 -483 663 -468 q 658 -510 663 -497 q 644 -531 654 -522 q 617 -539 635 -539 m 757 -333 q 728 -324 738 -333 q 715 -301 718 -315 q 711 -272 711 -287 q 711 -242 711 -256 q 712 -213 711 -228 q 717 -187 713 -199 q 732 -169 722 -176 q 761 -164 742 -162 q 786 -174 778 -165 q 799 -194 794 -182 q 803 -222 803 -207 q 803 -249 803 -236 q 802 -276 803 -261 q 797 -304 801 -292 q 784 -325 793 -317 q 757 -333 775 -333 m 2014 -539 q 1985 -530 1994 -539 q 1972 -508 1975 -521 q 1968 -478 1968 -494 q 1968 -450 1968 -462 q 1969 -419 1968 -435 q 1974 -393 1969 -404 q 1990 -376 1979 -382 q 2019 -371 2000 -369 q 2045 -381 2038 -372 q 2056 -401 2053 -389 q 2058 -428 2058 -414 q 2057 -456 2057 -443 q 2057 -483 2057 -468 q 2053 -510 2057 -497 q 2041 -531 2050 -522 q 2014 -539 2032 -539 m 1917 -331 l 1917 -165 q 1953 -165 1932 -165 q 1989 -176 1974 -164 q 2003 -210 2004 -189 q 2001 -249 2001 -232 q 2002 -288 2001 -265 q 1983 -322 2003 -311 q 1951 -332 1971 -333 q 1917 -331 1932 -331 m 1886 50 q 1887 22 1886 35 q 1885 -3 1888 8 q 1865 -25 1883 -19 q 1849 -22 1857 -26 q 1838 -11 1842 -18 q 1834 24 1833 4 q 1835 60 1835 44 l 1835 143 q 1834 178 1835 158 q 1838 214 1833 199 q 1849 225 1842 221 q 1865 228 1857 229 q 1885 206 1883 222 q 1887 181 1888 194 q 1886 153 1886 168 l 1886 50 m 683 -537 l 686 -372 l 711 -372 l 740 -504 l 768 -372 l 790 -372 l 793 -537 l 775 -537 l 774 -415 l 746 -537 l 731 -537 l 704 -415 l 703 -537 l 683 -537 m 1036 -537 l 1036 -372 q 1069 -371 1053 -372 q 1100 -376 1086 -369 q 1115 -393 1110 -382 q 1119 -417 1119 -404 q 1114 -440 1119 -429 q 1099 -454 1108 -450 l 1122 -537 l 1100 -537 l 1081 -458 l 1063 -458 l 1063 -537 l 1036 -537 m 818 -537 l 821 -372 l 844 -372 l 874 -504 l 903 -372 l 926 -372 l 928 -537 l 913 -537 l 910 -415 l 881 -537 l 865 -537 l 840 -415 l 838 -537 l 818 -537 m 825 -331 l 825 -165 q 856 -164 840 -165 q 886 -169 872 -162 q 901 -187 896 -175 q 908 -211 907 -199 q 903 -234 908 -224 q 886 -249 899 -244 l 911 -331 l 888 -331 l 864 -254 l 847 -254 l 847 -331 l 825 -331 m 1717 -537 l 1717 -372 q 1749 -371 1732 -372 q 1781 -376 1765 -369 q 1794 -393 1789 -382 q 1800 -417 1800 -404 q 1795 -440 1800 -429 q 1781 -454 1790 -450 l 1801 -537 l 1781 -537 l 1760 -458 l 1740 -458 l 1740 -537 l 1717 -537 m 842 365 l 842 533 q 883 533 858 533 q 919 517 908 533 q 924 482 925 501 q 911 453 922 463 q 888 444 900 444 q 864 443 876 443 l 864 365 l 842 365 m 1061 -331 l 1061 -165 l 1082 -165 l 1082 -237 l 1125 -237 l 1125 -165 l 1150 -165 l 1150 -331 l 1125 -331 l 1125 -254 l 1082 -254 l 1082 -331 l 1061 -331 m 1808 -331 l 1808 -165 l 1822 -165 l 1871 -275 l 1871 -165 l 1889 -165 l 1889 -331 l 1875 -331 l 1828 -219 l 1828 -331 l 1808 -331 m 1096 365 l 1132 533 l 1154 533 l 1190 365 l 1165 365 l 1158 410 l 1124 410 l 1117 365 l 1096 365 m 2085 -537 l 2085 -372 l 2099 -372 l 2147 -482 l 2147 -372 l 2165 -372 l 2165 -537 l 2150 -537 l 2101 -424 l 2101 -537 l 2085 -537 m 1700 -331 l 1732 -165 l 1757 -165 l 1792 -331 l 1769 -331 l 1761 -289 l 1728 -289 l 1718 -331 l 1700 -331 m 1292 -537 l 1326 -372 l 1350 -372 l 1385 -537 l 1364 -537 l 1357 -494 l 1321 -494 l 1314 -537 l 1292 -537 m 2028 682 l 2015 936 l 2057 936 l 2043 682 l 2028 682 m 618 1168 q 640 1167 629 1168 q 665 1169 651 1167 q 687 1187 682 1174 q 692 1215 692 1200 q 689 1250 693 1233 q 665 1272 685 1267 q 640 1274 651 1275 q 618 1274 629 1274 l 618 1168 m 1449 -331 q 1408 -327 1425 -337 q 1385 -293 1390 -317 q 1383 -272 1382 -282 q 1385 -254 1385 -262 l 1385 -165 l 1406 -165 l 1406 -239 q 1405 -259 1406 -246 q 1406 -285 1404 -272 q 1412 -307 1407 -297 q 1428 -317 1417 -317 q 1444 -307 1439 -317 q 1452 -285 1450 -297 q 1453 -259 1454 -272 q 1453 -239 1453 -246 l 1453 -165 l 1472 -165 l 1472 -240 q 1473 -265 1472 -251 q 1472 -291 1474 -278 q 1466 -315 1471 -304 q 1449 -331 1461 -326 m 508 -539 q 478 -526 488 -539 q 465 -497 468 -514 q 463 -459 463 -479 q 464 -424 464 -439 q 476 -385 464 -401 q 515 -371 488 -368 q 546 -391 540 -374 q 551 -428 551 -408 l 529 -428 q 530 -413 529 -421 q 526 -399 531 -406 q 511 -386 524 -387 q 493 -396 499 -385 q 487 -424 485 -404 q 489 -456 489 -443 q 487 -483 489 -465 q 494 -512 485 -501 q 511 -520 499 -522 q 526 -507 524 -518 q 530 -492 531 -500 q 529 -476 529 -483 l 551 -476 q 544 -518 551 -497 q 508 -539 538 -539 m 1185 -539 q 1153 -526 1163 -539 q 1142 -497 1144 -514 q 1142 -459 1140 -479 q 1143 -424 1143 -439 q 1153 -385 1143 -401 q 1192 -371 1164 -368 q 1224 -391 1218 -374 q 1229 -428 1229 -408 l 1204 -428 q 1206 -413 1204 -421 q 1203 -399 1207 -406 q 1188 -386 1200 -387 q 1169 -396 1176 -385 q 1163 -424 1161 -404 q 1164 -456 1164 -443 q 1163 -483 1164 -465 q 1171 -512 1161 -501 q 1188 -520 1176 -522 q 1203 -507 1200 -518 q 1206 -492 1207 -500 q 1204 -476 1204 -483 l 1229 -476 q 1222 -518 1229 -497 q 1185 -539 1215 -539 m 1625 364 q 1593 378 1603 364 q 1582 413 1583 392 l 1604 419 q 1608 400 1604 411 q 1619 383 1611 389 q 1637 387 1631 381 q 1643 403 1643 393 q 1630 433 1644 419 q 1604 457 1615 446 q 1583 490 1589 469 q 1594 528 1576 511 q 1640 532 1618 539 q 1656 515 1651 526 q 1663 492 1661 503 l 1643 488 q 1640 503 1642 494 q 1631 518 1638 511 q 1616 518 1624 521 q 1607 504 1608 515 q 1610 482 1599 493 q 1629 463 1621 471 q 1649 444 1639 454 q 1663 418 1660 433 q 1659 381 1669 399 q 1625 364 1649 364 m 1864 -539 q 1831 -524 1842 -539 q 1818 -490 1821 -510 l 1840 -485 q 1843 -503 1840 -493 q 1854 -517 1846 -514 q 1874 -517 1867 -524 q 1881 -501 1881 -511 q 1866 -472 1881 -485 q 1840 -450 1851 -458 q 1819 -413 1825 -435 q 1833 -378 1814 -392 q 1856 -369 1843 -371 q 1878 -374 1869 -368 q 1894 -388 1889 -376 q 1900 -411 1899 -400 l 1881 -418 q 1878 -401 1879 -410 q 1869 -386 1876 -393 q 1842 -399 1847 -381 q 1847 -421 1836 -411 q 1867 -439 1857 -431 q 1887 -460 1876 -450 q 1900 -486 1897 -471 q 1896 -522 1907 -506 q 1864 -539 1885 -539 m 1244 364 q 1213 378 1225 364 q 1200 413 1201 392 l 1222 419 q 1225 400 1222 411 q 1236 383 1228 389 q 1255 387 1247 381 q 1263 403 1263 393 q 1248 433 1263 419 q 1222 457 1233 446 q 1201 490 1207 469 q 1214 528 1196 511 q 1236 534 1224 533 q 1258 532 1249 535 q 1276 515 1271 526 q 1282 492 1281 503 l 1263 488 q 1259 503 1261 494 q 1250 518 1257 511 q 1234 518 1242 521 q 1224 504 1226 515 q 1229 482 1219 493 q 1246 463 1239 471 q 1268 444 1257 454 q 1282 418 1279 433 q 1278 381 1289 399 q 1244 364 1267 364 m 975 1168 q 997 1168 985 1168 q 1021 1171 1010 1168 q 1041 1192 1036 1178 q 1043 1225 1046 1207 q 1040 1251 1043 1240 q 1021 1269 1036 1263 q 997 1274 1010 1275 q 975 1274 985 1274 l 975 1168 m 1461 365 l 1424 533 l 1449 533 l 1472 411 l 1499 533 l 1517 533 l 1482 365 l 1461 365 m 1560 -537 l 1522 -372 l 1543 -372 l 1571 -493 l 1593 -372 l 1617 -372 l 1578 -537 l 1560 -537 m 1301 365 l 1301 533 l 1368 533 l 1368 518 l 1325 518 l 1325 461 l 1360 461 l 1360 444 l 1325 444 l 1325 382 l 1369 382 l 1369 365 l 1301 365 m 1633 -537 l 1633 -372 l 1700 -372 l 1700 -386 l 1657 -386 l 1657 -440 l 1692 -440 l 1692 -458 l 1657 -458 l 1657 -521 l 1700 -521 l 1700 -537 l 1633 -537 m 954 -537 l 954 -372 l 1019 -372 l 1019 -386 l 978 -386 l 978 -440 l 1013 -440 l 1013 -458 l 978 -458 l 978 -521 l 1019 -521 l 1019 -537 l 954 -537 m 1175 -331 l 1175 -165 l 1239 -165 l 1239 -182 l 1199 -182 l 1199 -237 l 1233 -237 l 1233 -254 l 1199 -254 l 1199 -317 l 1239 -317 l 1239 -331 l 1175 -331 m 746 -314 q 766 -315 760 -321 q 775 -299 772 -310 q 778 -276 778 -289 q 778 -256 778 -264 q 778 -239 778 -250 q 779 -217 779 -228 q 776 -197 779 -206 q 768 -183 774 -187 q 743 -186 753 -175 q 733 -211 733 -197 l 733 -237 q 733 -255 733 -243 q 732 -278 732 -267 q 735 -301 732 -290 q 746 -314 738 -311 m 1021 365 l 1021 533 l 1085 533 l 1085 518 l 1042 518 l 1042 461 l 1078 461 l 1078 444 l 1042 444 l 1042 382 l 1085 382 l 1085 365 l 1021 365 m 2003 -515 q 2024 -519 2017 -524 q 2034 -504 2031 -514 q 2038 -482 2038 -494 q 2038 -461 2038 -469 q 2038 -444 2038 -456 q 2038 -423 2039 -433 q 2033 -403 2036 -412 q 2025 -392 2031 -394 q 2001 -392 2008 -381 q 1994 -415 1994 -403 l 1994 -440 q 1993 -458 1994 -447 q 1992 -482 1992 -469 q 1994 -504 1992 -494 q 2003 -515 1996 -514 m 604 -515 q 625 -519 618 -524 q 635 -504 632 -514 q 638 -482 638 -494 q 638 -461 638 -469 q 638 -444 638 -456 q 638 -423 639 -433 q 635 -403 638 -412 q 628 -392 633 -394 q 602 -392 610 -381 q 594 -415 594 -403 q 594 -428 593 -422 q 594 -440 594 -435 q 594 -458 594 -447 q 593 -482 593 -469 q 595 -504 593 -494 q 604 -515 597 -514 m 633 -331 l 633 -165 l 697 -165 l 697 -182 l 658 -182 l 658 -237 l 689 -237 l 689 -254 l 658 -254 l 658 -331 l 633 -331 m 1939 -317 q 1965 -314 1954 -317 q 1978 -293 1975 -311 l 1978 -206 q 1965 -185 1976 -187 q 1939 -182 1954 -182 l 1939 -317 m 996 -331 l 996 -182 l 965 -182 l 965 -165 l 1050 -165 l 1050 -182 l 1019 -182 l 1019 -331 l 996 -331 m 1578 -331 l 1578 -165 l 1601 -165 l 1601 -317 l 1643 -317 l 1643 -331 l 1578 -331 m 1754 365 l 1754 518 l 1722 518 l 1722 533 l 1803 533 l 1803 518 l 1775 518 l 1775 365 l 1754 365 m 1308 -331 l 1308 -165 l 1371 -165 l 1371 -182 l 1326 -182 l 1326 -237 l 1360 -237 l 1360 -254 l 1326 -254 l 1326 -331 l 1308 -331 m 1499 -331 l 1499 -165 l 1521 -165 l 1521 -317 l 1563 -317 l 1563 -331 l 1499 -331 m 940 365 l 940 533 l 961 533 l 961 382 l 1004 382 l 1004 365 l 940 365 m 1683 365 l 1683 533 l 1708 533 l 1708 365 l 1683 365 m 1403 -537 l 1403 -372 l 1424 -372 l 1424 -521 l 1468 -521 l 1468 -537 l 1403 -537 m 1799 1096 l 1854 1096 l 1826 1244 l 1799 1096 m 599 -78 l 658 -78 l 658 -11 l 599 -11 l 599 -78 m 1251 -537 l 1251 -372 l 1275 -372 l 1275 -537 l 1251 -537 m 1538 365 l 1538 533 l 1560 533 l 1560 365 l 1538 365 m 1922 -537 l 1922 -372 l 1943 -372 l 1943 -537 l 1922 -537 m 864 460 q 876 460 869 460 q 890 463 883 460 q 900 475 899 467 q 901 493 901 483 q 890 515 900 513 q 864 518 879 518 l 864 460 m 2015 613 l 2015 658 l 2057 658 l 2057 613 l 2015 613 m 847 -237 q 874 -233 863 -237 q 885 -208 885 -228 q 874 -185 885 -189 q 847 -182 863 -182 l 847 -237 m 1740 -440 q 1767 -437 1756 -440 q 1778 -414 1778 -433 q 1767 -392 1778 -397 q 1740 -386 1756 -386 l 1740 -440 m 1063 -440 q 1088 -437 1078 -440 q 1097 -414 1097 -433 q 1088 -392 1097 -397 q 1063 -386 1078 -386 l 1063 -440 m 1125 425 l 1156 425 l 1143 501 l 1125 425 m 1324 -479 l 1353 -479 l 1339 -403 l 1324 -479 m 1731 -272 l 1760 -272 l 1744 -197 l 1731 -272 m 1457 60 l 1468 131 l 1478 60 l 1457 60 m 2375 279 l 2310 -78 l 2369 -78 l 2383 7 l 2422 7 l 2433 -78 l 2493 -78 l 2431 279 l 2375 279 m 2392 60 l 2403 131 l 2413 60 l 2392 60 z "},"1":{"ha":2606,"x_min":142,"x_max":2493,"o":"m 288 279 l 246 56 l 206 279 l 147 279 l 142 -78 l 197 -78 l 199 68 l 226 -78 l 268 -78 l 297 69 l 300 -78 l 351 -78 l 349 279 l 288 279 m 1946 153 q 1942 217 1946 183 q 1907 271 1938 251 q 1868 283 1890 282 q 1826 278 1846 283 q 1791 249 1803 269 q 1775 204 1779 228 q 1774 177 1774 190 q 1774 150 1774 164 l 1774 53 q 1774 26 1774 39 q 1775 -1 1774 13 q 1791 -46 1779 -25 q 1826 -75 1803 -67 q 1868 -80 1846 -81 q 1907 -68 1890 -79 q 1942 -15 1938 -49 q 1946 50 1946 19 l 1946 153 m 1408 979 q 1322 1051 1335 979 q 1319 1082 1319 1067 q 1319 1113 1319 1097 q 1318 1184 1319 1146 q 1325 1254 1317 1222 q 1355 1295 1333 1282 q 1403 1310 1376 1308 q 1455 1300 1431 1311 q 1489 1261 1479 1289 q 1499 1192 1500 1231 q 1499 1121 1499 1154 q 1498 1083 1499 1101 q 1493 1046 1497 1064 q 1408 979 1478 979 m 1324 610 q 1267 627 1289 610 q 1238 678 1244 644 q 1235 710 1235 694 q 1236 744 1236 726 q 1235 813 1236 776 q 1240 882 1233 850 q 1269 924 1249 911 q 1318 938 1290 938 q 1371 929 1347 939 q 1404 892 1394 919 q 1414 822 1417 860 q 1411 751 1411 783 q 1412 712 1411 729 q 1408 675 1413 694 q 1324 610 1396 610 m 504 108 l 443 279 l 397 279 l 397 -78 l 453 -78 l 453 97 l 515 -78 l 560 -78 l 560 279 l 504 279 l 504 108 m 954 56 l 990 56 q 990 33 990 49 q 988 2 990 17 q 977 -22 985 -12 q 954 -25 969 -31 q 940 -12 944 -22 q 935 9 936 -3 q 934 33 933 21 q 935 51 935 44 l 935 136 q 934 174 935 153 q 938 214 933 196 q 949 226 942 221 q 965 229 957 231 q 985 207 983 224 q 987 181 988 194 q 986 153 986 168 l 1046 153 q 1042 218 1046 183 q 1007 272 1038 253 q 968 284 990 283 q 926 278 946 285 q 891 250 903 271 q 875 206 879 229 q 873 154 872 181 q 874 101 874 128 q 873 52 874 76 q 875 3 872 28 q 885 -40 878 -18 q 913 -71 893 -61 q 957 -83 931 -83 q 999 -67 983 -82 l 1000 -78 l 1047 -78 l 1047 108 l 954 108 l 954 56 m 928 982 l 928 1308 q 994 1309 960 1308 q 1056 1294 1028 1310 q 1082 1262 1072 1283 q 1092 1217 1092 1240 q 1082 1173 1092 1193 q 1053 1146 1072 1153 l 1096 982 l 1053 982 l 1010 1136 l 975 1136 l 975 982 l 928 982 m 2096 108 l 2067 140 q 2048 158 2057 150 q 2035 182 2039 167 q 2034 212 2031 193 q 2056 229 2038 231 q 2069 219 2065 228 q 2076 201 2074 211 q 2078 179 2078 190 q 2079 160 2079 168 l 2135 163 q 2128 229 2135 196 q 2089 276 2121 263 q 2050 283 2069 285 q 2015 274 2031 282 q 1988 249 1999 265 q 1976 213 1978 233 q 1977 169 1974 192 q 1993 131 1981 147 q 2006 113 1997 119 q 2024 96 2015 106 q 2060 55 2040 76 q 2079 6 2079 33 q 2077 -15 2079 -6 q 2065 -25 2075 -24 q 2051 -24 2057 -28 q 2043 -12 2046 -19 q 2033 19 2035 3 q 2031 51 2032 35 l 1975 47 q 1977 3 1975 24 q 1989 -39 1979 -18 q 2024 -75 2000 -64 q 2075 -81 2049 -86 q 2119 -54 2103 -75 q 2138 -10 2135 -33 q 2096 108 2146 57 m 804 108 l 775 140 q 756 158 765 150 q 743 182 747 167 q 742 212 739 193 q 764 229 746 231 q 778 219 774 228 q 784 201 782 211 q 787 179 786 190 q 788 160 788 168 l 843 163 q 836 229 843 196 q 797 276 829 263 q 758 283 778 285 q 723 274 739 282 q 697 249 707 265 q 685 213 686 233 q 685 169 682 192 q 701 131 689 147 q 715 113 706 119 q 732 96 724 106 q 768 55 749 76 q 788 6 788 33 q 785 -15 788 -6 q 774 -25 783 -24 q 760 -24 765 -28 q 751 -12 754 -19 q 742 19 743 3 q 739 51 740 35 l 683 47 q 685 3 683 24 q 697 -39 688 -18 q 733 -75 708 -64 q 783 -81 757 -86 q 827 -54 811 -75 q 846 -10 843 -33 q 804 108 854 57 m 1440 279 l 1375 -78 l 1435 -78 l 1449 7 l 1488 7 l 1499 -78 l 1558 -78 l 1496 279 l 1440 279 m 1582 208 l 1582 -7 q 1604 -60 1582 -40 q 1654 -82 1626 -79 q 1697 -75 1678 -85 q 1736 -28 1729 -61 q 1743 39 1743 6 l 1688 42 q 1687 22 1688 33 q 1684 1 1686 11 q 1678 -18 1682 -10 q 1664 -28 1674 -26 q 1642 -4 1642 -31 l 1642 206 q 1664 229 1642 232 q 1678 219 1674 228 q 1684 201 1682 211 q 1687 179 1686 190 q 1688 160 1688 168 l 1743 163 q 1736 229 1743 196 q 1697 276 1729 263 q 1654 283 1678 286 q 1604 261 1626 281 q 1582 208 1582 242 m 574 982 l 574 1308 l 642 1308 q 688 1303 667 1308 q 722 1272 710 1297 q 733 1241 729 1258 q 735 1207 736 1224 q 726 1175 733 1190 q 707 1150 719 1160 q 664 1135 689 1135 q 618 1135 639 1135 l 618 982 l 574 982 m 1457 613 l 1457 936 l 1488 936 l 1579 719 l 1579 936 l 1619 936 l 1619 613 l 1589 613 l 1494 833 l 1494 613 l 1457 613 m 1543 982 l 1543 1308 l 1574 1308 l 1664 1092 l 1664 1308 l 1703 1308 l 1703 982 l 1674 982 l 1579 1203 l 1579 982 l 1543 982 m 1736 982 l 1804 1308 l 1849 1308 l 1917 982 l 1875 982 l 1858 1063 l 1793 1063 l 1778 982 l 1736 982 m 697 614 q 633 613 668 603 q 586 657 599 622 q 578 692 579 674 q 576 735 576 711 l 576 936 l 619 936 l 619 719 q 622 678 619 701 q 646 643 625 654 q 676 643 664 638 q 694 660 688 649 q 703 685 700 671 q 706 714 706 700 q 706 766 707 742 q 706 818 706 790 l 706 936 l 751 936 l 751 788 q 752 740 751 767 q 749 689 753 714 q 734 643 746 664 q 697 614 722 622 m 2265 -78 l 2265 217 l 2315 217 l 2315 279 l 2154 279 l 2154 217 l 2206 217 l 2206 -78 l 2265 -78 m 1229 -78 l 1367 -78 l 1367 -15 l 1289 -15 l 1289 279 l 1229 279 l 1229 -78 m 1213 979 q 1149 1006 1172 979 q 1125 1072 1126 1033 l 1167 1083 q 1172 1052 1169 1068 q 1185 1026 1175 1036 q 1211 1014 1196 1015 q 1238 1022 1226 1013 q 1249 1053 1250 1033 q 1239 1088 1249 1072 q 1203 1122 1231 1101 q 1170 1151 1188 1136 q 1142 1182 1153 1165 q 1128 1219 1131 1199 q 1129 1256 1125 1239 q 1145 1288 1133 1274 q 1176 1307 1157 1301 q 1217 1309 1194 1311 q 1254 1296 1239 1307 q 1276 1265 1271 1285 q 1283 1226 1282 1246 l 1249 1215 q 1240 1251 1246 1232 q 1213 1276 1233 1271 q 1185 1270 1197 1278 q 1169 1249 1172 1263 q 1171 1223 1167 1235 q 1183 1201 1175 1211 q 1202 1183 1192 1192 q 1222 1168 1213 1175 q 1263 1128 1243 1149 q 1289 1081 1282 1108 q 1275 1010 1296 1040 q 1213 979 1254 979 m 874 610 q 811 636 832 610 q 788 703 790 663 l 831 714 q 834 683 832 699 q 846 657 836 668 q 872 643 857 644 q 899 653 888 642 q 911 683 913 664 q 900 715 910 703 q 884 735 893 725 q 864 751 875 744 q 831 781 849 767 q 801 814 813 796 q 789 848 792 829 q 791 885 786 867 q 807 917 796 903 q 838 936 818 931 q 878 939 856 940 q 917 926 900 938 q 938 895 932 915 q 944 856 943 875 l 910 843 q 901 881 907 863 q 874 904 894 900 q 847 899 858 907 q 832 875 835 892 q 832 851 828 863 q 844 831 836 840 q 863 813 853 821 q 882 797 874 806 q 923 758 904 778 q 947 708 942 739 q 935 640 957 671 q 874 610 914 610 m 1060 -122 l 1111 -122 l 1213 325 l 1156 325 l 1060 -122 m 986 613 l 986 936 l 1113 936 l 1113 901 l 1032 901 l 1032 796 l 1097 796 l 1097 763 l 1032 763 l 1032 642 l 1113 642 l 1113 613 l 986 613 m 767 982 l 767 1308 l 892 1308 l 892 1274 l 811 1274 l 811 1168 l 876 1168 l 876 1135 l 811 1135 l 811 1014 l 893 1014 l 893 982 l 767 982 m 1301 647 q 1324 642 1311 642 q 1343 647 1336 642 q 1360 666 1356 654 q 1368 690 1365 678 q 1369 707 1369 697 q 1368 724 1368 717 l 1368 839 q 1367 867 1368 853 q 1354 893 1365 882 q 1314 904 1336 911 q 1282 874 1292 899 q 1279 822 1278 850 q 1281 771 1281 794 l 1281 713 q 1283 676 1281 696 q 1301 647 1285 657 m 1876 613 l 1876 679 q 1878 704 1876 692 q 1876 728 1879 717 q 1867 760 1874 746 q 1854 790 1861 775 l 1808 936 l 1850 936 l 1899 781 l 1946 936 l 1990 936 q 1968 869 1979 903 q 1946 801 1957 836 l 1924 735 q 1920 713 1919 724 q 1921 693 1921 701 l 1921 613 l 1876 613 m 1390 1017 q 1431 1017 1408 1010 q 1448 1035 1444 1024 q 1453 1058 1451 1047 l 1453 1210 q 1451 1238 1453 1224 q 1439 1263 1450 1253 q 1422 1275 1432 1274 q 1400 1274 1411 1276 q 1369 1246 1376 1272 q 1365 1194 1363 1222 q 1368 1142 1368 1165 l 1368 1082 q 1369 1046 1368 1065 q 1390 1017 1371 1026 m 1951 982 l 1951 1308 l 1996 1308 l 1996 1014 l 2079 1014 l 2079 982 l 1951 982 m 1669 613 l 1669 936 l 1714 936 l 1714 642 l 1796 642 l 1796 613 l 1669 613 m 617 -539 q 586 -530 596 -539 q 573 -508 576 -521 q 569 -478 569 -494 q 569 -450 569 -462 q 570 -419 569 -435 q 576 -393 571 -404 q 591 -376 581 -382 q 621 -371 601 -369 q 647 -381 638 -372 q 659 -401 656 -389 q 663 -428 663 -414 q 663 -456 663 -443 q 663 -483 663 -468 q 658 -510 663 -497 q 644 -531 654 -522 q 617 -539 635 -539 m 757 -333 q 728 -324 738 -333 q 715 -301 718 -315 q 711 -272 711 -287 q 711 -242 711 -256 q 712 -213 711 -228 q 717 -187 713 -199 q 732 -169 722 -176 q 761 -164 742 -162 q 786 -174 778 -165 q 799 -194 794 -182 q 803 -222 803 -207 q 803 -249 803 -236 q 802 -276 803 -261 q 797 -304 801 -292 q 784 -325 793 -317 q 757 -333 775 -333 m 2014 -539 q 1985 -530 1994 -539 q 1972 -508 1975 -521 q 1968 -478 1968 -494 q 1968 -450 1968 -462 q 1969 -419 1968 -435 q 1974 -393 1969 -404 q 1990 -376 1979 -382 q 2019 -371 2000 -369 q 2045 -381 2038 -372 q 2056 -401 2053 -389 q 2058 -428 2058 -414 q 2057 -456 2057 -443 q 2057 -483 2057 -468 q 2053 -510 2057 -497 q 2041 -531 2050 -522 q 2014 -539 2032 -539 m 1917 -331 l 1917 -165 q 1953 -165 1932 -165 q 1989 -176 1974 -164 q 2003 -210 2004 -189 q 2001 -249 2001 -232 q 2002 -288 2001 -265 q 1983 -322 2003 -311 q 1951 -332 1971 -333 q 1917 -331 1932 -331 m 1886 50 q 1887 22 1886 35 q 1885 -3 1888 8 q 1865 -25 1883 -19 q 1849 -22 1857 -26 q 1838 -11 1842 -18 q 1834 24 1833 4 q 1835 60 1835 44 l 1835 143 q 1834 178 1835 158 q 1838 214 1833 199 q 1849 225 1842 221 q 1865 228 1857 229 q 1885 206 1883 222 q 1887 181 1888 194 q 1886 153 1886 168 l 1886 50 m 683 -537 l 686 -372 l 711 -372 l 740 -504 l 768 -372 l 790 -372 l 793 -537 l 775 -537 l 774 -415 l 746 -537 l 731 -537 l 704 -415 l 703 -537 l 683 -537 m 1036 -537 l 1036 -372 q 1069 -371 1053 -372 q 1100 -376 1086 -369 q 1115 -393 1110 -382 q 1119 -417 1119 -404 q 1114 -440 1119 -429 q 1099 -454 1108 -450 l 1122 -537 l 1100 -537 l 1081 -458 l 1063 -458 l 1063 -537 l 1036 -537 m 818 -537 l 821 -372 l 844 -372 l 874 -504 l 903 -372 l 926 -372 l 928 -537 l 913 -537 l 910 -415 l 881 -537 l 865 -537 l 840 -415 l 838 -537 l 818 -537 m 825 -331 l 825 -165 q 856 -164 840 -165 q 886 -169 872 -162 q 901 -187 896 -175 q 908 -211 907 -199 q 903 -234 908 -224 q 886 -249 899 -244 l 911 -331 l 888 -331 l 864 -254 l 847 -254 l 847 -331 l 825 -331 m 1717 -537 l 1717 -372 q 1749 -371 1732 -372 q 1781 -376 1765 -369 q 1794 -393 1789 -382 q 1800 -417 1800 -404 q 1795 -440 1800 -429 q 1781 -454 1790 -450 l 1801 -537 l 1781 -537 l 1760 -458 l 1740 -458 l 1740 -537 l 1717 -537 m 842 365 l 842 533 q 883 533 858 533 q 919 517 908 533 q 924 482 925 501 q 911 453 922 463 q 888 444 900 444 q 864 443 876 443 l 864 365 l 842 365 m 1061 -331 l 1061 -165 l 1082 -165 l 1082 -237 l 1125 -237 l 1125 -165 l 1150 -165 l 1150 -331 l 1125 -331 l 1125 -254 l 1082 -254 l 1082 -331 l 1061 -331 m 1808 -331 l 1808 -165 l 1822 -165 l 1871 -275 l 1871 -165 l 1889 -165 l 1889 -331 l 1875 -331 l 1828 -219 l 1828 -331 l 1808 -331 m 1096 365 l 1132 533 l 1154 533 l 1190 365 l 1165 365 l 1158 410 l 1124 410 l 1117 365 l 1096 365 m 2085 -537 l 2085 -372 l 2099 -372 l 2147 -482 l 2147 -372 l 2165 -372 l 2165 -537 l 2150 -537 l 2101 -424 l 2101 -537 l 2085 -537 m 1700 -331 l 1732 -165 l 1757 -165 l 1792 -331 l 1769 -331 l 1761 -289 l 1728 -289 l 1718 -331 l 1700 -331 m 1292 -537 l 1326 -372 l 1350 -372 l 1385 -537 l 1364 -537 l 1357 -494 l 1321 -494 l 1314 -537 l 1292 -537 m 2028 682 l 2015 936 l 2057 936 l 2043 682 l 2028 682 m 618 1168 q 640 1167 629 1168 q 665 1169 651 1167 q 687 1187 682 1174 q 692 1215 692 1200 q 689 1250 693 1233 q 665 1272 685 1267 q 640 1274 651 1275 q 618 1274 629 1274 l 618 1168 m 1449 -331 q 1408 -327 1425 -337 q 1385 -293 1390 -317 q 1383 -272 1382 -282 q 1385 -254 1385 -262 l 1385 -165 l 1406 -165 l 1406 -239 q 1405 -259 1406 -246 q 1406 -285 1404 -272 q 1412 -307 1407 -297 q 1428 -317 1417 -317 q 1444 -307 1439 -317 q 1452 -285 1450 -297 q 1453 -259 1454 -272 q 1453 -239 1453 -246 l 1453 -165 l 1472 -165 l 1472 -240 q 1473 -265 1472 -251 q 1472 -291 1474 -278 q 1466 -315 1471 -304 q 1449 -331 1461 -326 m 508 -539 q 478 -526 488 -539 q 465 -497 468 -514 q 463 -459 463 -479 q 464 -424 464 -439 q 476 -385 464 -401 q 515 -371 488 -368 q 546 -391 540 -374 q 551 -428 551 -408 l 529 -428 q 530 -413 529 -421 q 526 -399 531 -406 q 511 -386 524 -387 q 493 -396 499 -385 q 487 -424 485 -404 q 489 -456 489 -443 q 487 -483 489 -465 q 494 -512 485 -501 q 511 -520 499 -522 q 526 -507 524 -518 q 530 -492 531 -500 q 529 -476 529 -483 l 551 -476 q 544 -518 551 -497 q 508 -539 538 -539 m 1185 -539 q 1153 -526 1163 -539 q 1142 -497 1144 -514 q 1142 -459 1140 -479 q 1143 -424 1143 -439 q 1153 -385 1143 -401 q 1192 -371 1164 -368 q 1224 -391 1218 -374 q 1229 -428 1229 -408 l 1204 -428 q 1206 -413 1204 -421 q 1203 -399 1207 -406 q 1188 -386 1200 -387 q 1169 -396 1176 -385 q 1163 -424 1161 -404 q 1164 -456 1164 -443 q 1163 -483 1164 -465 q 1171 -512 1161 -501 q 1188 -520 1176 -522 q 1203 -507 1200 -518 q 1206 -492 1207 -500 q 1204 -476 1204 -483 l 1229 -476 q 1222 -518 1229 -497 q 1185 -539 1215 -539 m 1625 364 q 1593 378 1603 364 q 1582 413 1583 392 l 1604 419 q 1608 400 1604 411 q 1619 383 1611 389 q 1637 387 1631 381 q 1643 403 1643 393 q 1630 433 1644 419 q 1604 457 1615 446 q 1583 490 1589 469 q 1594 528 1576 511 q 1640 532 1618 539 q 1656 515 1651 526 q 1663 492 1661 503 l 1643 488 q 1640 503 1642 494 q 1631 518 1638 511 q 1616 518 1624 521 q 1607 504 1608 515 q 1610 482 1599 493 q 1629 463 1621 471 q 1649 444 1639 454 q 1663 418 1660 433 q 1659 381 1669 399 q 1625 364 1649 364 m 1864 -539 q 1831 -524 1842 -539 q 1818 -490 1821 -510 l 1840 -485 q 1843 -503 1840 -493 q 1854 -517 1846 -514 q 1874 -517 1867 -524 q 1881 -501 1881 -511 q 1866 -472 1881 -485 q 1840 -450 1851 -458 q 1819 -413 1825 -435 q 1833 -378 1814 -392 q 1856 -369 1843 -371 q 1878 -374 1869 -368 q 1894 -388 1889 -376 q 1900 -411 1899 -400 l 1881 -418 q 1878 -401 1879 -410 q 1869 -386 1876 -393 q 1842 -399 1847 -381 q 1847 -421 1836 -411 q 1867 -439 1857 -431 q 1887 -460 1876 -450 q 1900 -486 1897 -471 q 1896 -522 1907 -506 q 1864 -539 1885 -539 m 1244 364 q 1213 378 1225 364 q 1200 413 1201 392 l 1222 419 q 1225 400 1222 411 q 1236 383 1228 389 q 1255 387 1247 381 q 1263 403 1263 393 q 1248 433 1263 419 q 1222 457 1233 446 q 1201 490 1207 469 q 1214 528 1196 511 q 1236 534 1224 533 q 1258 532 1249 535 q 1276 515 1271 526 q 1282 492 1281 503 l 1263 488 q 1259 503 1261 494 q 1250 518 1257 511 q 1234 518 1242 521 q 1224 504 1226 515 q 1229 482 1219 493 q 1246 463 1239 471 q 1268 444 1257 454 q 1282 418 1279 433 q 1278 381 1289 399 q 1244 364 1267 364 m 975 1168 q 997 1168 985 1168 q 1021 1171 1010 1168 q 1041 1192 1036 1178 q 1043 1225 1046 1207 q 1040 1251 1043 1240 q 1021 1269 1036 1263 q 997 1274 1010 1275 q 975 1274 985 1274 l 975 1168 m 1461 365 l 1424 533 l 1449 533 l 1472 411 l 1499 533 l 1517 533 l 1482 365 l 1461 365 m 1560 -537 l 1522 -372 l 1543 -372 l 1571 -493 l 1593 -372 l 1617 -372 l 1578 -537 l 1560 -537 m 1301 365 l 1301 533 l 1368 533 l 1368 518 l 1325 518 l 1325 461 l 1360 461 l 1360 444 l 1325 444 l 1325 382 l 1369 382 l 1369 365 l 1301 365 m 1633 -537 l 1633 -372 l 1700 -372 l 1700 -386 l 1657 -386 l 1657 -440 l 1692 -440 l 1692 -458 l 1657 -458 l 1657 -521 l 1700 -521 l 1700 -537 l 1633 -537 m 954 -537 l 954 -372 l 1019 -372 l 1019 -386 l 978 -386 l 978 -440 l 1013 -440 l 1013 -458 l 978 -458 l 978 -521 l 1019 -521 l 1019 -537 l 954 -537 m 1175 -331 l 1175 -165 l 1239 -165 l 1239 -182 l 1199 -182 l 1199 -237 l 1233 -237 l 1233 -254 l 1199 -254 l 1199 -317 l 1239 -317 l 1239 -331 l 1175 -331 m 746 -314 q 766 -315 760 -321 q 775 -299 772 -310 q 778 -276 778 -289 q 778 -256 778 -264 q 778 -239 778 -250 q 779 -217 779 -228 q 776 -197 779 -206 q 768 -183 774 -187 q 743 -186 753 -175 q 733 -211 733 -197 l 733 -237 q 733 -255 733 -243 q 732 -278 732 -267 q 735 -301 732 -290 q 746 -314 738 -311 m 1021 365 l 1021 533 l 1085 533 l 1085 518 l 1042 518 l 1042 461 l 1078 461 l 1078 444 l 1042 444 l 1042 382 l 1085 382 l 1085 365 l 1021 365 m 2003 -515 q 2024 -519 2017 -524 q 2034 -504 2031 -514 q 2038 -482 2038 -494 q 2038 -461 2038 -469 q 2038 -444 2038 -456 q 2038 -423 2039 -433 q 2033 -403 2036 -412 q 2025 -392 2031 -394 q 2001 -392 2008 -381 q 1994 -415 1994 -403 l 1994 -440 q 1993 -458 1994 -447 q 1992 -482 1992 -469 q 1994 -504 1992 -494 q 2003 -515 1996 -514 m 604 -515 q 625 -519 618 -524 q 635 -504 632 -514 q 638 -482 638 -494 q 638 -461 638 -469 q 638 -444 638 -456 q 638 -423 639 -433 q 635 -403 638 -412 q 628 -392 633 -394 q 602 -392 610 -381 q 594 -415 594 -403 q 594 -428 593 -422 q 594 -440 594 -435 q 594 -458 594 -447 q 593 -482 593 -469 q 595 -504 593 -494 q 604 -515 597 -514 m 633 -331 l 633 -165 l 697 -165 l 697 -182 l 658 -182 l 658 -237 l 689 -237 l 689 -254 l 658 -254 l 658 -331 l 633 -331 m 1939 -317 q 1965 -314 1954 -317 q 1978 -293 1975 -311 l 1978 -206 q 1965 -185 1976 -187 q 1939 -182 1954 -182 l 1939 -317 m 996 -331 l 996 -182 l 965 -182 l 965 -165 l 1050 -165 l 1050 -182 l 1019 -182 l 1019 -331 l 996 -331 m 1578 -331 l 1578 -165 l 1601 -165 l 1601 -317 l 1643 -317 l 1643 -331 l 1578 -331 m 1754 365 l 1754 518 l 1722 518 l 1722 533 l 1803 533 l 1803 518 l 1775 518 l 1775 365 l 1754 365 m 1308 -331 l 1308 -165 l 1371 -165 l 1371 -182 l 1326 -182 l 1326 -237 l 1360 -237 l 1360 -254 l 1326 -254 l 1326 -331 l 1308 -331 m 1499 -331 l 1499 -165 l 1521 -165 l 1521 -317 l 1563 -317 l 1563 -331 l 1499 -331 m 940 365 l 940 533 l 961 533 l 961 382 l 1004 382 l 1004 365 l 940 365 m 1683 365 l 1683 533 l 1708 533 l 1708 365 l 1683 365 m 1403 -537 l 1403 -372 l 1424 -372 l 1424 -521 l 1468 -521 l 1468 -537 l 1403 -537 m 1799 1096 l 1854 1096 l 1826 1244 l 1799 1096 m 599 -78 l 658 -78 l 658 -11 l 599 -11 l 599 -78 m 1251 -537 l 1251 -372 l 1275 -372 l 1275 -537 l 1251 -537 m 1538 365 l 1538 533 l 1560 533 l 1560 365 l 1538 365 m 1922 -537 l 1922 -372 l 1943 -372 l 1943 -537 l 1922 -537 m 864 460 q 876 460 869 460 q 890 463 883 460 q 900 475 899 467 q 901 493 901 483 q 890 515 900 513 q 864 518 879 518 l 864 460 m 2015 613 l 2015 658 l 2057 658 l 2057 613 l 2015 613 m 847 -237 q 874 -233 863 -237 q 885 -208 885 -228 q 874 -185 885 -189 q 847 -182 863 -182 l 847 -237 m 1740 -440 q 1767 -437 1756 -440 q 1778 -414 1778 -433 q 1767 -392 1778 -397 q 1740 -386 1756 -386 l 1740 -440 m 1063 -440 q 1088 -437 1078 -440 q 1097 -414 1097 -433 q 1088 -392 1097 -397 q 1063 -386 1078 -386 l 1063 -440 m 1125 425 l 1156 425 l 1143 501 l 1125 425 m 1324 -479 l 1353 -479 l 1339 -403 l 1324 -479 m 1731 -272 l 1760 -272 l 1744 -197 l 1731 -272 m 1457 60 l 1468 131 l 1478 60 l 1457 60 m 2375 279 l 2310 -78 l 2369 -78 l 2383 7 l 2422 7 l 2433 -78 l 2493 -78 l 2431 279 l 2375 279 m 2392 60 l 2403 131 l 2413 60 l 2392 60 z "},"2":{"ha":2606,"x_min":142,"x_max":2493,"o":"m 288 279 l 246 56 l 206 279 l 147 279 l 142 -78 l 197 -78 l 199 68 l 226 -78 l 268 -78 l 297 69 l 300 -78 l 351 -78 l 349 279 l 288 279 m 1946 153 q 1942 217 1946 183 q 1907 271 1938 251 q 1868 283 1890 282 q 1826 278 1846 283 q 1791 249 1803 269 q 1775 204 1779 228 q 1774 177 1774 190 q 1774 150 1774 164 l 1774 53 q 1774 26 1774 39 q 1775 -1 1774 13 q 1791 -46 1779 -25 q 1826 -75 1803 -67 q 1868 -80 1846 -81 q 1907 -68 1890 -79 q 1942 -15 1938 -49 q 1946 50 1946 19 l 1946 153 m 1408 979 q 1322 1051 1335 979 q 1319 1082 1319 1067 q 1319 1113 1319 1097 q 1318 1184 1319 1146 q 1325 1254 1317 1222 q 1355 1295 1333 1282 q 1403 1310 1376 1308 q 1455 1300 1431 1311 q 1489 1261 1479 1289 q 1499 1192 1500 1231 q 1499 1121 1499 1154 q 1498 1083 1499 1101 q 1493 1046 1497 1064 q 1408 979 1478 979 m 1324 610 q 1267 627 1289 610 q 1238 678 1244 644 q 1235 710 1235 694 q 1236 744 1236 726 q 1235 813 1236 776 q 1240 882 1233 850 q 1269 924 1249 911 q 1318 938 1290 938 q 1371 929 1347 939 q 1404 892 1394 919 q 1414 822 1417 860 q 1411 751 1411 783 q 1412 712 1411 729 q 1408 675 1413 694 q 1324 610 1396 610 m 504 108 l 443 279 l 397 279 l 397 -78 l 453 -78 l 453 97 l 515 -78 l 560 -78 l 560 279 l 504 279 l 504 108 m 954 56 l 990 56 q 990 33 990 49 q 988 2 990 17 q 977 -22 985 -12 q 954 -25 969 -31 q 940 -12 944 -22 q 935 9 936 -3 q 934 33 933 21 q 935 51 935 44 l 935 136 q 934 174 935 153 q 938 214 933 196 q 949 226 942 221 q 965 229 957 231 q 985 207 983 224 q 987 181 988 194 q 986 153 986 168 l 1046 153 q 1042 218 1046 183 q 1007 272 1038 253 q 968 284 990 283 q 926 278 946 285 q 891 250 903 271 q 875 206 879 229 q 873 154 872 181 q 874 101 874 128 q 873 52 874 76 q 875 3 872 28 q 885 -40 878 -18 q 913 -71 893 -61 q 957 -83 931 -83 q 999 -67 983 -82 l 1000 -78 l 1047 -78 l 1047 108 l 954 108 l 954 56 m 928 982 l 928 1308 q 994 1309 960 1308 q 1056 1294 1028 1310 q 1082 1262 1072 1283 q 1092 1217 1092 1240 q 1082 1173 1092 1193 q 1053 1146 1072 1153 l 1096 982 l 1053 982 l 1010 1136 l 975 1136 l 975 982 l 928 982 m 2096 108 l 2067 140 q 2048 158 2057 150 q 2035 182 2039 167 q 2034 212 2031 193 q 2056 229 2038 231 q 2069 219 2065 228 q 2076 201 2074 211 q 2078 179 2078 190 q 2079 160 2079 168 l 2135 163 q 2128 229 2135 196 q 2089 276 2121 263 q 2050 283 2069 285 q 2015 274 2031 282 q 1988 249 1999 265 q 1976 213 1978 233 q 1977 169 1974 192 q 1993 131 1981 147 q 2006 113 1997 119 q 2024 96 2015 106 q 2060 55 2040 76 q 2079 6 2079 33 q 2077 -15 2079 -6 q 2065 -25 2075 -24 q 2051 -24 2057 -28 q 2043 -12 2046 -19 q 2033 19 2035 3 q 2031 51 2032 35 l 1975 47 q 1977 3 1975 24 q 1989 -39 1979 -18 q 2024 -75 2000 -64 q 2075 -81 2049 -86 q 2119 -54 2103 -75 q 2138 -10 2135 -33 q 2096 108 2146 57 m 804 108 l 775 140 q 756 158 765 150 q 743 182 747 167 q 742 212 739 193 q 764 229 746 231 q 778 219 774 228 q 784 201 782 211 q 787 179 786 190 q 788 160 788 168 l 843 163 q 836 229 843 196 q 797 276 829 263 q 758 283 778 285 q 723 274 739 282 q 697 249 707 265 q 685 213 686 233 q 685 169 682 192 q 701 131 689 147 q 715 113 706 119 q 732 96 724 106 q 768 55 749 76 q 788 6 788 33 q 785 -15 788 -6 q 774 -25 783 -24 q 760 -24 765 -28 q 751 -12 754 -19 q 742 19 743 3 q 739 51 740 35 l 683 47 q 685 3 683 24 q 697 -39 688 -18 q 733 -75 708 -64 q 783 -81 757 -86 q 827 -54 811 -75 q 846 -10 843 -33 q 804 108 854 57 m 1440 279 l 1375 -78 l 1435 -78 l 1449 7 l 1488 7 l 1499 -78 l 1558 -78 l 1496 279 l 1440 279 m 1582 208 l 1582 -7 q 1604 -60 1582 -40 q 1654 -82 1626 -79 q 1697 -75 1678 -85 q 1736 -28 1729 -61 q 1743 39 1743 6 l 1688 42 q 1687 22 1688 33 q 1684 1 1686 11 q 1678 -18 1682 -10 q 1664 -28 1674 -26 q 1642 -4 1642 -31 l 1642 206 q 1664 229 1642 232 q 1678 219 1674 228 q 1684 201 1682 211 q 1687 179 1686 190 q 1688 160 1688 168 l 1743 163 q 1736 229 1743 196 q 1697 276 1729 263 q 1654 283 1678 286 q 1604 261 1626 281 q 1582 208 1582 242 m 574 982 l 574 1308 l 642 1308 q 688 1303 667 1308 q 722 1272 710 1297 q 733 1241 729 1258 q 735 1207 736 1224 q 726 1175 733 1190 q 707 1150 719 1160 q 664 1135 689 1135 q 618 1135 639 1135 l 618 982 l 574 982 m 1457 613 l 1457 936 l 1488 936 l 1579 719 l 1579 936 l 1619 936 l 1619 613 l 1589 613 l 1494 833 l 1494 613 l 1457 613 m 1543 982 l 1543 1308 l 1574 1308 l 1664 1092 l 1664 1308 l 1703 1308 l 1703 982 l 1674 982 l 1579 1203 l 1579 982 l 1543 982 m 1736 982 l 1804 1308 l 1849 1308 l 1917 982 l 1875 982 l 1858 1063 l 1793 1063 l 1778 982 l 1736 982 m 697 614 q 633 613 668 603 q 586 657 599 622 q 578 692 579 674 q 576 735 576 711 l 576 936 l 619 936 l 619 719 q 622 678 619 701 q 646 643 625 654 q 676 643 664 638 q 694 660 688 649 q 703 685 700 671 q 706 714 706 700 q 706 766 707 742 q 706 818 706 790 l 706 936 l 751 936 l 751 788 q 752 740 751 767 q 749 689 753 714 q 734 643 746 664 q 697 614 722 622 m 2265 -78 l 2265 217 l 2315 217 l 2315 279 l 2154 279 l 2154 217 l 2206 217 l 2206 -78 l 2265 -78 m 1229 -78 l 1367 -78 l 1367 -15 l 1289 -15 l 1289 279 l 1229 279 l 1229 -78 m 1213 979 q 1149 1006 1172 979 q 1125 1072 1126 1033 l 1167 1083 q 1172 1052 1169 1068 q 1185 1026 1175 1036 q 1211 1014 1196 1015 q 1238 1022 1226 1013 q 1249 1053 1250 1033 q 1239 1088 1249 1072 q 1203 1122 1231 1101 q 1170 1151 1188 1136 q 1142 1182 1153 1165 q 1128 1219 1131 1199 q 1129 1256 1125 1239 q 1145 1288 1133 1274 q 1176 1307 1157 1301 q 1217 1309 1194 1311 q 1254 1296 1239 1307 q 1276 1265 1271 1285 q 1283 1226 1282 1246 l 1249 1215 q 1240 1251 1246 1232 q 1213 1276 1233 1271 q 1185 1270 1197 1278 q 1169 1249 1172 1263 q 1171 1223 1167 1235 q 1183 1201 1175 1211 q 1202 1183 1192 1192 q 1222 1168 1213 1175 q 1263 1128 1243 1149 q 1289 1081 1282 1108 q 1275 1010 1296 1040 q 1213 979 1254 979 m 874 610 q 811 636 832 610 q 788 703 790 663 l 831 714 q 834 683 832 699 q 846 657 836 668 q 872 643 857 644 q 899 653 888 642 q 911 683 913 664 q 900 715 910 703 q 884 735 893 725 q 864 751 875 744 q 831 781 849 767 q 801 814 813 796 q 789 848 792 829 q 791 885 786 867 q 807 917 796 903 q 838 936 818 931 q 878 939 856 940 q 917 926 900 938 q 938 895 932 915 q 944 856 943 875 l 910 843 q 901 881 907 863 q 874 904 894 900 q 847 899 858 907 q 832 875 835 892 q 832 851 828 863 q 844 831 836 840 q 863 813 853 821 q 882 797 874 806 q 923 758 904 778 q 947 708 942 739 q 935 640 957 671 q 874 610 914 610 m 1060 -122 l 1111 -122 l 1213 325 l 1156 325 l 1060 -122 m 986 613 l 986 936 l 1113 936 l 1113 901 l 1032 901 l 1032 796 l 1097 796 l 1097 763 l 1032 763 l 1032 642 l 1113 642 l 1113 613 l 986 613 m 767 982 l 767 1308 l 892 1308 l 892 1274 l 811 1274 l 811 1168 l 876 1168 l 876 1135 l 811 1135 l 811 1014 l 893 1014 l 893 982 l 767 982 m 1301 647 q 1324 642 1311 642 q 1343 647 1336 642 q 1360 666 1356 654 q 1368 690 1365 678 q 1369 707 1369 697 q 1368 724 1368 717 l 1368 839 q 1367 867 1368 853 q 1354 893 1365 882 q 1314 904 1336 911 q 1282 874 1292 899 q 1279 822 1278 850 q 1281 771 1281 794 l 1281 713 q 1283 676 1281 696 q 1301 647 1285 657 m 1876 613 l 1876 679 q 1878 704 1876 692 q 1876 728 1879 717 q 1867 760 1874 746 q 1854 790 1861 775 l 1808 936 l 1850 936 l 1899 781 l 1946 936 l 1990 936 q 1968 869 1979 903 q 1946 801 1957 836 l 1924 735 q 1920 713 1919 724 q 1921 693 1921 701 l 1921 613 l 1876 613 m 1390 1017 q 1431 1017 1408 1010 q 1448 1035 1444 1024 q 1453 1058 1451 1047 l 1453 1210 q 1451 1238 1453 1224 q 1439 1263 1450 1253 q 1422 1275 1432 1274 q 1400 1274 1411 1276 q 1369 1246 1376 1272 q 1365 1194 1363 1222 q 1368 1142 1368 1165 l 1368 1082 q 1369 1046 1368 1065 q 1390 1017 1371 1026 m 1951 982 l 1951 1308 l 1996 1308 l 1996 1014 l 2079 1014 l 2079 982 l 1951 982 m 1669 613 l 1669 936 l 1714 936 l 1714 642 l 1796 642 l 1796 613 l 1669 613 m 617 -539 q 586 -530 596 -539 q 573 -508 576 -521 q 569 -478 569 -494 q 569 -450 569 -462 q 570 -419 569 -435 q 576 -393 571 -404 q 591 -376 581 -382 q 621 -371 601 -369 q 647 -381 638 -372 q 659 -401 656 -389 q 663 -428 663 -414 q 663 -456 663 -443 q 663 -483 663 -468 q 658 -510 663 -497 q 644 -531 654 -522 q 617 -539 635 -539 m 757 -333 q 728 -324 738 -333 q 715 -301 718 -315 q 711 -272 711 -287 q 711 -242 711 -256 q 712 -213 711 -228 q 717 -187 713 -199 q 732 -169 722 -176 q 761 -164 742 -162 q 786 -174 778 -165 q 799 -194 794 -182 q 803 -222 803 -207 q 803 -249 803 -236 q 802 -276 803 -261 q 797 -304 801 -292 q 784 -325 793 -317 q 757 -333 775 -333 m 2014 -539 q 1985 -530 1994 -539 q 1972 -508 1975 -521 q 1968 -478 1968 -494 q 1968 -450 1968 -462 q 1969 -419 1968 -435 q 1974 -393 1969 -404 q 1990 -376 1979 -382 q 2019 -371 2000 -369 q 2045 -381 2038 -372 q 2056 -401 2053 -389 q 2058 -428 2058 -414 q 2057 -456 2057 -443 q 2057 -483 2057 -468 q 2053 -510 2057 -497 q 2041 -531 2050 -522 q 2014 -539 2032 -539 m 1917 -331 l 1917 -165 q 1953 -165 1932 -165 q 1989 -176 1974 -164 q 2003 -210 2004 -189 q 2001 -249 2001 -232 q 2002 -288 2001 -265 q 1983 -322 2003 -311 q 1951 -332 1971 -333 q 1917 -331 1932 -331 m 1886 50 q 1887 22 1886 35 q 1885 -3 1888 8 q 1865 -25 1883 -19 q 1849 -22 1857 -26 q 1838 -11 1842 -18 q 1834 24 1833 4 q 1835 60 1835 44 l 1835 143 q 1834 178 1835 158 q 1838 214 1833 199 q 1849 225 1842 221 q 1865 228 1857 229 q 1885 206 1883 222 q 1887 181 1888 194 q 1886 153 1886 168 l 1886 50 m 683 -537 l 686 -372 l 711 -372 l 740 -504 l 768 -372 l 790 -372 l 793 -537 l 775 -537 l 774 -415 l 746 -537 l 731 -537 l 704 -415 l 703 -537 l 683 -537 m 1036 -537 l 1036 -372 q 1069 -371 1053 -372 q 1100 -376 1086 -369 q 1115 -393 1110 -382 q 1119 -417 1119 -404 q 1114 -440 1119 -429 q 1099 -454 1108 -450 l 1122 -537 l 1100 -537 l 1081 -458 l 1063 -458 l 1063 -537 l 1036 -537 m 818 -537 l 821 -372 l 844 -372 l 874 -504 l 903 -372 l 926 -372 l 928 -537 l 913 -537 l 910 -415 l 881 -537 l 865 -537 l 840 -415 l 838 -537 l 818 -537 m 825 -331 l 825 -165 q 856 -164 840 -165 q 886 -169 872 -162 q 901 -187 896 -175 q 908 -211 907 -199 q 903 -234 908 -224 q 886 -249 899 -244 l 911 -331 l 888 -331 l 864 -254 l 847 -254 l 847 -331 l 825 -331 m 1717 -537 l 1717 -372 q 1749 -371 1732 -372 q 1781 -376 1765 -369 q 1794 -393 1789 -382 q 1800 -417 1800 -404 q 1795 -440 1800 -429 q 1781 -454 1790 -450 l 1801 -537 l 1781 -537 l 1760 -458 l 1740 -458 l 1740 -537 l 1717 -537 m 842 365 l 842 533 q 883 533 858 533 q 919 517 908 533 q 924 482 925 501 q 911 453 922 463 q 888 444 900 444 q 864 443 876 443 l 864 365 l 842 365 m 1061 -331 l 1061 -165 l 1082 -165 l 1082 -237 l 1125 -237 l 1125 -165 l 1150 -165 l 1150 -331 l 1125 -331 l 1125 -254 l 1082 -254 l 1082 -331 l 1061 -331 m 1808 -331 l 1808 -165 l 1822 -165 l 1871 -275 l 1871 -165 l 1889 -165 l 1889 -331 l 1875 -331 l 1828 -219 l 1828 -331 l 1808 -331 m 1096 365 l 1132 533 l 1154 533 l 1190 365 l 1165 365 l 1158 410 l 1124 410 l 1117 365 l 1096 365 m 2085 -537 l 2085 -372 l 2099 -372 l 2147 -482 l 2147 -372 l 2165 -372 l 2165 -537 l 2150 -537 l 2101 -424 l 2101 -537 l 2085 -537 m 1700 -331 l 1732 -165 l 1757 -165 l 1792 -331 l 1769 -331 l 1761 -289 l 1728 -289 l 1718 -331 l 1700 -331 m 1292 -537 l 1326 -372 l 1350 -372 l 1385 -537 l 1364 -537 l 1357 -494 l 1321 -494 l 1314 -537 l 1292 -537 m 2028 682 l 2015 936 l 2057 936 l 2043 682 l 2028 682 m 618 1168 q 640 1167 629 1168 q 665 1169 651 1167 q 687 1187 682 1174 q 692 1215 692 1200 q 689 1250 693 1233 q 665 1272 685 1267 q 640 1274 651 1275 q 618 1274 629 1274 l 618 1168 m 1449 -331 q 1408 -327 1425 -337 q 1385 -293 1390 -317 q 1383 -272 1382 -282 q 1385 -254 1385 -262 l 1385 -165 l 1406 -165 l 1406 -239 q 1405 -259 1406 -246 q 1406 -285 1404 -272 q 1412 -307 1407 -297 q 1428 -317 1417 -317 q 1444 -307 1439 -317 q 1452 -285 1450 -297 q 1453 -259 1454 -272 q 1453 -239 1453 -246 l 1453 -165 l 1472 -165 l 1472 -240 q 1473 -265 1472 -251 q 1472 -291 1474 -278 q 1466 -315 1471 -304 q 1449 -331 1461 -326 m 508 -539 q 478 -526 488 -539 q 465 -497 468 -514 q 463 -459 463 -479 q 464 -424 464 -439 q 476 -385 464 -401 q 515 -371 488 -368 q 546 -391 540 -374 q 551 -428 551 -408 l 529 -428 q 530 -413 529 -421 q 526 -399 531 -406 q 511 -386 524 -387 q 493 -396 499 -385 q 487 -424 485 -404 q 489 -456 489 -443 q 487 -483 489 -465 q 494 -512 485 -501 q 511 -520 499 -522 q 526 -507 524 -518 q 530 -492 531 -500 q 529 -476 529 -483 l 551 -476 q 544 -518 551 -497 q 508 -539 538 -539 m 1185 -539 q 1153 -526 1163 -539 q 1142 -497 1144 -514 q 1142 -459 1140 -479 q 1143 -424 1143 -439 q 1153 -385 1143 -401 q 1192 -371 1164 -368 q 1224 -391 1218 -374 q 1229 -428 1229 -408 l 1204 -428 q 1206 -413 1204 -421 q 1203 -399 1207 -406 q 1188 -386 1200 -387 q 1169 -396 1176 -385 q 1163 -424 1161 -404 q 1164 -456 1164 -443 q 1163 -483 1164 -465 q 1171 -512 1161 -501 q 1188 -520 1176 -522 q 1203 -507 1200 -518 q 1206 -492 1207 -500 q 1204 -476 1204 -483 l 1229 -476 q 1222 -518 1229 -497 q 1185 -539 1215 -539 m 1625 364 q 1593 378 1603 364 q 1582 413 1583 392 l 1604 419 q 1608 400 1604 411 q 1619 383 1611 389 q 1637 387 1631 381 q 1643 403 1643 393 q 1630 433 1644 419 q 1604 457 1615 446 q 1583 490 1589 469 q 1594 528 1576 511 q 1640 532 1618 539 q 1656 515 1651 526 q 1663 492 1661 503 l 1643 488 q 1640 503 1642 494 q 1631 518 1638 511 q 1616 518 1624 521 q 1607 504 1608 515 q 1610 482 1599 493 q 1629 463 1621 471 q 1649 444 1639 454 q 1663 418 1660 433 q 1659 381 1669 399 q 1625 364 1649 364 m 1864 -539 q 1831 -524 1842 -539 q 1818 -490 1821 -510 l 1840 -485 q 1843 -503 1840 -493 q 1854 -517 1846 -514 q 1874 -517 1867 -524 q 1881 -501 1881 -511 q 1866 -472 1881 -485 q 1840 -450 1851 -458 q 1819 -413 1825 -435 q 1833 -378 1814 -392 q 1856 -369 1843 -371 q 1878 -374 1869 -368 q 1894 -388 1889 -376 q 1900 -411 1899 -400 l 1881 -418 q 1878 -401 1879 -410 q 1869 -386 1876 -393 q 1842 -399 1847 -381 q 1847 -421 1836 -411 q 1867 -439 1857 -431 q 1887 -460 1876 -450 q 1900 -486 1897 -471 q 1896 -522 1907 -506 q 1864 -539 1885 -539 m 1244 364 q 1213 378 1225 364 q 1200 413 1201 392 l 1222 419 q 1225 400 1222 411 q 1236 383 1228 389 q 1255 387 1247 381 q 1263 403 1263 393 q 1248 433 1263 419 q 1222 457 1233 446 q 1201 490 1207 469 q 1214 528 1196 511 q 1236 534 1224 533 q 1258 532 1249 535 q 1276 515 1271 526 q 1282 492 1281 503 l 1263 488 q 1259 503 1261 494 q 1250 518 1257 511 q 1234 518 1242 521 q 1224 504 1226 515 q 1229 482 1219 493 q 1246 463 1239 471 q 1268 444 1257 454 q 1282 418 1279 433 q 1278 381 1289 399 q 1244 364 1267 364 m 975 1168 q 997 1168 985 1168 q 1021 1171 1010 1168 q 1041 1192 1036 1178 q 1043 1225 1046 1207 q 1040 1251 1043 1240 q 1021 1269 1036 1263 q 997 1274 1010 1275 q 975 1274 985 1274 l 975 1168 m 1461 365 l 1424 533 l 1449 533 l 1472 411 l 1499 533 l 1517 533 l 1482 365 l 1461 365 m 1560 -537 l 1522 -372 l 1543 -372 l 1571 -493 l 1593 -372 l 1617 -372 l 1578 -537 l 1560 -537 m 1301 365 l 1301 533 l 1368 533 l 1368 518 l 1325 518 l 1325 461 l 1360 461 l 1360 444 l 1325 444 l 1325 382 l 1369 382 l 1369 365 l 1301 365 m 1633 -537 l 1633 -372 l 1700 -372 l 1700 -386 l 1657 -386 l 1657 -440 l 1692 -440 l 1692 -458 l 1657 -458 l 1657 -521 l 1700 -521 l 1700 -537 l 1633 -537 m 954 -537 l 954 -372 l 1019 -372 l 1019 -386 l 978 -386 l 978 -440 l 1013 -440 l 1013 -458 l 978 -458 l 978 -521 l 1019 -521 l 1019 -537 l 954 -537 m 1175 -331 l 1175 -165 l 1239 -165 l 1239 -182 l 1199 -182 l 1199 -237 l 1233 -237 l 1233 -254 l 1199 -254 l 1199 -317 l 1239 -317 l 1239 -331 l 1175 -331 m 746 -314 q 766 -315 760 -321 q 775 -299 772 -310 q 778 -276 778 -289 q 778 -256 778 -264 q 778 -239 778 -250 q 779 -217 779 -228 q 776 -197 779 -206 q 768 -183 774 -187 q 743 -186 753 -175 q 733 -211 733 -197 l 733 -237 q 733 -255 733 -243 q 732 -278 732 -267 q 735 -301 732 -290 q 746 -314 738 -311 m 1021 365 l 1021 533 l 1085 533 l 1085 518 l 1042 518 l 1042 461 l 1078 461 l 1078 444 l 1042 444 l 1042 382 l 1085 382 l 1085 365 l 1021 365 m 2003 -515 q 2024 -519 2017 -524 q 2034 -504 2031 -514 q 2038 -482 2038 -494 q 2038 -461 2038 -469 q 2038 -444 2038 -456 q 2038 -423 2039 -433 q 2033 -403 2036 -412 q 2025 -392 2031 -394 q 2001 -392 2008 -381 q 1994 -415 1994 -403 l 1994 -440 q 1993 -458 1994 -447 q 1992 -482 1992 -469 q 1994 -504 1992 -494 q 2003 -515 1996 -514 m 604 -515 q 625 -519 618 -524 q 635 -504 632 -514 q 638 -482 638 -494 q 638 -461 638 -469 q 638 -444 638 -456 q 638 -423 639 -433 q 635 -403 638 -412 q 628 -392 633 -394 q 602 -392 610 -381 q 594 -415 594 -403 q 594 -428 593 -422 q 594 -440 594 -435 q 594 -458 594 -447 q 593 -482 593 -469 q 595 -504 593 -494 q 604 -515 597 -514 m 633 -331 l 633 -165 l 697 -165 l 697 -182 l 658 -182 l 658 -237 l 689 -237 l 689 -254 l 658 -254 l 658 -331 l 633 -331 m 1939 -317 q 1965 -314 1954 -317 q 1978 -293 1975 -311 l 1978 -206 q 1965 -185 1976 -187 q 1939 -182 1954 -182 l 1939 -317 m 996 -331 l 996 -182 l 965 -182 l 965 -165 l 1050 -165 l 1050 -182 l 1019 -182 l 1019 -331 l 996 -331 m 1578 -331 l 1578 -165 l 1601 -165 l 1601 -317 l 1643 -317 l 1643 -331 l 1578 -331 m 1754 365 l 1754 518 l 1722 518 l 1722 533 l 1803 533 l 1803 518 l 1775 518 l 1775 365 l 1754 365 m 1308 -331 l 1308 -165 l 1371 -165 l 1371 -182 l 1326 -182 l 1326 -237 l 1360 -237 l 1360 -254 l 1326 -254 l 1326 -331 l 1308 -331 m 1499 -331 l 1499 -165 l 1521 -165 l 1521 -317 l 1563 -317 l 1563 -331 l 1499 -331 m 940 365 l 940 533 l 961 533 l 961 382 l 1004 382 l 1004 365 l 940 365 m 1683 365 l 1683 533 l 1708 533 l 1708 365 l 1683 365 m 1403 -537 l 1403 -372 l 1424 -372 l 1424 -521 l 1468 -521 l 1468 -537 l 1403 -537 m 1799 1096 l 1854 1096 l 1826 1244 l 1799 1096 m 599 -78 l 658 -78 l 658 -11 l 599 -11 l 599 -78 m 1251 -537 l 1251 -372 l 1275 -372 l 1275 -537 l 1251 -537 m 1538 365 l 1538 533 l 1560 533 l 1560 365 l 1538 365 m 1922 -537 l 1922 -372 l 1943 -372 l 1943 -537 l 1922 -537 m 864 460 q 876 460 869 460 q 890 463 883 460 q 900 475 899 467 q 901 493 901 483 q 890 515 900 513 q 864 518 879 518 l 864 460 m 2015 613 l 2015 658 l 2057 658 l 2057 613 l 2015 613 m 847 -237 q 874 -233 863 -237 q 885 -208 885 -228 q 874 -185 885 -189 q 847 -182 863 -182 l 847 -237 m 1740 -440 q 1767 -437 1756 -440 q 1778 -414 1778 -433 q 1767 -392 1778 -397 q 1740 -386 1756 -386 l 1740 -440 m 1063 -440 q 1088 -437 1078 -440 q 1097 -414 1097 -433 q 1088 -392 1097 -397 q 1063 -386 1078 -386 l 1063 -440 m 1125 425 l 1156 425 l 1143 501 l 1125 425 m 1324 -479 l 1353 -479 l 1339 -403 l 1324 -479 m 1731 -272 l 1760 -272 l 1744 -197 l 1731 -272 m 1457 60 l 1468 131 l 1478 60 l 1457 60 m 2375 279 l 2310 -78 l 2369 -78 l 2383 7 l 2422 7 l 2433 -78 l 2493 -78 l 2431 279 l 2375 279 m 2392 60 l 2403 131 l 2413 60 l 2392 60 z "},"3":{"ha":2606,"x_min":142,"x_max":2493,"o":"m 288 279 l 246 56 l 206 279 l 147 279 l 142 -78 l 197 -78 l 199 68 l 226 -78 l 268 -78 l 297 69 l 300 -78 l 351 -78 l 349 279 l 288 279 m 1946 153 q 1942 217 1946 183 q 1907 271 1938 251 q 1868 283 1890 282 q 1826 278 1846 283 q 1791 249 1803 269 q 1775 204 1779 228 q 1774 177 1774 190 q 1774 150 1774 164 l 1774 53 q 1774 26 1774 39 q 1775 -1 1774 13 q 1791 -46 1779 -25 q 1826 -75 1803 -67 q 1868 -80 1846 -81 q 1907 -68 1890 -79 q 1942 -15 1938 -49 q 1946 50 1946 19 l 1946 153 m 1408 979 q 1322 1051 1335 979 q 1319 1082 1319 1067 q 1319 1113 1319 1097 q 1318 1184 1319 1146 q 1325 1254 1317 1222 q 1355 1295 1333 1282 q 1403 1310 1376 1308 q 1455 1300 1431 1311 q 1489 1261 1479 1289 q 1499 1192 1500 1231 q 1499 1121 1499 1154 q 1498 1083 1499 1101 q 1493 1046 1497 1064 q 1408 979 1478 979 m 1324 610 q 1267 627 1289 610 q 1238 678 1244 644 q 1235 710 1235 694 q 1236 744 1236 726 q 1235 813 1236 776 q 1240 882 1233 850 q 1269 924 1249 911 q 1318 938 1290 938 q 1371 929 1347 939 q 1404 892 1394 919 q 1414 822 1417 860 q 1411 751 1411 783 q 1412 712 1411 729 q 1408 675 1413 694 q 1324 610 1396 610 m 504 108 l 443 279 l 397 279 l 397 -78 l 453 -78 l 453 97 l 515 -78 l 560 -78 l 560 279 l 504 279 l 504 108 m 954 56 l 990 56 q 990 33 990 49 q 988 2 990 17 q 977 -22 985 -12 q 954 -25 969 -31 q 940 -12 944 -22 q 935 9 936 -3 q 934 33 933 21 q 935 51 935 44 l 935 136 q 934 174 935 153 q 938 214 933 196 q 949 226 942 221 q 965 229 957 231 q 985 207 983 224 q 987 181 988 194 q 986 153 986 168 l 1046 153 q 1042 218 1046 183 q 1007 272 1038 253 q 968 284 990 283 q 926 278 946 285 q 891 250 903 271 q 875 206 879 229 q 873 154 872 181 q 874 101 874 128 q 873 52 874 76 q 875 3 872 28 q 885 -40 878 -18 q 913 -71 893 -61 q 957 -83 931 -83 q 999 -67 983 -82 l 1000 -78 l 1047 -78 l 1047 108 l 954 108 l 954 56 m 928 982 l 928 1308 q 994 1309 960 1308 q 1056 1294 1028 1310 q 1082 1262 1072 1283 q 1092 1217 1092 1240 q 1082 1173 1092 1193 q 1053 1146 1072 1153 l 1096 982 l 1053 982 l 1010 1136 l 975 1136 l 975 982 l 928 982 m 2096 108 l 2067 140 q 2048 158 2057 150 q 2035 182 2039 167 q 2034 212 2031 193 q 2056 229 2038 231 q 2069 219 2065 228 q 2076 201 2074 211 q 2078 179 2078 190 q 2079 160 2079 168 l 2135 163 q 2128 229 2135 196 q 2089 276 2121 263 q 2050 283 2069 285 q 2015 274 2031 282 q 1988 249 1999 265 q 1976 213 1978 233 q 1977 169 1974 192 q 1993 131 1981 147 q 2006 113 1997 119 q 2024 96 2015 106 q 2060 55 2040 76 q 2079 6 2079 33 q 2077 -15 2079 -6 q 2065 -25 2075 -24 q 2051 -24 2057 -28 q 2043 -12 2046 -19 q 2033 19 2035 3 q 2031 51 2032 35 l 1975 47 q 1977 3 1975 24 q 1989 -39 1979 -18 q 2024 -75 2000 -64 q 2075 -81 2049 -86 q 2119 -54 2103 -75 q 2138 -10 2135 -33 q 2096 108 2146 57 m 804 108 l 775 140 q 756 158 765 150 q 743 182 747 167 q 742 212 739 193 q 764 229 746 231 q 778 219 774 228 q 784 201 782 211 q 787 179 786 190 q 788 160 788 168 l 843 163 q 836 229 843 196 q 797 276 829 263 q 758 283 778 285 q 723 274 739 282 q 697 249 707 265 q 685 213 686 233 q 685 169 682 192 q 701 131 689 147 q 715 113 706 119 q 732 96 724 106 q 768 55 749 76 q 788 6 788 33 q 785 -15 788 -6 q 774 -25 783 -24 q 760 -24 765 -28 q 751 -12 754 -19 q 742 19 743 3 q 739 51 740 35 l 683 47 q 685 3 683 24 q 697 -39 688 -18 q 733 -75 708 -64 q 783 -81 757 -86 q 827 -54 811 -75 q 846 -10 843 -33 q 804 108 854 57 m 1440 279 l 1375 -78 l 1435 -78 l 1449 7 l 1488 7 l 1499 -78 l 1558 -78 l 1496 279 l 1440 279 m 1582 208 l 1582 -7 q 1604 -60 1582 -40 q 1654 -82 1626 -79 q 1697 -75 1678 -85 q 1736 -28 1729 -61 q 1743 39 1743 6 l 1688 42 q 1687 22 1688 33 q 1684 1 1686 11 q 1678 -18 1682 -10 q 1664 -28 1674 -26 q 1642 -4 1642 -31 l 1642 206 q 1664 229 1642 232 q 1678 219 1674 228 q 1684 201 1682 211 q 1687 179 1686 190 q 1688 160 1688 168 l 1743 163 q 1736 229 1743 196 q 1697 276 1729 263 q 1654 283 1678 286 q 1604 261 1626 281 q 1582 208 1582 242 m 574 982 l 574 1308 l 642 1308 q 688 1303 667 1308 q 722 1272 710 1297 q 733 1241 729 1258 q 735 1207 736 1224 q 726 1175 733 1190 q 707 1150 719 1160 q 664 1135 689 1135 q 618 1135 639 1135 l 618 982 l 574 982 m 1457 613 l 1457 936 l 1488 936 l 1579 719 l 1579 936 l 1619 936 l 1619 613 l 1589 613 l 1494 833 l 1494 613 l 1457 613 m 1543 982 l 1543 1308 l 1574 1308 l 1664 1092 l 1664 1308 l 1703 1308 l 1703 982 l 1674 982 l 1579 1203 l 1579 982 l 1543 982 m 1736 982 l 1804 1308 l 1849 1308 l 1917 982 l 1875 982 l 1858 1063 l 1793 1063 l 1778 982 l 1736 982 m 697 614 q 633 613 668 603 q 586 657 599 622 q 578 692 579 674 q 576 735 576 711 l 576 936 l 619 936 l 619 719 q 622 678 619 701 q 646 643 625 654 q 676 643 664 638 q 694 660 688 649 q 703 685 700 671 q 706 714 706 700 q 706 766 707 742 q 706 818 706 790 l 706 936 l 751 936 l 751 788 q 752 740 751 767 q 749 689 753 714 q 734 643 746 664 q 697 614 722 622 m 2265 -78 l 2265 217 l 2315 217 l 2315 279 l 2154 279 l 2154 217 l 2206 217 l 2206 -78 l 2265 -78 m 1229 -78 l 1367 -78 l 1367 -15 l 1289 -15 l 1289 279 l 1229 279 l 1229 -78 m 1213 979 q 1149 1006 1172 979 q 1125 1072 1126 1033 l 1167 1083 q 1172 1052 1169 1068 q 1185 1026 1175 1036 q 1211 1014 1196 1015 q 1238 1022 1226 1013 q 1249 1053 1250 1033 q 1239 1088 1249 1072 q 1203 1122 1231 1101 q 1170 1151 1188 1136 q 1142 1182 1153 1165 q 1128 1219 1131 1199 q 1129 1256 1125 1239 q 1145 1288 1133 1274 q 1176 1307 1157 1301 q 1217 1309 1194 1311 q 1254 1296 1239 1307 q 1276 1265 1271 1285 q 1283 1226 1282 1246 l 1249 1215 q 1240 1251 1246 1232 q 1213 1276 1233 1271 q 1185 1270 1197 1278 q 1169 1249 1172 1263 q 1171 1223 1167 1235 q 1183 1201 1175 1211 q 1202 1183 1192 1192 q 1222 1168 1213 1175 q 1263 1128 1243 1149 q 1289 1081 1282 1108 q 1275 1010 1296 1040 q 1213 979 1254 979 m 874 610 q 811 636 832 610 q 788 703 790 663 l 831 714 q 834 683 832 699 q 846 657 836 668 q 872 643 857 644 q 899 653 888 642 q 911 683 913 664 q 900 715 910 703 q 884 735 893 725 q 864 751 875 744 q 831 781 849 767 q 801 814 813 796 q 789 848 792 829 q 791 885 786 867 q 807 917 796 903 q 838 936 818 931 q 878 939 856 940 q 917 926 900 938 q 938 895 932 915 q 944 856 943 875 l 910 843 q 901 881 907 863 q 874 904 894 900 q 847 899 858 907 q 832 875 835 892 q 832 851 828 863 q 844 831 836 840 q 863 813 853 821 q 882 797 874 806 q 923 758 904 778 q 947 708 942 739 q 935 640 957 671 q 874 610 914 610 m 1060 -122 l 1111 -122 l 1213 325 l 1156 325 l 1060 -122 m 986 613 l 986 936 l 1113 936 l 1113 901 l 1032 901 l 1032 796 l 1097 796 l 1097 763 l 1032 763 l 1032 642 l 1113 642 l 1113 613 l 986 613 m 767 982 l 767 1308 l 892 1308 l 892 1274 l 811 1274 l 811 1168 l 876 1168 l 876 1135 l 811 1135 l 811 1014 l 893 1014 l 893 982 l 767 982 m 1301 647 q 1324 642 1311 642 q 1343 647 1336 642 q 1360 666 1356 654 q 1368 690 1365 678 q 1369 707 1369 697 q 1368 724 1368 717 l 1368 839 q 1367 867 1368 853 q 1354 893 1365 882 q 1314 904 1336 911 q 1282 874 1292 899 q 1279 822 1278 850 q 1281 771 1281 794 l 1281 713 q 1283 676 1281 696 q 1301 647 1285 657 m 1876 613 l 1876 679 q 1878 704 1876 692 q 1876 728 1879 717 q 1867 760 1874 746 q 1854 790 1861 775 l 1808 936 l 1850 936 l 1899 781 l 1946 936 l 1990 936 q 1968 869 1979 903 q 1946 801 1957 836 l 1924 735 q 1920 713 1919 724 q 1921 693 1921 701 l 1921 613 l 1876 613 m 1390 1017 q 1431 1017 1408 1010 q 1448 1035 1444 1024 q 1453 1058 1451 1047 l 1453 1210 q 1451 1238 1453 1224 q 1439 1263 1450 1253 q 1422 1275 1432 1274 q 1400 1274 1411 1276 q 1369 1246 1376 1272 q 1365 1194 1363 1222 q 1368 1142 1368 1165 l 1368 1082 q 1369 1046 1368 1065 q 1390 1017 1371 1026 m 1951 982 l 1951 1308 l 1996 1308 l 1996 1014 l 2079 1014 l 2079 982 l 1951 982 m 1669 613 l 1669 936 l 1714 936 l 1714 642 l 1796 642 l 1796 613 l 1669 613 m 617 -539 q 586 -530 596 -539 q 573 -508 576 -521 q 569 -478 569 -494 q 569 -450 569 -462 q 570 -419 569 -435 q 576 -393 571 -404 q 591 -376 581 -382 q 621 -371 601 -369 q 647 -381 638 -372 q 659 -401 656 -389 q 663 -428 663 -414 q 663 -456 663 -443 q 663 -483 663 -468 q 658 -510 663 -497 q 644 -531 654 -522 q 617 -539 635 -539 m 757 -333 q 728 -324 738 -333 q 715 -301 718 -315 q 711 -272 711 -287 q 711 -242 711 -256 q 712 -213 711 -228 q 717 -187 713 -199 q 732 -169 722 -176 q 761 -164 742 -162 q 786 -174 778 -165 q 799 -194 794 -182 q 803 -222 803 -207 q 803 -249 803 -236 q 802 -276 803 -261 q 797 -304 801 -292 q 784 -325 793 -317 q 757 -333 775 -333 m 2014 -539 q 1985 -530 1994 -539 q 1972 -508 1975 -521 q 1968 -478 1968 -494 q 1968 -450 1968 -462 q 1969 -419 1968 -435 q 1974 -393 1969 -404 q 1990 -376 1979 -382 q 2019 -371 2000 -369 q 2045 -381 2038 -372 q 2056 -401 2053 -389 q 2058 -428 2058 -414 q 2057 -456 2057 -443 q 2057 -483 2057 -468 q 2053 -510 2057 -497 q 2041 -531 2050 -522 q 2014 -539 2032 -539 m 1917 -331 l 1917 -165 q 1953 -165 1932 -165 q 1989 -176 1974 -164 q 2003 -210 2004 -189 q 2001 -249 2001 -232 q 2002 -288 2001 -265 q 1983 -322 2003 -311 q 1951 -332 1971 -333 q 1917 -331 1932 -331 m 1886 50 q 1887 22 1886 35 q 1885 -3 1888 8 q 1865 -25 1883 -19 q 1849 -22 1857 -26 q 1838 -11 1842 -18 q 1834 24 1833 4 q 1835 60 1835 44 l 1835 143 q 1834 178 1835 158 q 1838 214 1833 199 q 1849 225 1842 221 q 1865 228 1857 229 q 1885 206 1883 222 q 1887 181 1888 194 q 1886 153 1886 168 l 1886 50 m 683 -537 l 686 -372 l 711 -372 l 740 -504 l 768 -372 l 790 -372 l 793 -537 l 775 -537 l 774 -415 l 746 -537 l 731 -537 l 704 -415 l 703 -537 l 683 -537 m 1036 -537 l 1036 -372 q 1069 -371 1053 -372 q 1100 -376 1086 -369 q 1115 -393 1110 -382 q 1119 -417 1119 -404 q 1114 -440 1119 -429 q 1099 -454 1108 -450 l 1122 -537 l 1100 -537 l 1081 -458 l 1063 -458 l 1063 -537 l 1036 -537 m 818 -537 l 821 -372 l 844 -372 l 874 -504 l 903 -372 l 926 -372 l 928 -537 l 913 -537 l 910 -415 l 881 -537 l 865 -537 l 840 -415 l 838 -537 l 818 -537 m 825 -331 l 825 -165 q 856 -164 840 -165 q 886 -169 872 -162 q 901 -187 896 -175 q 908 -211 907 -199 q 903 -234 908 -224 q 886 -249 899 -244 l 911 -331 l 888 -331 l 864 -254 l 847 -254 l 847 -331 l 825 -331 m 1717 -537 l 1717 -372 q 1749 -371 1732 -372 q 1781 -376 1765 -369 q 1794 -393 1789 -382 q 1800 -417 1800 -404 q 1795 -440 1800 -429 q 1781 -454 1790 -450 l 1801 -537 l 1781 -537 l 1760 -458 l 1740 -458 l 1740 -537 l 1717 -537 m 842 365 l 842 533 q 883 533 858 533 q 919 517 908 533 q 924 482 925 501 q 911 453 922 463 q 888 444 900 444 q 864 443 876 443 l 864 365 l 842 365 m 1061 -331 l 1061 -165 l 1082 -165 l 1082 -237 l 1125 -237 l 1125 -165 l 1150 -165 l 1150 -331 l 1125 -331 l 1125 -254 l 1082 -254 l 1082 -331 l 1061 -331 m 1808 -331 l 1808 -165 l 1822 -165 l 1871 -275 l 1871 -165 l 1889 -165 l 1889 -331 l 1875 -331 l 1828 -219 l 1828 -331 l 1808 -331 m 1096 365 l 1132 533 l 1154 533 l 1190 365 l 1165 365 l 1158 410 l 1124 410 l 1117 365 l 1096 365 m 2085 -537 l 2085 -372 l 2099 -372 l 2147 -482 l 2147 -372 l 2165 -372 l 2165 -537 l 2150 -537 l 2101 -424 l 2101 -537 l 2085 -537 m 1700 -331 l 1732 -165 l 1757 -165 l 1792 -331 l 1769 -331 l 1761 -289 l 1728 -289 l 1718 -331 l 1700 -331 m 1292 -537 l 1326 -372 l 1350 -372 l 1385 -537 l 1364 -537 l 1357 -494 l 1321 -494 l 1314 -537 l 1292 -537 m 2028 682 l 2015 936 l 2057 936 l 2043 682 l 2028 682 m 618 1168 q 640 1167 629 1168 q 665 1169 651 1167 q 687 1187 682 1174 q 692 1215 692 1200 q 689 1250 693 1233 q 665 1272 685 1267 q 640 1274 651 1275 q 618 1274 629 1274 l 618 1168 m 1449 -331 q 1408 -327 1425 -337 q 1385 -293 1390 -317 q 1383 -272 1382 -282 q 1385 -254 1385 -262 l 1385 -165 l 1406 -165 l 1406 -239 q 1405 -259 1406 -246 q 1406 -285 1404 -272 q 1412 -307 1407 -297 q 1428 -317 1417 -317 q 1444 -307 1439 -317 q 1452 -285 1450 -297 q 1453 -259 1454 -272 q 1453 -239 1453 -246 l 1453 -165 l 1472 -165 l 1472 -240 q 1473 -265 1472 -251 q 1472 -291 1474 -278 q 1466 -315 1471 -304 q 1449 -331 1461 -326 m 508 -539 q 478 -526 488 -539 q 465 -497 468 -514 q 463 -459 463 -479 q 464 -424 464 -439 q 476 -385 464 -401 q 515 -371 488 -368 q 546 -391 540 -374 q 551 -428 551 -408 l 529 -428 q 530 -413 529 -421 q 526 -399 531 -406 q 511 -386 524 -387 q 493 -396 499 -385 q 487 -424 485 -404 q 489 -456 489 -443 q 487 -483 489 -465 q 494 -512 485 -501 q 511 -520 499 -522 q 526 -507 524 -518 q 530 -492 531 -500 q 529 -476 529 -483 l 551 -476 q 544 -518 551 -497 q 508 -539 538 -539 m 1185 -539 q 1153 -526 1163 -539 q 1142 -497 1144 -514 q 1142 -459 1140 -479 q 1143 -424 1143 -439 q 1153 -385 1143 -401 q 1192 -371 1164 -368 q 1224 -391 1218 -374 q 1229 -428 1229 -408 l 1204 -428 q 1206 -413 1204 -421 q 1203 -399 1207 -406 q 1188 -386 1200 -387 q 1169 -396 1176 -385 q 1163 -424 1161 -404 q 1164 -456 1164 -443 q 1163 -483 1164 -465 q 1171 -512 1161 -501 q 1188 -520 1176 -522 q 1203 -507 1200 -518 q 1206 -492 1207 -500 q 1204 -476 1204 -483 l 1229 -476 q 1222 -518 1229 -497 q 1185 -539 1215 -539 m 1625 364 q 1593 378 1603 364 q 1582 413 1583 392 l 1604 419 q 1608 400 1604 411 q 1619 383 1611 389 q 1637 387 1631 381 q 1643 403 1643 393 q 1630 433 1644 419 q 1604 457 1615 446 q 1583 490 1589 469 q 1594 528 1576 511 q 1640 532 1618 539 q 1656 515 1651 526 q 1663 492 1661 503 l 1643 488 q 1640 503 1642 494 q 1631 518 1638 511 q 1616 518 1624 521 q 1607 504 1608 515 q 1610 482 1599 493 q 1629 463 1621 471 q 1649 444 1639 454 q 1663 418 1660 433 q 1659 381 1669 399 q 1625 364 1649 364 m 1864 -539 q 1831 -524 1842 -539 q 1818 -490 1821 -510 l 1840 -485 q 1843 -503 1840 -493 q 1854 -517 1846 -514 q 1874 -517 1867 -524 q 1881 -501 1881 -511 q 1866 -472 1881 -485 q 1840 -450 1851 -458 q 1819 -413 1825 -435 q 1833 -378 1814 -392 q 1856 -369 1843 -371 q 1878 -374 1869 -368 q 1894 -388 1889 -376 q 1900 -411 1899 -400 l 1881 -418 q 1878 -401 1879 -410 q 1869 -386 1876 -393 q 1842 -399 1847 -381 q 1847 -421 1836 -411 q 1867 -439 1857 -431 q 1887 -460 1876 -450 q 1900 -486 1897 -471 q 1896 -522 1907 -506 q 1864 -539 1885 -539 m 1244 364 q 1213 378 1225 364 q 1200 413 1201 392 l 1222 419 q 1225 400 1222 411 q 1236 383 1228 389 q 1255 387 1247 381 q 1263 403 1263 393 q 1248 433 1263 419 q 1222 457 1233 446 q 1201 490 1207 469 q 1214 528 1196 511 q 1236 534 1224 533 q 1258 532 1249 535 q 1276 515 1271 526 q 1282 492 1281 503 l 1263 488 q 1259 503 1261 494 q 1250 518 1257 511 q 1234 518 1242 521 q 1224 504 1226 515 q 1229 482 1219 493 q 1246 463 1239 471 q 1268 444 1257 454 q 1282 418 1279 433 q 1278 381 1289 399 q 1244 364 1267 364 m 975 1168 q 997 1168 985 1168 q 1021 1171 1010 1168 q 1041 1192 1036 1178 q 1043 1225 1046 1207 q 1040 1251 1043 1240 q 1021 1269 1036 1263 q 997 1274 1010 1275 q 975 1274 985 1274 l 975 1168 m 1461 365 l 1424 533 l 1449 533 l 1472 411 l 1499 533 l 1517 533 l 1482 365 l 1461 365 m 1560 -537 l 1522 -372 l 1543 -372 l 1571 -493 l 1593 -372 l 1617 -372 l 1578 -537 l 1560 -537 m 1301 365 l 1301 533 l 1368 533 l 1368 518 l 1325 518 l 1325 461 l 1360 461 l 1360 444 l 1325 444 l 1325 382 l 1369 382 l 1369 365 l 1301 365 m 1633 -537 l 1633 -372 l 1700 -372 l 1700 -386 l 1657 -386 l 1657 -440 l 1692 -440 l 1692 -458 l 1657 -458 l 1657 -521 l 1700 -521 l 1700 -537 l 1633 -537 m 954 -537 l 954 -372 l 1019 -372 l 1019 -386 l 978 -386 l 978 -440 l 1013 -440 l 1013 -458 l 978 -458 l 978 -521 l 1019 -521 l 1019 -537 l 954 -537 m 1175 -331 l 1175 -165 l 1239 -165 l 1239 -182 l 1199 -182 l 1199 -237 l 1233 -237 l 1233 -254 l 1199 -254 l 1199 -317 l 1239 -317 l 1239 -331 l 1175 -331 m 746 -314 q 766 -315 760 -321 q 775 -299 772 -310 q 778 -276 778 -289 q 778 -256 778 -264 q 778 -239 778 -250 q 779 -217 779 -228 q 776 -197 779 -206 q 768 -183 774 -187 q 743 -186 753 -175 q 733 -211 733 -197 l 733 -237 q 733 -255 733 -243 q 732 -278 732 -267 q 735 -301 732 -290 q 746 -314 738 -311 m 1021 365 l 1021 533 l 1085 533 l 1085 518 l 1042 518 l 1042 461 l 1078 461 l 1078 444 l 1042 444 l 1042 382 l 1085 382 l 1085 365 l 1021 365 m 2003 -515 q 2024 -519 2017 -524 q 2034 -504 2031 -514 q 2038 -482 2038 -494 q 2038 -461 2038 -469 q 2038 -444 2038 -456 q 2038 -423 2039 -433 q 2033 -403 2036 -412 q 2025 -392 2031 -394 q 2001 -392 2008 -381 q 1994 -415 1994 -403 l 1994 -440 q 1993 -458 1994 -447 q 1992 -482 1992 -469 q 1994 -504 1992 -494 q 2003 -515 1996 -514 m 604 -515 q 625 -519 618 -524 q 635 -504 632 -514 q 638 -482 638 -494 q 638 -461 638 -469 q 638 -444 638 -456 q 638 -423 639 -433 q 635 -403 638 -412 q 628 -392 633 -394 q 602 -392 610 -381 q 594 -415 594 -403 q 594 -428 593 -422 q 594 -440 594 -435 q 594 -458 594 -447 q 593 -482 593 -469 q 595 -504 593 -494 q 604 -515 597 -514 m 633 -331 l 633 -165 l 697 -165 l 697 -182 l 658 -182 l 658 -237 l 689 -237 l 689 -254 l 658 -254 l 658 -331 l 633 -331 m 1939 -317 q 1965 -314 1954 -317 q 1978 -293 1975 -311 l 1978 -206 q 1965 -185 1976 -187 q 1939 -182 1954 -182 l 1939 -317 m 996 -331 l 996 -182 l 965 -182 l 965 -165 l 1050 -165 l 1050 -182 l 1019 -182 l 1019 -331 l 996 -331 m 1578 -331 l 1578 -165 l 1601 -165 l 1601 -317 l 1643 -317 l 1643 -331 l 1578 -331 m 1754 365 l 1754 518 l 1722 518 l 1722 533 l 1803 533 l 1803 518 l 1775 518 l 1775 365 l 1754 365 m 1308 -331 l 1308 -165 l 1371 -165 l 1371 -182 l 1326 -182 l 1326 -237 l 1360 -237 l 1360 -254 l 1326 -254 l 1326 -331 l 1308 -331 m 1499 -331 l 1499 -165 l 1521 -165 l 1521 -317 l 1563 -317 l 1563 -331 l 1499 -331 m 940 365 l 940 533 l 961 533 l 961 382 l 1004 382 l 1004 365 l 940 365 m 1683 365 l 1683 533 l 1708 533 l 1708 365 l 1683 365 m 1403 -537 l 1403 -372 l 1424 -372 l 1424 -521 l 1468 -521 l 1468 -537 l 1403 -537 m 1799 1096 l 1854 1096 l 1826 1244 l 1799 1096 m 599 -78 l 658 -78 l 658 -11 l 599 -11 l 599 -78 m 1251 -537 l 1251 -372 l 1275 -372 l 1275 -537 l 1251 -537 m 1538 365 l 1538 533 l 1560 533 l 1560 365 l 1538 365 m 1922 -537 l 1922 -372 l 1943 -372 l 1943 -537 l 1922 -537 m 864 460 q 876 460 869 460 q 890 463 883 460 q 900 475 899 467 q 901 493 901 483 q 890 515 900 513 q 864 518 879 518 l 864 460 m 2015 613 l 2015 658 l 2057 658 l 2057 613 l 2015 613 m 847 -237 q 874 -233 863 -237 q 885 -208 885 -228 q 874 -185 885 -189 q 847 -182 863 -182 l 847 -237 m 1740 -440 q 1767 -437 1756 -440 q 1778 -414 1778 -433 q 1767 -392 1778 -397 q 1740 -386 1756 -386 l 1740 -440 m 1063 -440 q 1088 -437 1078 -440 q 1097 -414 1097 -433 q 1088 -392 1097 -397 q 1063 -386 1078 -386 l 1063 -440 m 1125 425 l 1156 425 l 1143 501 l 1125 425 m 1324 -479 l 1353 -479 l 1339 -403 l 1324 -479 m 1731 -272 l 1760 -272 l 1744 -197 l 1731 -272 m 1457 60 l 1468 131 l 1478 60 l 1457 60 m 2375 279 l 2310 -78 l 2369 -78 l 2383 7 l 2422 7 l 2433 -78 l 2493 -78 l 2431 279 l 2375 279 m 2392 60 l 2403 131 l 2413 60 l 2392 60 z "},"4":{"ha":2606,"x_min":142,"x_max":2493,"o":"m 288 279 l 246 56 l 206 279 l 147 279 l 142 -78 l 197 -78 l 199 68 l 226 -78 l 268 -78 l 297 69 l 300 -78 l 351 -78 l 349 279 l 288 279 m 1946 153 q 1942 217 1946 183 q 1907 271 1938 251 q 1868 283 1890 282 q 1826 278 1846 283 q 1791 249 1803 269 q 1775 204 1779 228 q 1774 177 1774 190 q 1774 150 1774 164 l 1774 53 q 1774 26 1774 39 q 1775 -1 1774 13 q 1791 -46 1779 -25 q 1826 -75 1803 -67 q 1868 -80 1846 -81 q 1907 -68 1890 -79 q 1942 -15 1938 -49 q 1946 50 1946 19 l 1946 153 m 1408 979 q 1322 1051 1335 979 q 1319 1082 1319 1067 q 1319 1113 1319 1097 q 1318 1184 1319 1146 q 1325 1254 1317 1222 q 1355 1295 1333 1282 q 1403 1310 1376 1308 q 1455 1300 1431 1311 q 1489 1261 1479 1289 q 1499 1192 1500 1231 q 1499 1121 1499 1154 q 1498 1083 1499 1101 q 1493 1046 1497 1064 q 1408 979 1478 979 m 1324 610 q 1267 627 1289 610 q 1238 678 1244 644 q 1235 710 1235 694 q 1236 744 1236 726 q 1235 813 1236 776 q 1240 882 1233 850 q 1269 924 1249 911 q 1318 938 1290 938 q 1371 929 1347 939 q 1404 892 1394 919 q 1414 822 1417 860 q 1411 751 1411 783 q 1412 712 1411 729 q 1408 675 1413 694 q 1324 610 1396 610 m 504 108 l 443 279 l 397 279 l 397 -78 l 453 -78 l 453 97 l 515 -78 l 560 -78 l 560 279 l 504 279 l 504 108 m 954 56 l 990 56 q 990 33 990 49 q 988 2 990 17 q 977 -22 985 -12 q 954 -25 969 -31 q 940 -12 944 -22 q 935 9 936 -3 q 934 33 933 21 q 935 51 935 44 l 935 136 q 934 174 935 153 q 938 214 933 196 q 949 226 942 221 q 965 229 957 231 q 985 207 983 224 q 987 181 988 194 q 986 153 986 168 l 1046 153 q 1042 218 1046 183 q 1007 272 1038 253 q 968 284 990 283 q 926 278 946 285 q 891 250 903 271 q 875 206 879 229 q 873 154 872 181 q 874 101 874 128 q 873 52 874 76 q 875 3 872 28 q 885 -40 878 -18 q 913 -71 893 -61 q 957 -83 931 -83 q 999 -67 983 -82 l 1000 -78 l 1047 -78 l 1047 108 l 954 108 l 954 56 m 928 982 l 928 1308 q 994 1309 960 1308 q 1056 1294 1028 1310 q 1082 1262 1072 1283 q 1092 1217 1092 1240 q 1082 1173 1092 1193 q 1053 1146 1072 1153 l 1096 982 l 1053 982 l 1010 1136 l 975 1136 l 975 982 l 928 982 m 2096 108 l 2067 140 q 2048 158 2057 150 q 2035 182 2039 167 q 2034 212 2031 193 q 2056 229 2038 231 q 2069 219 2065 228 q 2076 201 2074 211 q 2078 179 2078 190 q 2079 160 2079 168 l 2135 163 q 2128 229 2135 196 q 2089 276 2121 263 q 2050 283 2069 285 q 2015 274 2031 282 q 1988 249 1999 265 q 1976 213 1978 233 q 1977 169 1974 192 q 1993 131 1981 147 q 2006 113 1997 119 q 2024 96 2015 106 q 2060 55 2040 76 q 2079 6 2079 33 q 2077 -15 2079 -6 q 2065 -25 2075 -24 q 2051 -24 2057 -28 q 2043 -12 2046 -19 q 2033 19 2035 3 q 2031 51 2032 35 l 1975 47 q 1977 3 1975 24 q 1989 -39 1979 -18 q 2024 -75 2000 -64 q 2075 -81 2049 -86 q 2119 -54 2103 -75 q 2138 -10 2135 -33 q 2096 108 2146 57 m 804 108 l 775 140 q 756 158 765 150 q 743 182 747 167 q 742 212 739 193 q 764 229 746 231 q 778 219 774 228 q 784 201 782 211 q 787 179 786 190 q 788 160 788 168 l 843 163 q 836 229 843 196 q 797 276 829 263 q 758 283 778 285 q 723 274 739 282 q 697 249 707 265 q 685 213 686 233 q 685 169 682 192 q 701 131 689 147 q 715 113 706 119 q 732 96 724 106 q 768 55 749 76 q 788 6 788 33 q 785 -15 788 -6 q 774 -25 783 -24 q 760 -24 765 -28 q 751 -12 754 -19 q 742 19 743 3 q 739 51 740 35 l 683 47 q 685 3 683 24 q 697 -39 688 -18 q 733 -75 708 -64 q 783 -81 757 -86 q 827 -54 811 -75 q 846 -10 843 -33 q 804 108 854 57 m 1440 279 l 1375 -78 l 1435 -78 l 1449 7 l 1488 7 l 1499 -78 l 1558 -78 l 1496 279 l 1440 279 m 1582 208 l 1582 -7 q 1604 -60 1582 -40 q 1654 -82 1626 -79 q 1697 -75 1678 -85 q 1736 -28 1729 -61 q 1743 39 1743 6 l 1688 42 q 1687 22 1688 33 q 1684 1 1686 11 q 1678 -18 1682 -10 q 1664 -28 1674 -26 q 1642 -4 1642 -31 l 1642 206 q 1664 229 1642 232 q 1678 219 1674 228 q 1684 201 1682 211 q 1687 179 1686 190 q 1688 160 1688 168 l 1743 163 q 1736 229 1743 196 q 1697 276 1729 263 q 1654 283 1678 286 q 1604 261 1626 281 q 1582 208 1582 242 m 574 982 l 574 1308 l 642 1308 q 688 1303 667 1308 q 722 1272 710 1297 q 733 1241 729 1258 q 735 1207 736 1224 q 726 1175 733 1190 q 707 1150 719 1160 q 664 1135 689 1135 q 618 1135 639 1135 l 618 982 l 574 982 m 1457 613 l 1457 936 l 1488 936 l 1579 719 l 1579 936 l 1619 936 l 1619 613 l 1589 613 l 1494 833 l 1494 613 l 1457 613 m 1543 982 l 1543 1308 l 1574 1308 l 1664 1092 l 1664 1308 l 1703 1308 l 1703 982 l 1674 982 l 1579 1203 l 1579 982 l 1543 982 m 1736 982 l 1804 1308 l 1849 1308 l 1917 982 l 1875 982 l 1858 1063 l 1793 1063 l 1778 982 l 1736 982 m 697 614 q 633 613 668 603 q 586 657 599 622 q 578 692 579 674 q 576 735 576 711 l 576 936 l 619 936 l 619 719 q 622 678 619 701 q 646 643 625 654 q 676 643 664 638 q 694 660 688 649 q 703 685 700 671 q 706 714 706 700 q 706 766 707 742 q 706 818 706 790 l 706 936 l 751 936 l 751 788 q 752 740 751 767 q 749 689 753 714 q 734 643 746 664 q 697 614 722 622 m 2265 -78 l 2265 217 l 2315 217 l 2315 279 l 2154 279 l 2154 217 l 2206 217 l 2206 -78 l 2265 -78 m 1229 -78 l 1367 -78 l 1367 -15 l 1289 -15 l 1289 279 l 1229 279 l 1229 -78 m 1213 979 q 1149 1006 1172 979 q 1125 1072 1126 1033 l 1167 1083 q 1172 1052 1169 1068 q 1185 1026 1175 1036 q 1211 1014 1196 1015 q 1238 1022 1226 1013 q 1249 1053 1250 1033 q 1239 1088 1249 1072 q 1203 1122 1231 1101 q 1170 1151 1188 1136 q 1142 1182 1153 1165 q 1128 1219 1131 1199 q 1129 1256 1125 1239 q 1145 1288 1133 1274 q 1176 1307 1157 1301 q 1217 1309 1194 1311 q 1254 1296 1239 1307 q 1276 1265 1271 1285 q 1283 1226 1282 1246 l 1249 1215 q 1240 1251 1246 1232 q 1213 1276 1233 1271 q 1185 1270 1197 1278 q 1169 1249 1172 1263 q 1171 1223 1167 1235 q 1183 1201 1175 1211 q 1202 1183 1192 1192 q 1222 1168 1213 1175 q 1263 1128 1243 1149 q 1289 1081 1282 1108 q 1275 1010 1296 1040 q 1213 979 1254 979 m 874 610 q 811 636 832 610 q 788 703 790 663 l 831 714 q 834 683 832 699 q 846 657 836 668 q 872 643 857 644 q 899 653 888 642 q 911 683 913 664 q 900 715 910 703 q 884 735 893 725 q 864 751 875 744 q 831 781 849 767 q 801 814 813 796 q 789 848 792 829 q 791 885 786 867 q 807 917 796 903 q 838 936 818 931 q 878 939 856 940 q 917 926 900 938 q 938 895 932 915 q 944 856 943 875 l 910 843 q 901 881 907 863 q 874 904 894 900 q 847 899 858 907 q 832 875 835 892 q 832 851 828 863 q 844 831 836 840 q 863 813 853 821 q 882 797 874 806 q 923 758 904 778 q 947 708 942 739 q 935 640 957 671 q 874 610 914 610 m 1060 -122 l 1111 -122 l 1213 325 l 1156 325 l 1060 -122 m 986 613 l 986 936 l 1113 936 l 1113 901 l 1032 901 l 1032 796 l 1097 796 l 1097 763 l 1032 763 l 1032 642 l 1113 642 l 1113 613 l 986 613 m 767 982 l 767 1308 l 892 1308 l 892 1274 l 811 1274 l 811 1168 l 876 1168 l 876 1135 l 811 1135 l 811 1014 l 893 1014 l 893 982 l 767 982 m 1301 647 q 1324 642 1311 642 q 1343 647 1336 642 q 1360 666 1356 654 q 1368 690 1365 678 q 1369 707 1369 697 q 1368 724 1368 717 l 1368 839 q 1367 867 1368 853 q 1354 893 1365 882 q 1314 904 1336 911 q 1282 874 1292 899 q 1279 822 1278 850 q 1281 771 1281 794 l 1281 713 q 1283 676 1281 696 q 1301 647 1285 657 m 1876 613 l 1876 679 q 1878 704 1876 692 q 1876 728 1879 717 q 1867 760 1874 746 q 1854 790 1861 775 l 1808 936 l 1850 936 l 1899 781 l 1946 936 l 1990 936 q 1968 869 1979 903 q 1946 801 1957 836 l 1924 735 q 1920 713 1919 724 q 1921 693 1921 701 l 1921 613 l 1876 613 m 1390 1017 q 1431 1017 1408 1010 q 1448 1035 1444 1024 q 1453 1058 1451 1047 l 1453 1210 q 1451 1238 1453 1224 q 1439 1263 1450 1253 q 1422 1275 1432 1274 q 1400 1274 1411 1276 q 1369 1246 1376 1272 q 1365 1194 1363 1222 q 1368 1142 1368 1165 l 1368 1082 q 1369 1046 1368 1065 q 1390 1017 1371 1026 m 1951 982 l 1951 1308 l 1996 1308 l 1996 1014 l 2079 1014 l 2079 982 l 1951 982 m 1669 613 l 1669 936 l 1714 936 l 1714 642 l 1796 642 l 1796 613 l 1669 613 m 617 -539 q 586 -530 596 -539 q 573 -508 576 -521 q 569 -478 569 -494 q 569 -450 569 -462 q 570 -419 569 -435 q 576 -393 571 -404 q 591 -376 581 -382 q 621 -371 601 -369 q 647 -381 638 -372 q 659 -401 656 -389 q 663 -428 663 -414 q 663 -456 663 -443 q 663 -483 663 -468 q 658 -510 663 -497 q 644 -531 654 -522 q 617 -539 635 -539 m 757 -333 q 728 -324 738 -333 q 715 -301 718 -315 q 711 -272 711 -287 q 711 -242 711 -256 q 712 -213 711 -228 q 717 -187 713 -199 q 732 -169 722 -176 q 761 -164 742 -162 q 786 -174 778 -165 q 799 -194 794 -182 q 803 -222 803 -207 q 803 -249 803 -236 q 802 -276 803 -261 q 797 -304 801 -292 q 784 -325 793 -317 q 757 -333 775 -333 m 2014 -539 q 1985 -530 1994 -539 q 1972 -508 1975 -521 q 1968 -478 1968 -494 q 1968 -450 1968 -462 q 1969 -419 1968 -435 q 1974 -393 1969 -404 q 1990 -376 1979 -382 q 2019 -371 2000 -369 q 2045 -381 2038 -372 q 2056 -401 2053 -389 q 2058 -428 2058 -414 q 2057 -456 2057 -443 q 2057 -483 2057 -468 q 2053 -510 2057 -497 q 2041 -531 2050 -522 q 2014 -539 2032 -539 m 1917 -331 l 1917 -165 q 1953 -165 1932 -165 q 1989 -176 1974 -164 q 2003 -210 2004 -189 q 2001 -249 2001 -232 q 2002 -288 2001 -265 q 1983 -322 2003 -311 q 1951 -332 1971 -333 q 1917 -331 1932 -331 m 1886 50 q 1887 22 1886 35 q 1885 -3 1888 8 q 1865 -25 1883 -19 q 1849 -22 1857 -26 q 1838 -11 1842 -18 q 1834 24 1833 4 q 1835 60 1835 44 l 1835 143 q 1834 178 1835 158 q 1838 214 1833 199 q 1849 225 1842 221 q 1865 228 1857 229 q 1885 206 1883 222 q 1887 181 1888 194 q 1886 153 1886 168 l 1886 50 m 683 -537 l 686 -372 l 711 -372 l 740 -504 l 768 -372 l 790 -372 l 793 -537 l 775 -537 l 774 -415 l 746 -537 l 731 -537 l 704 -415 l 703 -537 l 683 -537 m 1036 -537 l 1036 -372 q 1069 -371 1053 -372 q 1100 -376 1086 -369 q 1115 -393 1110 -382 q 1119 -417 1119 -404 q 1114 -440 1119 -429 q 1099 -454 1108 -450 l 1122 -537 l 1100 -537 l 1081 -458 l 1063 -458 l 1063 -537 l 1036 -537 m 818 -537 l 821 -372 l 844 -372 l 874 -504 l 903 -372 l 926 -372 l 928 -537 l 913 -537 l 910 -415 l 881 -537 l 865 -537 l 840 -415 l 838 -537 l 818 -537 m 825 -331 l 825 -165 q 856 -164 840 -165 q 886 -169 872 -162 q 901 -187 896 -175 q 908 -211 907 -199 q 903 -234 908 -224 q 886 -249 899 -244 l 911 -331 l 888 -331 l 864 -254 l 847 -254 l 847 -331 l 825 -331 m 1717 -537 l 1717 -372 q 1749 -371 1732 -372 q 1781 -376 1765 -369 q 1794 -393 1789 -382 q 1800 -417 1800 -404 q 1795 -440 1800 -429 q 1781 -454 1790 -450 l 1801 -537 l 1781 -537 l 1760 -458 l 1740 -458 l 1740 -537 l 1717 -537 m 842 365 l 842 533 q 883 533 858 533 q 919 517 908 533 q 924 482 925 501 q 911 453 922 463 q 888 444 900 444 q 864 443 876 443 l 864 365 l 842 365 m 1061 -331 l 1061 -165 l 1082 -165 l 1082 -237 l 1125 -237 l 1125 -165 l 1150 -165 l 1150 -331 l 1125 -331 l 1125 -254 l 1082 -254 l 1082 -331 l 1061 -331 m 1808 -331 l 1808 -165 l 1822 -165 l 1871 -275 l 1871 -165 l 1889 -165 l 1889 -331 l 1875 -331 l 1828 -219 l 1828 -331 l 1808 -331 m 1096 365 l 1132 533 l 1154 533 l 1190 365 l 1165 365 l 1158 410 l 1124 410 l 1117 365 l 1096 365 m 2085 -537 l 2085 -372 l 2099 -372 l 2147 -482 l 2147 -372 l 2165 -372 l 2165 -537 l 2150 -537 l 2101 -424 l 2101 -537 l 2085 -537 m 1700 -331 l 1732 -165 l 1757 -165 l 1792 -331 l 1769 -331 l 1761 -289 l 1728 -289 l 1718 -331 l 1700 -331 m 1292 -537 l 1326 -372 l 1350 -372 l 1385 -537 l 1364 -537 l 1357 -494 l 1321 -494 l 1314 -537 l 1292 -537 m 2028 682 l 2015 936 l 2057 936 l 2043 682 l 2028 682 m 618 1168 q 640 1167 629 1168 q 665 1169 651 1167 q 687 1187 682 1174 q 692 1215 692 1200 q 689 1250 693 1233 q 665 1272 685 1267 q 640 1274 651 1275 q 618 1274 629 1274 l 618 1168 m 1449 -331 q 1408 -327 1425 -337 q 1385 -293 1390 -317 q 1383 -272 1382 -282 q 1385 -254 1385 -262 l 1385 -165 l 1406 -165 l 1406 -239 q 1405 -259 1406 -246 q 1406 -285 1404 -272 q 1412 -307 1407 -297 q 1428 -317 1417 -317 q 1444 -307 1439 -317 q 1452 -285 1450 -297 q 1453 -259 1454 -272 q 1453 -239 1453 -246 l 1453 -165 l 1472 -165 l 1472 -240 q 1473 -265 1472 -251 q 1472 -291 1474 -278 q 1466 -315 1471 -304 q 1449 -331 1461 -326 m 508 -539 q 478 -526 488 -539 q 465 -497 468 -514 q 463 -459 463 -479 q 464 -424 464 -439 q 476 -385 464 -401 q 515 -371 488 -368 q 546 -391 540 -374 q 551 -428 551 -408 l 529 -428 q 530 -413 529 -421 q 526 -399 531 -406 q 511 -386 524 -387 q 493 -396 499 -385 q 487 -424 485 -404 q 489 -456 489 -443 q 487 -483 489 -465 q 494 -512 485 -501 q 511 -520 499 -522 q 526 -507 524 -518 q 530 -492 531 -500 q 529 -476 529 -483 l 551 -476 q 544 -518 551 -497 q 508 -539 538 -539 m 1185 -539 q 1153 -526 1163 -539 q 1142 -497 1144 -514 q 1142 -459 1140 -479 q 1143 -424 1143 -439 q 1153 -385 1143 -401 q 1192 -371 1164 -368 q 1224 -391 1218 -374 q 1229 -428 1229 -408 l 1204 -428 q 1206 -413 1204 -421 q 1203 -399 1207 -406 q 1188 -386 1200 -387 q 1169 -396 1176 -385 q 1163 -424 1161 -404 q 1164 -456 1164 -443 q 1163 -483 1164 -465 q 1171 -512 1161 -501 q 1188 -520 1176 -522 q 1203 -507 1200 -518 q 1206 -492 1207 -500 q 1204 -476 1204 -483 l 1229 -476 q 1222 -518 1229 -497 q 1185 -539 1215 -539 m 1625 364 q 1593 378 1603 364 q 1582 413 1583 392 l 1604 419 q 1608 400 1604 411 q 1619 383 1611 389 q 1637 387 1631 381 q 1643 403 1643 393 q 1630 433 1644 419 q 1604 457 1615 446 q 1583 490 1589 469 q 1594 528 1576 511 q 1640 532 1618 539 q 1656 515 1651 526 q 1663 492 1661 503 l 1643 488 q 1640 503 1642 494 q 1631 518 1638 511 q 1616 518 1624 521 q 1607 504 1608 515 q 1610 482 1599 493 q 1629 463 1621 471 q 1649 444 1639 454 q 1663 418 1660 433 q 1659 381 1669 399 q 1625 364 1649 364 m 1864 -539 q 1831 -524 1842 -539 q 1818 -490 1821 -510 l 1840 -485 q 1843 -503 1840 -493 q 1854 -517 1846 -514 q 1874 -517 1867 -524 q 1881 -501 1881 -511 q 1866 -472 1881 -485 q 1840 -450 1851 -458 q 1819 -413 1825 -435 q 1833 -378 1814 -392 q 1856 -369 1843 -371 q 1878 -374 1869 -368 q 1894 -388 1889 -376 q 1900 -411 1899 -400 l 1881 -418 q 1878 -401 1879 -410 q 1869 -386 1876 -393 q 1842 -399 1847 -381 q 1847 -421 1836 -411 q 1867 -439 1857 -431 q 1887 -460 1876 -450 q 1900 -486 1897 -471 q 1896 -522 1907 -506 q 1864 -539 1885 -539 m 1244 364 q 1213 378 1225 364 q 1200 413 1201 392 l 1222 419 q 1225 400 1222 411 q 1236 383 1228 389 q 1255 387 1247 381 q 1263 403 1263 393 q 1248 433 1263 419 q 1222 457 1233 446 q 1201 490 1207 469 q 1214 528 1196 511 q 1236 534 1224 533 q 1258 532 1249 535 q 1276 515 1271 526 q 1282 492 1281 503 l 1263 488 q 1259 503 1261 494 q 1250 518 1257 511 q 1234 518 1242 521 q 1224 504 1226 515 q 1229 482 1219 493 q 1246 463 1239 471 q 1268 444 1257 454 q 1282 418 1279 433 q 1278 381 1289 399 q 1244 364 1267 364 m 975 1168 q 997 1168 985 1168 q 1021 1171 1010 1168 q 1041 1192 1036 1178 q 1043 1225 1046 1207 q 1040 1251 1043 1240 q 1021 1269 1036 1263 q 997 1274 1010 1275 q 975 1274 985 1274 l 975 1168 m 1461 365 l 1424 533 l 1449 533 l 1472 411 l 1499 533 l 1517 533 l 1482 365 l 1461 365 m 1560 -537 l 1522 -372 l 1543 -372 l 1571 -493 l 1593 -372 l 1617 -372 l 1578 -537 l 1560 -537 m 1301 365 l 1301 533 l 1368 533 l 1368 518 l 1325 518 l 1325 461 l 1360 461 l 1360 444 l 1325 444 l 1325 382 l 1369 382 l 1369 365 l 1301 365 m 1633 -537 l 1633 -372 l 1700 -372 l 1700 -386 l 1657 -386 l 1657 -440 l 1692 -440 l 1692 -458 l 1657 -458 l 1657 -521 l 1700 -521 l 1700 -537 l 1633 -537 m 954 -537 l 954 -372 l 1019 -372 l 1019 -386 l 978 -386 l 978 -440 l 1013 -440 l 1013 -458 l 978 -458 l 978 -521 l 1019 -521 l 1019 -537 l 954 -537 m 1175 -331 l 1175 -165 l 1239 -165 l 1239 -182 l 1199 -182 l 1199 -237 l 1233 -237 l 1233 -254 l 1199 -254 l 1199 -317 l 1239 -317 l 1239 -331 l 1175 -331 m 746 -314 q 766 -315 760 -321 q 775 -299 772 -310 q 778 -276 778 -289 q 778 -256 778 -264 q 778 -239 778 -250 q 779 -217 779 -228 q 776 -197 779 -206 q 768 -183 774 -187 q 743 -186 753 -175 q 733 -211 733 -197 l 733 -237 q 733 -255 733 -243 q 732 -278 732 -267 q 735 -301 732 -290 q 746 -314 738 -311 m 1021 365 l 1021 533 l 1085 533 l 1085 518 l 1042 518 l 1042 461 l 1078 461 l 1078 444 l 1042 444 l 1042 382 l 1085 382 l 1085 365 l 1021 365 m 2003 -515 q 2024 -519 2017 -524 q 2034 -504 2031 -514 q 2038 -482 2038 -494 q 2038 -461 2038 -469 q 2038 -444 2038 -456 q 2038 -423 2039 -433 q 2033 -403 2036 -412 q 2025 -392 2031 -394 q 2001 -392 2008 -381 q 1994 -415 1994 -403 l 1994 -440 q 1993 -458 1994 -447 q 1992 -482 1992 -469 q 1994 -504 1992 -494 q 2003 -515 1996 -514 m 604 -515 q 625 -519 618 -524 q 635 -504 632 -514 q 638 -482 638 -494 q 638 -461 638 -469 q 638 -444 638 -456 q 638 -423 639 -433 q 635 -403 638 -412 q 628 -392 633 -394 q 602 -392 610 -381 q 594 -415 594 -403 q 594 -428 593 -422 q 594 -440 594 -435 q 594 -458 594 -447 q 593 -482 593 -469 q 595 -504 593 -494 q 604 -515 597 -514 m 633 -331 l 633 -165 l 697 -165 l 697 -182 l 658 -182 l 658 -237 l 689 -237 l 689 -254 l 658 -254 l 658 -331 l 633 -331 m 1939 -317 q 1965 -314 1954 -317 q 1978 -293 1975 -311 l 1978 -206 q 1965 -185 1976 -187 q 1939 -182 1954 -182 l 1939 -317 m 996 -331 l 996 -182 l 965 -182 l 965 -165 l 1050 -165 l 1050 -182 l 1019 -182 l 1019 -331 l 996 -331 m 1578 -331 l 1578 -165 l 1601 -165 l 1601 -317 l 1643 -317 l 1643 -331 l 1578 -331 m 1754 365 l 1754 518 l 1722 518 l 1722 533 l 1803 533 l 1803 518 l 1775 518 l 1775 365 l 1754 365 m 1308 -331 l 1308 -165 l 1371 -165 l 1371 -182 l 1326 -182 l 1326 -237 l 1360 -237 l 1360 -254 l 1326 -254 l 1326 -331 l 1308 -331 m 1499 -331 l 1499 -165 l 1521 -165 l 1521 -317 l 1563 -317 l 1563 -331 l 1499 -331 m 940 365 l 940 533 l 961 533 l 961 382 l 1004 382 l 1004 365 l 940 365 m 1683 365 l 1683 533 l 1708 533 l 1708 365 l 1683 365 m 1403 -537 l 1403 -372 l 1424 -372 l 1424 -521 l 1468 -521 l 1468 -537 l 1403 -537 m 1799 1096 l 1854 1096 l 1826 1244 l 1799 1096 m 599 -78 l 658 -78 l 658 -11 l 599 -11 l 599 -78 m 1251 -537 l 1251 -372 l 1275 -372 l 1275 -537 l 1251 -537 m 1538 365 l 1538 533 l 1560 533 l 1560 365 l 1538 365 m 1922 -537 l 1922 -372 l 1943 -372 l 1943 -537 l 1922 -537 m 864 460 q 876 460 869 460 q 890 463 883 460 q 900 475 899 467 q 901 493 901 483 q 890 515 900 513 q 864 518 879 518 l 864 460 m 2015 613 l 2015 658 l 2057 658 l 2057 613 l 2015 613 m 847 -237 q 874 -233 863 -237 q 885 -208 885 -228 q 874 -185 885 -189 q 847 -182 863 -182 l 847 -237 m 1740 -440 q 1767 -437 1756 -440 q 1778 -414 1778 -433 q 1767 -392 1778 -397 q 1740 -386 1756 -386 l 1740 -440 m 1063 -440 q 1088 -437 1078 -440 q 1097 -414 1097 -433 q 1088 -392 1097 -397 q 1063 -386 1078 -386 l 1063 -440 m 1125 425 l 1156 425 l 1143 501 l 1125 425 m 1324 -479 l 1353 -479 l 1339 -403 l 1324 -479 m 1731 -272 l 1760 -272 l 1744 -197 l 1731 -272 m 1457 60 l 1468 131 l 1478 60 l 1457 60 m 2375 279 l 2310 -78 l 2369 -78 l 2383 7 l 2422 7 l 2433 -78 l 2493 -78 l 2431 279 l 2375 279 m 2392 60 l 2403 131 l 2413 60 l 2392 60 z "},"5":{"ha":2606,"x_min":142,"x_max":2493,"o":"m 288 279 l 246 56 l 206 279 l 147 279 l 142 -78 l 197 -78 l 199 68 l 226 -78 l 268 -78 l 297 69 l 300 -78 l 351 -78 l 349 279 l 288 279 m 1946 153 q 1942 217 1946 183 q 1907 271 1938 251 q 1868 283 1890 282 q 1826 278 1846 283 q 1791 249 1803 269 q 1775 204 1779 228 q 1774 177 1774 190 q 1774 150 1774 164 l 1774 53 q 1774 26 1774 39 q 1775 -1 1774 13 q 1791 -46 1779 -25 q 1826 -75 1803 -67 q 1868 -80 1846 -81 q 1907 -68 1890 -79 q 1942 -15 1938 -49 q 1946 50 1946 19 l 1946 153 m 1408 979 q 1322 1051 1335 979 q 1319 1082 1319 1067 q 1319 1113 1319 1097 q 1318 1184 1319 1146 q 1325 1254 1317 1222 q 1355 1295 1333 1282 q 1403 1310 1376 1308 q 1455 1300 1431 1311 q 1489 1261 1479 1289 q 1499 1192 1500 1231 q 1499 1121 1499 1154 q 1498 1083 1499 1101 q 1493 1046 1497 1064 q 1408 979 1478 979 m 1324 610 q 1267 627 1289 610 q 1238 678 1244 644 q 1235 710 1235 694 q 1236 744 1236 726 q 1235 813 1236 776 q 1240 882 1233 850 q 1269 924 1249 911 q 1318 938 1290 938 q 1371 929 1347 939 q 1404 892 1394 919 q 1414 822 1417 860 q 1411 751 1411 783 q 1412 712 1411 729 q 1408 675 1413 694 q 1324 610 1396 610 m 504 108 l 443 279 l 397 279 l 397 -78 l 453 -78 l 453 97 l 515 -78 l 560 -78 l 560 279 l 504 279 l 504 108 m 954 56 l 990 56 q 990 33 990 49 q 988 2 990 17 q 977 -22 985 -12 q 954 -25 969 -31 q 940 -12 944 -22 q 935 9 936 -3 q 934 33 933 21 q 935 51 935 44 l 935 136 q 934 174 935 153 q 938 214 933 196 q 949 226 942 221 q 965 229 957 231 q 985 207 983 224 q 987 181 988 194 q 986 153 986 168 l 1046 153 q 1042 218 1046 183 q 1007 272 1038 253 q 968 284 990 283 q 926 278 946 285 q 891 250 903 271 q 875 206 879 229 q 873 154 872 181 q 874 101 874 128 q 873 52 874 76 q 875 3 872 28 q 885 -40 878 -18 q 913 -71 893 -61 q 957 -83 931 -83 q 999 -67 983 -82 l 1000 -78 l 1047 -78 l 1047 108 l 954 108 l 954 56 m 928 982 l 928 1308 q 994 1309 960 1308 q 1056 1294 1028 1310 q 1082 1262 1072 1283 q 1092 1217 1092 1240 q 1082 1173 1092 1193 q 1053 1146 1072 1153 l 1096 982 l 1053 982 l 1010 1136 l 975 1136 l 975 982 l 928 982 m 2096 108 l 2067 140 q 2048 158 2057 150 q 2035 182 2039 167 q 2034 212 2031 193 q 2056 229 2038 231 q 2069 219 2065 228 q 2076 201 2074 211 q 2078 179 2078 190 q 2079 160 2079 168 l 2135 163 q 2128 229 2135 196 q 2089 276 2121 263 q 2050 283 2069 285 q 2015 274 2031 282 q 1988 249 1999 265 q 1976 213 1978 233 q 1977 169 1974 192 q 1993 131 1981 147 q 2006 113 1997 119 q 2024 96 2015 106 q 2060 55 2040 76 q 2079 6 2079 33 q 2077 -15 2079 -6 q 2065 -25 2075 -24 q 2051 -24 2057 -28 q 2043 -12 2046 -19 q 2033 19 2035 3 q 2031 51 2032 35 l 1975 47 q 1977 3 1975 24 q 1989 -39 1979 -18 q 2024 -75 2000 -64 q 2075 -81 2049 -86 q 2119 -54 2103 -75 q 2138 -10 2135 -33 q 2096 108 2146 57 m 804 108 l 775 140 q 756 158 765 150 q 743 182 747 167 q 742 212 739 193 q 764 229 746 231 q 778 219 774 228 q 784 201 782 211 q 787 179 786 190 q 788 160 788 168 l 843 163 q 836 229 843 196 q 797 276 829 263 q 758 283 778 285 q 723 274 739 282 q 697 249 707 265 q 685 213 686 233 q 685 169 682 192 q 701 131 689 147 q 715 113 706 119 q 732 96 724 106 q 768 55 749 76 q 788 6 788 33 q 785 -15 788 -6 q 774 -25 783 -24 q 760 -24 765 -28 q 751 -12 754 -19 q 742 19 743 3 q 739 51 740 35 l 683 47 q 685 3 683 24 q 697 -39 688 -18 q 733 -75 708 -64 q 783 -81 757 -86 q 827 -54 811 -75 q 846 -10 843 -33 q 804 108 854 57 m 1440 279 l 1375 -78 l 1435 -78 l 1449 7 l 1488 7 l 1499 -78 l 1558 -78 l 1496 279 l 1440 279 m 1582 208 l 1582 -7 q 1604 -60 1582 -40 q 1654 -82 1626 -79 q 1697 -75 1678 -85 q 1736 -28 1729 -61 q 1743 39 1743 6 l 1688 42 q 1687 22 1688 33 q 1684 1 1686 11 q 1678 -18 1682 -10 q 1664 -28 1674 -26 q 1642 -4 1642 -31 l 1642 206 q 1664 229 1642 232 q 1678 219 1674 228 q 1684 201 1682 211 q 1687 179 1686 190 q 1688 160 1688 168 l 1743 163 q 1736 229 1743 196 q 1697 276 1729 263 q 1654 283 1678 286 q 1604 261 1626 281 q 1582 208 1582 242 m 574 982 l 574 1308 l 642 1308 q 688 1303 667 1308 q 722 1272 710 1297 q 733 1241 729 1258 q 735 1207 736 1224 q 726 1175 733 1190 q 707 1150 719 1160 q 664 1135 689 1135 q 618 1135 639 1135 l 618 982 l 574 982 m 1457 613 l 1457 936 l 1488 936 l 1579 719 l 1579 936 l 1619 936 l 1619 613 l 1589 613 l 1494 833 l 1494 613 l 1457 613 m 1543 982 l 1543 1308 l 1574 1308 l 1664 1092 l 1664 1308 l 1703 1308 l 1703 982 l 1674 982 l 1579 1203 l 1579 982 l 1543 982 m 1736 982 l 1804 1308 l 1849 1308 l 1917 982 l 1875 982 l 1858 1063 l 1793 1063 l 1778 982 l 1736 982 m 697 614 q 633 613 668 603 q 586 657 599 622 q 578 692 579 674 q 576 735 576 711 l 576 936 l 619 936 l 619 719 q 622 678 619 701 q 646 643 625 654 q 676 643 664 638 q 694 660 688 649 q 703 685 700 671 q 706 714 706 700 q 706 766 707 742 q 706 818 706 790 l 706 936 l 751 936 l 751 788 q 752 740 751 767 q 749 689 753 714 q 734 643 746 664 q 697 614 722 622 m 2265 -78 l 2265 217 l 2315 217 l 2315 279 l 2154 279 l 2154 217 l 2206 217 l 2206 -78 l 2265 -78 m 1229 -78 l 1367 -78 l 1367 -15 l 1289 -15 l 1289 279 l 1229 279 l 1229 -78 m 1213 979 q 1149 1006 1172 979 q 1125 1072 1126 1033 l 1167 1083 q 1172 1052 1169 1068 q 1185 1026 1175 1036 q 1211 1014 1196 1015 q 1238 1022 1226 1013 q 1249 1053 1250 1033 q 1239 1088 1249 1072 q 1203 1122 1231 1101 q 1170 1151 1188 1136 q 1142 1182 1153 1165 q 1128 1219 1131 1199 q 1129 1256 1125 1239 q 1145 1288 1133 1274 q 1176 1307 1157 1301 q 1217 1309 1194 1311 q 1254 1296 1239 1307 q 1276 1265 1271 1285 q 1283 1226 1282 1246 l 1249 1215 q 1240 1251 1246 1232 q 1213 1276 1233 1271 q 1185 1270 1197 1278 q 1169 1249 1172 1263 q 1171 1223 1167 1235 q 1183 1201 1175 1211 q 1202 1183 1192 1192 q 1222 1168 1213 1175 q 1263 1128 1243 1149 q 1289 1081 1282 1108 q 1275 1010 1296 1040 q 1213 979 1254 979 m 874 610 q 811 636 832 610 q 788 703 790 663 l 831 714 q 834 683 832 699 q 846 657 836 668 q 872 643 857 644 q 899 653 888 642 q 911 683 913 664 q 900 715 910 703 q 884 735 893 725 q 864 751 875 744 q 831 781 849 767 q 801 814 813 796 q 789 848 792 829 q 791 885 786 867 q 807 917 796 903 q 838 936 818 931 q 878 939 856 940 q 917 926 900 938 q 938 895 932 915 q 944 856 943 875 l 910 843 q 901 881 907 863 q 874 904 894 900 q 847 899 858 907 q 832 875 835 892 q 832 851 828 863 q 844 831 836 840 q 863 813 853 821 q 882 797 874 806 q 923 758 904 778 q 947 708 942 739 q 935 640 957 671 q 874 610 914 610 m 1060 -122 l 1111 -122 l 1213 325 l 1156 325 l 1060 -122 m 986 613 l 986 936 l 1113 936 l 1113 901 l 1032 901 l 1032 796 l 1097 796 l 1097 763 l 1032 763 l 1032 642 l 1113 642 l 1113 613 l 986 613 m 767 982 l 767 1308 l 892 1308 l 892 1274 l 811 1274 l 811 1168 l 876 1168 l 876 1135 l 811 1135 l 811 1014 l 893 1014 l 893 982 l 767 982 m 1301 647 q 1324 642 1311 642 q 1343 647 1336 642 q 1360 666 1356 654 q 1368 690 1365 678 q 1369 707 1369 697 q 1368 724 1368 717 l 1368 839 q 1367 867 1368 853 q 1354 893 1365 882 q 1314 904 1336 911 q 1282 874 1292 899 q 1279 822 1278 850 q 1281 771 1281 794 l 1281 713 q 1283 676 1281 696 q 1301 647 1285 657 m 1876 613 l 1876 679 q 1878 704 1876 692 q 1876 728 1879 717 q 1867 760 1874 746 q 1854 790 1861 775 l 1808 936 l 1850 936 l 1899 781 l 1946 936 l 1990 936 q 1968 869 1979 903 q 1946 801 1957 836 l 1924 735 q 1920 713 1919 724 q 1921 693 1921 701 l 1921 613 l 1876 613 m 1390 1017 q 1431 1017 1408 1010 q 1448 1035 1444 1024 q 1453 1058 1451 1047 l 1453 1210 q 1451 1238 1453 1224 q 1439 1263 1450 1253 q 1422 1275 1432 1274 q 1400 1274 1411 1276 q 1369 1246 1376 1272 q 1365 1194 1363 1222 q 1368 1142 1368 1165 l 1368 1082 q 1369 1046 1368 1065 q 1390 1017 1371 1026 m 1951 982 l 1951 1308 l 1996 1308 l 1996 1014 l 2079 1014 l 2079 982 l 1951 982 m 1669 613 l 1669 936 l 1714 936 l 1714 642 l 1796 642 l 1796 613 l 1669 613 m 617 -539 q 586 -530 596 -539 q 573 -508 576 -521 q 569 -478 569 -494 q 569 -450 569 -462 q 570 -419 569 -435 q 576 -393 571 -404 q 591 -376 581 -382 q 621 -371 601 -369 q 647 -381 638 -372 q 659 -401 656 -389 q 663 -428 663 -414 q 663 -456 663 -443 q 663 -483 663 -468 q 658 -510 663 -497 q 644 -531 654 -522 q 617 -539 635 -539 m 757 -333 q 728 -324 738 -333 q 715 -301 718 -315 q 711 -272 711 -287 q 711 -242 711 -256 q 712 -213 711 -228 q 717 -187 713 -199 q 732 -169 722 -176 q 761 -164 742 -162 q 786 -174 778 -165 q 799 -194 794 -182 q 803 -222 803 -207 q 803 -249 803 -236 q 802 -276 803 -261 q 797 -304 801 -292 q 784 -325 793 -317 q 757 -333 775 -333 m 2014 -539 q 1985 -530 1994 -539 q 1972 -508 1975 -521 q 1968 -478 1968 -494 q 1968 -450 1968 -462 q 1969 -419 1968 -435 q 1974 -393 1969 -404 q 1990 -376 1979 -382 q 2019 -371 2000 -369 q 2045 -381 2038 -372 q 2056 -401 2053 -389 q 2058 -428 2058 -414 q 2057 -456 2057 -443 q 2057 -483 2057 -468 q 2053 -510 2057 -497 q 2041 -531 2050 -522 q 2014 -539 2032 -539 m 1917 -331 l 1917 -165 q 1953 -165 1932 -165 q 1989 -176 1974 -164 q 2003 -210 2004 -189 q 2001 -249 2001 -232 q 2002 -288 2001 -265 q 1983 -322 2003 -311 q 1951 -332 1971 -333 q 1917 -331 1932 -331 m 1886 50 q 1887 22 1886 35 q 1885 -3 1888 8 q 1865 -25 1883 -19 q 1849 -22 1857 -26 q 1838 -11 1842 -18 q 1834 24 1833 4 q 1835 60 1835 44 l 1835 143 q 1834 178 1835 158 q 1838 214 1833 199 q 1849 225 1842 221 q 1865 228 1857 229 q 1885 206 1883 222 q 1887 181 1888 194 q 1886 153 1886 168 l 1886 50 m 683 -537 l 686 -372 l 711 -372 l 740 -504 l 768 -372 l 790 -372 l 793 -537 l 775 -537 l 774 -415 l 746 -537 l 731 -537 l 704 -415 l 703 -537 l 683 -537 m 1036 -537 l 1036 -372 q 1069 -371 1053 -372 q 1100 -376 1086 -369 q 1115 -393 1110 -382 q 1119 -417 1119 -404 q 1114 -440 1119 -429 q 1099 -454 1108 -450 l 1122 -537 l 1100 -537 l 1081 -458 l 1063 -458 l 1063 -537 l 1036 -537 m 818 -537 l 821 -372 l 844 -372 l 874 -504 l 903 -372 l 926 -372 l 928 -537 l 913 -537 l 910 -415 l 881 -537 l 865 -537 l 840 -415 l 838 -537 l 818 -537 m 825 -331 l 825 -165 q 856 -164 840 -165 q 886 -169 872 -162 q 901 -187 896 -175 q 908 -211 907 -199 q 903 -234 908 -224 q 886 -249 899 -244 l 911 -331 l 888 -331 l 864 -254 l 847 -254 l 847 -331 l 825 -331 m 1717 -537 l 1717 -372 q 1749 -371 1732 -372 q 1781 -376 1765 -369 q 1794 -393 1789 -382 q 1800 -417 1800 -404 q 1795 -440 1800 -429 q 1781 -454 1790 -450 l 1801 -537 l 1781 -537 l 1760 -458 l 1740 -458 l 1740 -537 l 1717 -537 m 842 365 l 842 533 q 883 533 858 533 q 919 517 908 533 q 924 482 925 501 q 911 453 922 463 q 888 444 900 444 q 864 443 876 443 l 864 365 l 842 365 m 1061 -331 l 1061 -165 l 1082 -165 l 1082 -237 l 1125 -237 l 1125 -165 l 1150 -165 l 1150 -331 l 1125 -331 l 1125 -254 l 1082 -254 l 1082 -331 l 1061 -331 m 1808 -331 l 1808 -165 l 1822 -165 l 1871 -275 l 1871 -165 l 1889 -165 l 1889 -331 l 1875 -331 l 1828 -219 l 1828 -331 l 1808 -331 m 1096 365 l 1132 533 l 1154 533 l 1190 365 l 1165 365 l 1158 410 l 1124 410 l 1117 365 l 1096 365 m 2085 -537 l 2085 -372 l 2099 -372 l 2147 -482 l 2147 -372 l 2165 -372 l 2165 -537 l 2150 -537 l 2101 -424 l 2101 -537 l 2085 -537 m 1700 -331 l 1732 -165 l 1757 -165 l 1792 -331 l 1769 -331 l 1761 -289 l 1728 -289 l 1718 -331 l 1700 -331 m 1292 -537 l 1326 -372 l 1350 -372 l 1385 -537 l 1364 -537 l 1357 -494 l 1321 -494 l 1314 -537 l 1292 -537 m 2028 682 l 2015 936 l 2057 936 l 2043 682 l 2028 682 m 618 1168 q 640 1167 629 1168 q 665 1169 651 1167 q 687 1187 682 1174 q 692 1215 692 1200 q 689 1250 693 1233 q 665 1272 685 1267 q 640 1274 651 1275 q 618 1274 629 1274 l 618 1168 m 1449 -331 q 1408 -327 1425 -337 q 1385 -293 1390 -317 q 1383 -272 1382 -282 q 1385 -254 1385 -262 l 1385 -165 l 1406 -165 l 1406 -239 q 1405 -259 1406 -246 q 1406 -285 1404 -272 q 1412 -307 1407 -297 q 1428 -317 1417 -317 q 1444 -307 1439 -317 q 1452 -285 1450 -297 q 1453 -259 1454 -272 q 1453 -239 1453 -246 l 1453 -165 l 1472 -165 l 1472 -240 q 1473 -265 1472 -251 q 1472 -291 1474 -278 q 1466 -315 1471 -304 q 1449 -331 1461 -326 m 508 -539 q 478 -526 488 -539 q 465 -497 468 -514 q 463 -459 463 -479 q 464 -424 464 -439 q 476 -385 464 -401 q 515 -371 488 -368 q 546 -391 540 -374 q 551 -428 551 -408 l 529 -428 q 530 -413 529 -421 q 526 -399 531 -406 q 511 -386 524 -387 q 493 -396 499 -385 q 487 -424 485 -404 q 489 -456 489 -443 q 487 -483 489 -465 q 494 -512 485 -501 q 511 -520 499 -522 q 526 -507 524 -518 q 530 -492 531 -500 q 529 -476 529 -483 l 551 -476 q 544 -518 551 -497 q 508 -539 538 -539 m 1185 -539 q 1153 -526 1163 -539 q 1142 -497 1144 -514 q 1142 -459 1140 -479 q 1143 -424 1143 -439 q 1153 -385 1143 -401 q 1192 -371 1164 -368 q 1224 -391 1218 -374 q 1229 -428 1229 -408 l 1204 -428 q 1206 -413 1204 -421 q 1203 -399 1207 -406 q 1188 -386 1200 -387 q 1169 -396 1176 -385 q 1163 -424 1161 -404 q 1164 -456 1164 -443 q 1163 -483 1164 -465 q 1171 -512 1161 -501 q 1188 -520 1176 -522 q 1203 -507 1200 -518 q 1206 -492 1207 -500 q 1204 -476 1204 -483 l 1229 -476 q 1222 -518 1229 -497 q 1185 -539 1215 -539 m 1625 364 q 1593 378 1603 364 q 1582 413 1583 392 l 1604 419 q 1608 400 1604 411 q 1619 383 1611 389 q 1637 387 1631 381 q 1643 403 1643 393 q 1630 433 1644 419 q 1604 457 1615 446 q 1583 490 1589 469 q 1594 528 1576 511 q 1640 532 1618 539 q 1656 515 1651 526 q 1663 492 1661 503 l 1643 488 q 1640 503 1642 494 q 1631 518 1638 511 q 1616 518 1624 521 q 1607 504 1608 515 q 1610 482 1599 493 q 1629 463 1621 471 q 1649 444 1639 454 q 1663 418 1660 433 q 1659 381 1669 399 q 1625 364 1649 364 m 1864 -539 q 1831 -524 1842 -539 q 1818 -490 1821 -510 l 1840 -485 q 1843 -503 1840 -493 q 1854 -517 1846 -514 q 1874 -517 1867 -524 q 1881 -501 1881 -511 q 1866 -472 1881 -485 q 1840 -450 1851 -458 q 1819 -413 1825 -435 q 1833 -378 1814 -392 q 1856 -369 1843 -371 q 1878 -374 1869 -368 q 1894 -388 1889 -376 q 1900 -411 1899 -400 l 1881 -418 q 1878 -401 1879 -410 q 1869 -386 1876 -393 q 1842 -399 1847 -381 q 1847 -421 1836 -411 q 1867 -439 1857 -431 q 1887 -460 1876 -450 q 1900 -486 1897 -471 q 1896 -522 1907 -506 q 1864 -539 1885 -539 m 1244 364 q 1213 378 1225 364 q 1200 413 1201 392 l 1222 419 q 1225 400 1222 411 q 1236 383 1228 389 q 1255 387 1247 381 q 1263 403 1263 393 q 1248 433 1263 419 q 1222 457 1233 446 q 1201 490 1207 469 q 1214 528 1196 511 q 1236 534 1224 533 q 1258 532 1249 535 q 1276 515 1271 526 q 1282 492 1281 503 l 1263 488 q 1259 503 1261 494 q 1250 518 1257 511 q 1234 518 1242 521 q 1224 504 1226 515 q 1229 482 1219 493 q 1246 463 1239 471 q 1268 444 1257 454 q 1282 418 1279 433 q 1278 381 1289 399 q 1244 364 1267 364 m 975 1168 q 997 1168 985 1168 q 1021 1171 1010 1168 q 1041 1192 1036 1178 q 1043 1225 1046 1207 q 1040 1251 1043 1240 q 1021 1269 1036 1263 q 997 1274 1010 1275 q 975 1274 985 1274 l 975 1168 m 1461 365 l 1424 533 l 1449 533 l 1472 411 l 1499 533 l 1517 533 l 1482 365 l 1461 365 m 1560 -537 l 1522 -372 l 1543 -372 l 1571 -493 l 1593 -372 l 1617 -372 l 1578 -537 l 1560 -537 m 1301 365 l 1301 533 l 1368 533 l 1368 518 l 1325 518 l 1325 461 l 1360 461 l 1360 444 l 1325 444 l 1325 382 l 1369 382 l 1369 365 l 1301 365 m 1633 -537 l 1633 -372 l 1700 -372 l 1700 -386 l 1657 -386 l 1657 -440 l 1692 -440 l 1692 -458 l 1657 -458 l 1657 -521 l 1700 -521 l 1700 -537 l 1633 -537 m 954 -537 l 954 -372 l 1019 -372 l 1019 -386 l 978 -386 l 978 -440 l 1013 -440 l 1013 -458 l 978 -458 l 978 -521 l 1019 -521 l 1019 -537 l 954 -537 m 1175 -331 l 1175 -165 l 1239 -165 l 1239 -182 l 1199 -182 l 1199 -237 l 1233 -237 l 1233 -254 l 1199 -254 l 1199 -317 l 1239 -317 l 1239 -331 l 1175 -331 m 746 -314 q 766 -315 760 -321 q 775 -299 772 -310 q 778 -276 778 -289 q 778 -256 778 -264 q 778 -239 778 -250 q 779 -217 779 -228 q 776 -197 779 -206 q 768 -183 774 -187 q 743 -186 753 -175 q 733 -211 733 -197 l 733 -237 q 733 -255 733 -243 q 732 -278 732 -267 q 735 -301 732 -290 q 746 -314 738 -311 m 1021 365 l 1021 533 l 1085 533 l 1085 518 l 1042 518 l 1042 461 l 1078 461 l 1078 444 l 1042 444 l 1042 382 l 1085 382 l 1085 365 l 1021 365 m 2003 -515 q 2024 -519 2017 -524 q 2034 -504 2031 -514 q 2038 -482 2038 -494 q 2038 -461 2038 -469 q 2038 -444 2038 -456 q 2038 -423 2039 -433 q 2033 -403 2036 -412 q 2025 -392 2031 -394 q 2001 -392 2008 -381 q 1994 -415 1994 -403 l 1994 -440 q 1993 -458 1994 -447 q 1992 -482 1992 -469 q 1994 -504 1992 -494 q 2003 -515 1996 -514 m 604 -515 q 625 -519 618 -524 q 635 -504 632 -514 q 638 -482 638 -494 q 638 -461 638 -469 q 638 -444 638 -456 q 638 -423 639 -433 q 635 -403 638 -412 q 628 -392 633 -394 q 602 -392 610 -381 q 594 -415 594 -403 q 594 -428 593 -422 q 594 -440 594 -435 q 594 -458 594 -447 q 593 -482 593 -469 q 595 -504 593 -494 q 604 -515 597 -514 m 633 -331 l 633 -165 l 697 -165 l 697 -182 l 658 -182 l 658 -237 l 689 -237 l 689 -254 l 658 -254 l 658 -331 l 633 -331 m 1939 -317 q 1965 -314 1954 -317 q 1978 -293 1975 -311 l 1978 -206 q 1965 -185 1976 -187 q 1939 -182 1954 -182 l 1939 -317 m 996 -331 l 996 -182 l 965 -182 l 965 -165 l 1050 -165 l 1050 -182 l 1019 -182 l 1019 -331 l 996 -331 m 1578 -331 l 1578 -165 l 1601 -165 l 1601 -317 l 1643 -317 l 1643 -331 l 1578 -331 m 1754 365 l 1754 518 l 1722 518 l 1722 533 l 1803 533 l 1803 518 l 1775 518 l 1775 365 l 1754 365 m 1308 -331 l 1308 -165 l 1371 -165 l 1371 -182 l 1326 -182 l 1326 -237 l 1360 -237 l 1360 -254 l 1326 -254 l 1326 -331 l 1308 -331 m 1499 -331 l 1499 -165 l 1521 -165 l 1521 -317 l 1563 -317 l 1563 -331 l 1499 -331 m 940 365 l 940 533 l 961 533 l 961 382 l 1004 382 l 1004 365 l 940 365 m 1683 365 l 1683 533 l 1708 533 l 1708 365 l 1683 365 m 1403 -537 l 1403 -372 l 1424 -372 l 1424 -521 l 1468 -521 l 1468 -537 l 1403 -537 m 1799 1096 l 1854 1096 l 1826 1244 l 1799 1096 m 599 -78 l 658 -78 l 658 -11 l 599 -11 l 599 -78 m 1251 -537 l 1251 -372 l 1275 -372 l 1275 -537 l 1251 -537 m 1538 365 l 1538 533 l 1560 533 l 1560 365 l 1538 365 m 1922 -537 l 1922 -372 l 1943 -372 l 1943 -537 l 1922 -537 m 864 460 q 876 460 869 460 q 890 463 883 460 q 900 475 899 467 q 901 493 901 483 q 890 515 900 513 q 864 518 879 518 l 864 460 m 2015 613 l 2015 658 l 2057 658 l 2057 613 l 2015 613 m 847 -237 q 874 -233 863 -237 q 885 -208 885 -228 q 874 -185 885 -189 q 847 -182 863 -182 l 847 -237 m 1740 -440 q 1767 -437 1756 -440 q 1778 -414 1778 -433 q 1767 -392 1778 -397 q 1740 -386 1756 -386 l 1740 -440 m 1063 -440 q 1088 -437 1078 -440 q 1097 -414 1097 -433 q 1088 -392 1097 -397 q 1063 -386 1078 -386 l 1063 -440 m 1125 425 l 1156 425 l 1143 501 l 1125 425 m 1324 -479 l 1353 -479 l 1339 -403 l 1324 -479 m 1731 -272 l 1760 -272 l 1744 -197 l 1731 -272 m 1457 60 l 1468 131 l 1478 60 l 1457 60 m 2375 279 l 2310 -78 l 2369 -78 l 2383 7 l 2422 7 l 2433 -78 l 2493 -78 l 2431 279 l 2375 279 m 2392 60 l 2403 131 l 2413 60 l 2392 60 z "},"6":{"ha":2606,"x_min":142,"x_max":2493,"o":"m 288 279 l 246 56 l 206 279 l 147 279 l 142 -78 l 197 -78 l 199 68 l 226 -78 l 268 -78 l 297 69 l 300 -78 l 351 -78 l 349 279 l 288 279 m 1946 153 q 1942 217 1946 183 q 1907 271 1938 251 q 1868 283 1890 282 q 1826 278 1846 283 q 1791 249 1803 269 q 1775 204 1779 228 q 1774 177 1774 190 q 1774 150 1774 164 l 1774 53 q 1774 26 1774 39 q 1775 -1 1774 13 q 1791 -46 1779 -25 q 1826 -75 1803 -67 q 1868 -80 1846 -81 q 1907 -68 1890 -79 q 1942 -15 1938 -49 q 1946 50 1946 19 l 1946 153 m 1408 979 q 1322 1051 1335 979 q 1319 1082 1319 1067 q 1319 1113 1319 1097 q 1318 1184 1319 1146 q 1325 1254 1317 1222 q 1355 1295 1333 1282 q 1403 1310 1376 1308 q 1455 1300 1431 1311 q 1489 1261 1479 1289 q 1499 1192 1500 1231 q 1499 1121 1499 1154 q 1498 1083 1499 1101 q 1493 1046 1497 1064 q 1408 979 1478 979 m 1324 610 q 1267 627 1289 610 q 1238 678 1244 644 q 1235 710 1235 694 q 1236 744 1236 726 q 1235 813 1236 776 q 1240 882 1233 850 q 1269 924 1249 911 q 1318 938 1290 938 q 1371 929 1347 939 q 1404 892 1394 919 q 1414 822 1417 860 q 1411 751 1411 783 q 1412 712 1411 729 q 1408 675 1413 694 q 1324 610 1396 610 m 504 108 l 443 279 l 397 279 l 397 -78 l 453 -78 l 453 97 l 515 -78 l 560 -78 l 560 279 l 504 279 l 504 108 m 954 56 l 990 56 q 990 33 990 49 q 988 2 990 17 q 977 -22 985 -12 q 954 -25 969 -31 q 940 -12 944 -22 q 935 9 936 -3 q 934 33 933 21 q 935 51 935 44 l 935 136 q 934 174 935 153 q 938 214 933 196 q 949 226 942 221 q 965 229 957 231 q 985 207 983 224 q 987 181 988 194 q 986 153 986 168 l 1046 153 q 1042 218 1046 183 q 1007 272 1038 253 q 968 284 990 283 q 926 278 946 285 q 891 250 903 271 q 875 206 879 229 q 873 154 872 181 q 874 101 874 128 q 873 52 874 76 q 875 3 872 28 q 885 -40 878 -18 q 913 -71 893 -61 q 957 -83 931 -83 q 999 -67 983 -82 l 1000 -78 l 1047 -78 l 1047 108 l 954 108 l 954 56 m 928 982 l 928 1308 q 994 1309 960 1308 q 1056 1294 1028 1310 q 1082 1262 1072 1283 q 1092 1217 1092 1240 q 1082 1173 1092 1193 q 1053 1146 1072 1153 l 1096 982 l 1053 982 l 1010 1136 l 975 1136 l 975 982 l 928 982 m 2096 108 l 2067 140 q 2048 158 2057 150 q 2035 182 2039 167 q 2034 212 2031 193 q 2056 229 2038 231 q 2069 219 2065 228 q 2076 201 2074 211 q 2078 179 2078 190 q 2079 160 2079 168 l 2135 163 q 2128 229 2135 196 q 2089 276 2121 263 q 2050 283 2069 285 q 2015 274 2031 282 q 1988 249 1999 265 q 1976 213 1978 233 q 1977 169 1974 192 q 1993 131 1981 147 q 2006 113 1997 119 q 2024 96 2015 106 q 2060 55 2040 76 q 2079 6 2079 33 q 2077 -15 2079 -6 q 2065 -25 2075 -24 q 2051 -24 2057 -28 q 2043 -12 2046 -19 q 2033 19 2035 3 q 2031 51 2032 35 l 1975 47 q 1977 3 1975 24 q 1989 -39 1979 -18 q 2024 -75 2000 -64 q 2075 -81 2049 -86 q 2119 -54 2103 -75 q 2138 -10 2135 -33 q 2096 108 2146 57 m 804 108 l 775 140 q 756 158 765 150 q 743 182 747 167 q 742 212 739 193 q 764 229 746 231 q 778 219 774 228 q 784 201 782 211 q 787 179 786 190 q 788 160 788 168 l 843 163 q 836 229 843 196 q 797 276 829 263 q 758 283 778 285 q 723 274 739 282 q 697 249 707 265 q 685 213 686 233 q 685 169 682 192 q 701 131 689 147 q 715 113 706 119 q 732 96 724 106 q 768 55 749 76 q 788 6 788 33 q 785 -15 788 -6 q 774 -25 783 -24 q 760 -24 765 -28 q 751 -12 754 -19 q 742 19 743 3 q 739 51 740 35 l 683 47 q 685 3 683 24 q 697 -39 688 -18 q 733 -75 708 -64 q 783 -81 757 -86 q 827 -54 811 -75 q 846 -10 843 -33 q 804 108 854 57 m 1440 279 l 1375 -78 l 1435 -78 l 1449 7 l 1488 7 l 1499 -78 l 1558 -78 l 1496 279 l 1440 279 m 1582 208 l 1582 -7 q 1604 -60 1582 -40 q 1654 -82 1626 -79 q 1697 -75 1678 -85 q 1736 -28 1729 -61 q 1743 39 1743 6 l 1688 42 q 1687 22 1688 33 q 1684 1 1686 11 q 1678 -18 1682 -10 q 1664 -28 1674 -26 q 1642 -4 1642 -31 l 1642 206 q 1664 229 1642 232 q 1678 219 1674 228 q 1684 201 1682 211 q 1687 179 1686 190 q 1688 160 1688 168 l 1743 163 q 1736 229 1743 196 q 1697 276 1729 263 q 1654 283 1678 286 q 1604 261 1626 281 q 1582 208 1582 242 m 574 982 l 574 1308 l 642 1308 q 688 1303 667 1308 q 722 1272 710 1297 q 733 1241 729 1258 q 735 1207 736 1224 q 726 1175 733 1190 q 707 1150 719 1160 q 664 1135 689 1135 q 618 1135 639 1135 l 618 982 l 574 982 m 1457 613 l 1457 936 l 1488 936 l 1579 719 l 1579 936 l 1619 936 l 1619 613 l 1589 613 l 1494 833 l 1494 613 l 1457 613 m 1543 982 l 1543 1308 l 1574 1308 l 1664 1092 l 1664 1308 l 1703 1308 l 1703 982 l 1674 982 l 1579 1203 l 1579 982 l 1543 982 m 1736 982 l 1804 1308 l 1849 1308 l 1917 982 l 1875 982 l 1858 1063 l 1793 1063 l 1778 982 l 1736 982 m 697 614 q 633 613 668 603 q 586 657 599 622 q 578 692 579 674 q 576 735 576 711 l 576 936 l 619 936 l 619 719 q 622 678 619 701 q 646 643 625 654 q 676 643 664 638 q 694 660 688 649 q 703 685 700 671 q 706 714 706 700 q 706 766 707 742 q 706 818 706 790 l 706 936 l 751 936 l 751 788 q 752 740 751 767 q 749 689 753 714 q 734 643 746 664 q 697 614 722 622 m 2265 -78 l 2265 217 l 2315 217 l 2315 279 l 2154 279 l 2154 217 l 2206 217 l 2206 -78 l 2265 -78 m 1229 -78 l 1367 -78 l 1367 -15 l 1289 -15 l 1289 279 l 1229 279 l 1229 -78 m 1213 979 q 1149 1006 1172 979 q 1125 1072 1126 1033 l 1167 1083 q 1172 1052 1169 1068 q 1185 1026 1175 1036 q 1211 1014 1196 1015 q 1238 1022 1226 1013 q 1249 1053 1250 1033 q 1239 1088 1249 1072 q 1203 1122 1231 1101 q 1170 1151 1188 1136 q 1142 1182 1153 1165 q 1128 1219 1131 1199 q 1129 1256 1125 1239 q 1145 1288 1133 1274 q 1176 1307 1157 1301 q 1217 1309 1194 1311 q 1254 1296 1239 1307 q 1276 1265 1271 1285 q 1283 1226 1282 1246 l 1249 1215 q 1240 1251 1246 1232 q 1213 1276 1233 1271 q 1185 1270 1197 1278 q 1169 1249 1172 1263 q 1171 1223 1167 1235 q 1183 1201 1175 1211 q 1202 1183 1192 1192 q 1222 1168 1213 1175 q 1263 1128 1243 1149 q 1289 1081 1282 1108 q 1275 1010 1296 1040 q 1213 979 1254 979 m 874 610 q 811 636 832 610 q 788 703 790 663 l 831 714 q 834 683 832 699 q 846 657 836 668 q 872 643 857 644 q 899 653 888 642 q 911 683 913 664 q 900 715 910 703 q 884 735 893 725 q 864 751 875 744 q 831 781 849 767 q 801 814 813 796 q 789 848 792 829 q 791 885 786 867 q 807 917 796 903 q 838 936 818 931 q 878 939 856 940 q 917 926 900 938 q 938 895 932 915 q 944 856 943 875 l 910 843 q 901 881 907 863 q 874 904 894 900 q 847 899 858 907 q 832 875 835 892 q 832 851 828 863 q 844 831 836 840 q 863 813 853 821 q 882 797 874 806 q 923 758 904 778 q 947 708 942 739 q 935 640 957 671 q 874 610 914 610 m 1060 -122 l 1111 -122 l 1213 325 l 1156 325 l 1060 -122 m 986 613 l 986 936 l 1113 936 l 1113 901 l 1032 901 l 1032 796 l 1097 796 l 1097 763 l 1032 763 l 1032 642 l 1113 642 l 1113 613 l 986 613 m 767 982 l 767 1308 l 892 1308 l 892 1274 l 811 1274 l 811 1168 l 876 1168 l 876 1135 l 811 1135 l 811 1014 l 893 1014 l 893 982 l 767 982 m 1301 647 q 1324 642 1311 642 q 1343 647 1336 642 q 1360 666 1356 654 q 1368 690 1365 678 q 1369 707 1369 697 q 1368 724 1368 717 l 1368 839 q 1367 867 1368 853 q 1354 893 1365 882 q 1314 904 1336 911 q 1282 874 1292 899 q 1279 822 1278 850 q 1281 771 1281 794 l 1281 713 q 1283 676 1281 696 q 1301 647 1285 657 m 1876 613 l 1876 679 q 1878 704 1876 692 q 1876 728 1879 717 q 1867 760 1874 746 q 1854 790 1861 775 l 1808 936 l 1850 936 l 1899 781 l 1946 936 l 1990 936 q 1968 869 1979 903 q 1946 801 1957 836 l 1924 735 q 1920 713 1919 724 q 1921 693 1921 701 l 1921 613 l 1876 613 m 1390 1017 q 1431 1017 1408 1010 q 1448 1035 1444 1024 q 1453 1058 1451 1047 l 1453 1210 q 1451 1238 1453 1224 q 1439 1263 1450 1253 q 1422 1275 1432 1274 q 1400 1274 1411 1276 q 1369 1246 1376 1272 q 1365 1194 1363 1222 q 1368 1142 1368 1165 l 1368 1082 q 1369 1046 1368 1065 q 1390 1017 1371 1026 m 1951 982 l 1951 1308 l 1996 1308 l 1996 1014 l 2079 1014 l 2079 982 l 1951 982 m 1669 613 l 1669 936 l 1714 936 l 1714 642 l 1796 642 l 1796 613 l 1669 613 m 617 -539 q 586 -530 596 -539 q 573 -508 576 -521 q 569 -478 569 -494 q 569 -450 569 -462 q 570 -419 569 -435 q 576 -393 571 -404 q 591 -376 581 -382 q 621 -371 601 -369 q 647 -381 638 -372 q 659 -401 656 -389 q 663 -428 663 -414 q 663 -456 663 -443 q 663 -483 663 -468 q 658 -510 663 -497 q 644 -531 654 -522 q 617 -539 635 -539 m 757 -333 q 728 -324 738 -333 q 715 -301 718 -315 q 711 -272 711 -287 q 711 -242 711 -256 q 712 -213 711 -228 q 717 -187 713 -199 q 732 -169 722 -176 q 761 -164 742 -162 q 786 -174 778 -165 q 799 -194 794 -182 q 803 -222 803 -207 q 803 -249 803 -236 q 802 -276 803 -261 q 797 -304 801 -292 q 784 -325 793 -317 q 757 -333 775 -333 m 2014 -539 q 1985 -530 1994 -539 q 1972 -508 1975 -521 q 1968 -478 1968 -494 q 1968 -450 1968 -462 q 1969 -419 1968 -435 q 1974 -393 1969 -404 q 1990 -376 1979 -382 q 2019 -371 2000 -369 q 2045 -381 2038 -372 q 2056 -401 2053 -389 q 2058 -428 2058 -414 q 2057 -456 2057 -443 q 2057 -483 2057 -468 q 2053 -510 2057 -497 q 2041 -531 2050 -522 q 2014 -539 2032 -539 m 1917 -331 l 1917 -165 q 1953 -165 1932 -165 q 1989 -176 1974 -164 q 2003 -210 2004 -189 q 2001 -249 2001 -232 q 2002 -288 2001 -265 q 1983 -322 2003 -311 q 1951 -332 1971 -333 q 1917 -331 1932 -331 m 1886 50 q 1887 22 1886 35 q 1885 -3 1888 8 q 1865 -25 1883 -19 q 1849 -22 1857 -26 q 1838 -11 1842 -18 q 1834 24 1833 4 q 1835 60 1835 44 l 1835 143 q 1834 178 1835 158 q 1838 214 1833 199 q 1849 225 1842 221 q 1865 228 1857 229 q 1885 206 1883 222 q 1887 181 1888 194 q 1886 153 1886 168 l 1886 50 m 683 -537 l 686 -372 l 711 -372 l 740 -504 l 768 -372 l 790 -372 l 793 -537 l 775 -537 l 774 -415 l 746 -537 l 731 -537 l 704 -415 l 703 -537 l 683 -537 m 1036 -537 l 1036 -372 q 1069 -371 1053 -372 q 1100 -376 1086 -369 q 1115 -393 1110 -382 q 1119 -417 1119 -404 q 1114 -440 1119 -429 q 1099 -454 1108 -450 l 1122 -537 l 1100 -537 l 1081 -458 l 1063 -458 l 1063 -537 l 1036 -537 m 818 -537 l 821 -372 l 844 -372 l 874 -504 l 903 -372 l 926 -372 l 928 -537 l 913 -537 l 910 -415 l 881 -537 l 865 -537 l 840 -415 l 838 -537 l 818 -537 m 825 -331 l 825 -165 q 856 -164 840 -165 q 886 -169 872 -162 q 901 -187 896 -175 q 908 -211 907 -199 q 903 -234 908 -224 q 886 -249 899 -244 l 911 -331 l 888 -331 l 864 -254 l 847 -254 l 847 -331 l 825 -331 m 1717 -537 l 1717 -372 q 1749 -371 1732 -372 q 1781 -376 1765 -369 q 1794 -393 1789 -382 q 1800 -417 1800 -404 q 1795 -440 1800 -429 q 1781 -454 1790 -450 l 1801 -537 l 1781 -537 l 1760 -458 l 1740 -458 l 1740 -537 l 1717 -537 m 842 365 l 842 533 q 883 533 858 533 q 919 517 908 533 q 924 482 925 501 q 911 453 922 463 q 888 444 900 444 q 864 443 876 443 l 864 365 l 842 365 m 1061 -331 l 1061 -165 l 1082 -165 l 1082 -237 l 1125 -237 l 1125 -165 l 1150 -165 l 1150 -331 l 1125 -331 l 1125 -254 l 1082 -254 l 1082 -331 l 1061 -331 m 1808 -331 l 1808 -165 l 1822 -165 l 1871 -275 l 1871 -165 l 1889 -165 l 1889 -331 l 1875 -331 l 1828 -219 l 1828 -331 l 1808 -331 m 1096 365 l 1132 533 l 1154 533 l 1190 365 l 1165 365 l 1158 410 l 1124 410 l 1117 365 l 1096 365 m 2085 -537 l 2085 -372 l 2099 -372 l 2147 -482 l 2147 -372 l 2165 -372 l 2165 -537 l 2150 -537 l 2101 -424 l 2101 -537 l 2085 -537 m 1700 -331 l 1732 -165 l 1757 -165 l 1792 -331 l 1769 -331 l 1761 -289 l 1728 -289 l 1718 -331 l 1700 -331 m 1292 -537 l 1326 -372 l 1350 -372 l 1385 -537 l 1364 -537 l 1357 -494 l 1321 -494 l 1314 -537 l 1292 -537 m 2028 682 l 2015 936 l 2057 936 l 2043 682 l 2028 682 m 618 1168 q 640 1167 629 1168 q 665 1169 651 1167 q 687 1187 682 1174 q 692 1215 692 1200 q 689 1250 693 1233 q 665 1272 685 1267 q 640 1274 651 1275 q 618 1274 629 1274 l 618 1168 m 1449 -331 q 1408 -327 1425 -337 q 1385 -293 1390 -317 q 1383 -272 1382 -282 q 1385 -254 1385 -262 l 1385 -165 l 1406 -165 l 1406 -239 q 1405 -259 1406 -246 q 1406 -285 1404 -272 q 1412 -307 1407 -297 q 1428 -317 1417 -317 q 1444 -307 1439 -317 q 1452 -285 1450 -297 q 1453 -259 1454 -272 q 1453 -239 1453 -246 l 1453 -165 l 1472 -165 l 1472 -240 q 1473 -265 1472 -251 q 1472 -291 1474 -278 q 1466 -315 1471 -304 q 1449 -331 1461 -326 m 508 -539 q 478 -526 488 -539 q 465 -497 468 -514 q 463 -459 463 -479 q 464 -424 464 -439 q 476 -385 464 -401 q 515 -371 488 -368 q 546 -391 540 -374 q 551 -428 551 -408 l 529 -428 q 530 -413 529 -421 q 526 -399 531 -406 q 511 -386 524 -387 q 493 -396 499 -385 q 487 -424 485 -404 q 489 -456 489 -443 q 487 -483 489 -465 q 494 -512 485 -501 q 511 -520 499 -522 q 526 -507 524 -518 q 530 -492 531 -500 q 529 -476 529 -483 l 551 -476 q 544 -518 551 -497 q 508 -539 538 -539 m 1185 -539 q 1153 -526 1163 -539 q 1142 -497 1144 -514 q 1142 -459 1140 -479 q 1143 -424 1143 -439 q 1153 -385 1143 -401 q 1192 -371 1164 -368 q 1224 -391 1218 -374 q 1229 -428 1229 -408 l 1204 -428 q 1206 -413 1204 -421 q 1203 -399 1207 -406 q 1188 -386 1200 -387 q 1169 -396 1176 -385 q 1163 -424 1161 -404 q 1164 -456 1164 -443 q 1163 -483 1164 -465 q 1171 -512 1161 -501 q 1188 -520 1176 -522 q 1203 -507 1200 -518 q 1206 -492 1207 -500 q 1204 -476 1204 -483 l 1229 -476 q 1222 -518 1229 -497 q 1185 -539 1215 -539 m 1625 364 q 1593 378 1603 364 q 1582 413 1583 392 l 1604 419 q 1608 400 1604 411 q 1619 383 1611 389 q 1637 387 1631 381 q 1643 403 1643 393 q 1630 433 1644 419 q 1604 457 1615 446 q 1583 490 1589 469 q 1594 528 1576 511 q 1640 532 1618 539 q 1656 515 1651 526 q 1663 492 1661 503 l 1643 488 q 1640 503 1642 494 q 1631 518 1638 511 q 1616 518 1624 521 q 1607 504 1608 515 q 1610 482 1599 493 q 1629 463 1621 471 q 1649 444 1639 454 q 1663 418 1660 433 q 1659 381 1669 399 q 1625 364 1649 364 m 1864 -539 q 1831 -524 1842 -539 q 1818 -490 1821 -510 l 1840 -485 q 1843 -503 1840 -493 q 1854 -517 1846 -514 q 1874 -517 1867 -524 q 1881 -501 1881 -511 q 1866 -472 1881 -485 q 1840 -450 1851 -458 q 1819 -413 1825 -435 q 1833 -378 1814 -392 q 1856 -369 1843 -371 q 1878 -374 1869 -368 q 1894 -388 1889 -376 q 1900 -411 1899 -400 l 1881 -418 q 1878 -401 1879 -410 q 1869 -386 1876 -393 q 1842 -399 1847 -381 q 1847 -421 1836 -411 q 1867 -439 1857 -431 q 1887 -460 1876 -450 q 1900 -486 1897 -471 q 1896 -522 1907 -506 q 1864 -539 1885 -539 m 1244 364 q 1213 378 1225 364 q 1200 413 1201 392 l 1222 419 q 1225 400 1222 411 q 1236 383 1228 389 q 1255 387 1247 381 q 1263 403 1263 393 q 1248 433 1263 419 q 1222 457 1233 446 q 1201 490 1207 469 q 1214 528 1196 511 q 1236 534 1224 533 q 1258 532 1249 535 q 1276 515 1271 526 q 1282 492 1281 503 l 1263 488 q 1259 503 1261 494 q 1250 518 1257 511 q 1234 518 1242 521 q 1224 504 1226 515 q 1229 482 1219 493 q 1246 463 1239 471 q 1268 444 1257 454 q 1282 418 1279 433 q 1278 381 1289 399 q 1244 364 1267 364 m 975 1168 q 997 1168 985 1168 q 1021 1171 1010 1168 q 1041 1192 1036 1178 q 1043 1225 1046 1207 q 1040 1251 1043 1240 q 1021 1269 1036 1263 q 997 1274 1010 1275 q 975 1274 985 1274 l 975 1168 m 1461 365 l 1424 533 l 1449 533 l 1472 411 l 1499 533 l 1517 533 l 1482 365 l 1461 365 m 1560 -537 l 1522 -372 l 1543 -372 l 1571 -493 l 1593 -372 l 1617 -372 l 1578 -537 l 1560 -537 m 1301 365 l 1301 533 l 1368 533 l 1368 518 l 1325 518 l 1325 461 l 1360 461 l 1360 444 l 1325 444 l 1325 382 l 1369 382 l 1369 365 l 1301 365 m 1633 -537 l 1633 -372 l 1700 -372 l 1700 -386 l 1657 -386 l 1657 -440 l 1692 -440 l 1692 -458 l 1657 -458 l 1657 -521 l 1700 -521 l 1700 -537 l 1633 -537 m 954 -537 l 954 -372 l 1019 -372 l 1019 -386 l 978 -386 l 978 -440 l 1013 -440 l 1013 -458 l 978 -458 l 978 -521 l 1019 -521 l 1019 -537 l 954 -537 m 1175 -331 l 1175 -165 l 1239 -165 l 1239 -182 l 1199 -182 l 1199 -237 l 1233 -237 l 1233 -254 l 1199 -254 l 1199 -317 l 1239 -317 l 1239 -331 l 1175 -331 m 746 -314 q 766 -315 760 -321 q 775 -299 772 -310 q 778 -276 778 -289 q 778 -256 778 -264 q 778 -239 778 -250 q 779 -217 779 -228 q 776 -197 779 -206 q 768 -183 774 -187 q 743 -186 753 -175 q 733 -211 733 -197 l 733 -237 q 733 -255 733 -243 q 732 -278 732 -267 q 735 -301 732 -290 q 746 -314 738 -311 m 1021 365 l 1021 533 l 1085 533 l 1085 518 l 1042 518 l 1042 461 l 1078 461 l 1078 444 l 1042 444 l 1042 382 l 1085 382 l 1085 365 l 1021 365 m 2003 -515 q 2024 -519 2017 -524 q 2034 -504 2031 -514 q 2038 -482 2038 -494 q 2038 -461 2038 -469 q 2038 -444 2038 -456 q 2038 -423 2039 -433 q 2033 -403 2036 -412 q 2025 -392 2031 -394 q 2001 -392 2008 -381 q 1994 -415 1994 -403 l 1994 -440 q 1993 -458 1994 -447 q 1992 -482 1992 -469 q 1994 -504 1992 -494 q 2003 -515 1996 -514 m 604 -515 q 625 -519 618 -524 q 635 -504 632 -514 q 638 -482 638 -494 q 638 -461 638 -469 q 638 -444 638 -456 q 638 -423 639 -433 q 635 -403 638 -412 q 628 -392 633 -394 q 602 -392 610 -381 q 594 -415 594 -403 q 594 -428 593 -422 q 594 -440 594 -435 q 594 -458 594 -447 q 593 -482 593 -469 q 595 -504 593 -494 q 604 -515 597 -514 m 633 -331 l 633 -165 l 697 -165 l 697 -182 l 658 -182 l 658 -237 l 689 -237 l 689 -254 l 658 -254 l 658 -331 l 633 -331 m 1939 -317 q 1965 -314 1954 -317 q 1978 -293 1975 -311 l 1978 -206 q 1965 -185 1976 -187 q 1939 -182 1954 -182 l 1939 -317 m 996 -331 l 996 -182 l 965 -182 l 965 -165 l 1050 -165 l 1050 -182 l 1019 -182 l 1019 -331 l 996 -331 m 1578 -331 l 1578 -165 l 1601 -165 l 1601 -317 l 1643 -317 l 1643 -331 l 1578 -331 m 1754 365 l 1754 518 l 1722 518 l 1722 533 l 1803 533 l 1803 518 l 1775 518 l 1775 365 l 1754 365 m 1308 -331 l 1308 -165 l 1371 -165 l 1371 -182 l 1326 -182 l 1326 -237 l 1360 -237 l 1360 -254 l 1326 -254 l 1326 -331 l 1308 -331 m 1499 -331 l 1499 -165 l 1521 -165 l 1521 -317 l 1563 -317 l 1563 -331 l 1499 -331 m 940 365 l 940 533 l 961 533 l 961 382 l 1004 382 l 1004 365 l 940 365 m 1683 365 l 1683 533 l 1708 533 l 1708 365 l 1683 365 m 1403 -537 l 1403 -372 l 1424 -372 l 1424 -521 l 1468 -521 l 1468 -537 l 1403 -537 m 1799 1096 l 1854 1096 l 1826 1244 l 1799 1096 m 599 -78 l 658 -78 l 658 -11 l 599 -11 l 599 -78 m 1251 -537 l 1251 -372 l 1275 -372 l 1275 -537 l 1251 -537 m 1538 365 l 1538 533 l 1560 533 l 1560 365 l 1538 365 m 1922 -537 l 1922 -372 l 1943 -372 l 1943 -537 l 1922 -537 m 864 460 q 876 460 869 460 q 890 463 883 460 q 900 475 899 467 q 901 493 901 483 q 890 515 900 513 q 864 518 879 518 l 864 460 m 2015 613 l 2015 658 l 2057 658 l 2057 613 l 2015 613 m 847 -237 q 874 -233 863 -237 q 885 -208 885 -228 q 874 -185 885 -189 q 847 -182 863 -182 l 847 -237 m 1740 -440 q 1767 -437 1756 -440 q 1778 -414 1778 -433 q 1767 -392 1778 -397 q 1740 -386 1756 -386 l 1740 -440 m 1063 -440 q 1088 -437 1078 -440 q 1097 -414 1097 -433 q 1088 -392 1097 -397 q 1063 -386 1078 -386 l 1063 -440 m 1125 425 l 1156 425 l 1143 501 l 1125 425 m 1324 -479 l 1353 -479 l 1339 -403 l 1324 -479 m 1731 -272 l 1760 -272 l 1744 -197 l 1731 -272 m 1457 60 l 1468 131 l 1478 60 l 1457 60 m 2375 279 l 2310 -78 l 2369 -78 l 2383 7 l 2422 7 l 2433 -78 l 2493 -78 l 2431 279 l 2375 279 m 2392 60 l 2403 131 l 2413 60 l 2392 60 z "},"7":{"ha":2606,"x_min":142,"x_max":2493,"o":"m 288 279 l 246 56 l 206 279 l 147 279 l 142 -78 l 197 -78 l 199 68 l 226 -78 l 268 -78 l 297 69 l 300 -78 l 351 -78 l 349 279 l 288 279 m 1946 153 q 1942 217 1946 183 q 1907 271 1938 251 q 1868 283 1890 282 q 1826 278 1846 283 q 1791 249 1803 269 q 1775 204 1779 228 q 1774 177 1774 190 q 1774 150 1774 164 l 1774 53 q 1774 26 1774 39 q 1775 -1 1774 13 q 1791 -46 1779 -25 q 1826 -75 1803 -67 q 1868 -80 1846 -81 q 1907 -68 1890 -79 q 1942 -15 1938 -49 q 1946 50 1946 19 l 1946 153 m 1408 979 q 1322 1051 1335 979 q 1319 1082 1319 1067 q 1319 1113 1319 1097 q 1318 1184 1319 1146 q 1325 1254 1317 1222 q 1355 1295 1333 1282 q 1403 1310 1376 1308 q 1455 1300 1431 1311 q 1489 1261 1479 1289 q 1499 1192 1500 1231 q 1499 1121 1499 1154 q 1498 1083 1499 1101 q 1493 1046 1497 1064 q 1408 979 1478 979 m 1324 610 q 1267 627 1289 610 q 1238 678 1244 644 q 1235 710 1235 694 q 1236 744 1236 726 q 1235 813 1236 776 q 1240 882 1233 850 q 1269 924 1249 911 q 1318 938 1290 938 q 1371 929 1347 939 q 1404 892 1394 919 q 1414 822 1417 860 q 1411 751 1411 783 q 1412 712 1411 729 q 1408 675 1413 694 q 1324 610 1396 610 m 504 108 l 443 279 l 397 279 l 397 -78 l 453 -78 l 453 97 l 515 -78 l 560 -78 l 560 279 l 504 279 l 504 108 m 954 56 l 990 56 q 990 33 990 49 q 988 2 990 17 q 977 -22 985 -12 q 954 -25 969 -31 q 940 -12 944 -22 q 935 9 936 -3 q 934 33 933 21 q 935 51 935 44 l 935 136 q 934 174 935 153 q 938 214 933 196 q 949 226 942 221 q 965 229 957 231 q 985 207 983 224 q 987 181 988 194 q 986 153 986 168 l 1046 153 q 1042 218 1046 183 q 1007 272 1038 253 q 968 284 990 283 q 926 278 946 285 q 891 250 903 271 q 875 206 879 229 q 873 154 872 181 q 874 101 874 128 q 873 52 874 76 q 875 3 872 28 q 885 -40 878 -18 q 913 -71 893 -61 q 957 -83 931 -83 q 999 -67 983 -82 l 1000 -78 l 1047 -78 l 1047 108 l 954 108 l 954 56 m 928 982 l 928 1308 q 994 1309 960 1308 q 1056 1294 1028 1310 q 1082 1262 1072 1283 q 1092 1217 1092 1240 q 1082 1173 1092 1193 q 1053 1146 1072 1153 l 1096 982 l 1053 982 l 1010 1136 l 975 1136 l 975 982 l 928 982 m 2096 108 l 2067 140 q 2048 158 2057 150 q 2035 182 2039 167 q 2034 212 2031 193 q 2056 229 2038 231 q 2069 219 2065 228 q 2076 201 2074 211 q 2078 179 2078 190 q 2079 160 2079 168 l 2135 163 q 2128 229 2135 196 q 2089 276 2121 263 q 2050 283 2069 285 q 2015 274 2031 282 q 1988 249 1999 265 q 1976 213 1978 233 q 1977 169 1974 192 q 1993 131 1981 147 q 2006 113 1997 119 q 2024 96 2015 106 q 2060 55 2040 76 q 2079 6 2079 33 q 2077 -15 2079 -6 q 2065 -25 2075 -24 q 2051 -24 2057 -28 q 2043 -12 2046 -19 q 2033 19 2035 3 q 2031 51 2032 35 l 1975 47 q 1977 3 1975 24 q 1989 -39 1979 -18 q 2024 -75 2000 -64 q 2075 -81 2049 -86 q 2119 -54 2103 -75 q 2138 -10 2135 -33 q 2096 108 2146 57 m 804 108 l 775 140 q 756 158 765 150 q 743 182 747 167 q 742 212 739 193 q 764 229 746 231 q 778 219 774 228 q 784 201 782 211 q 787 179 786 190 q 788 160 788 168 l 843 163 q 836 229 843 196 q 797 276 829 263 q 758 283 778 285 q 723 274 739 282 q 697 249 707 265 q 685 213 686 233 q 685 169 682 192 q 701 131 689 147 q 715 113 706 119 q 732 96 724 106 q 768 55 749 76 q 788 6 788 33 q 785 -15 788 -6 q 774 -25 783 -24 q 760 -24 765 -28 q 751 -12 754 -19 q 742 19 743 3 q 739 51 740 35 l 683 47 q 685 3 683 24 q 697 -39 688 -18 q 733 -75 708 -64 q 783 -81 757 -86 q 827 -54 811 -75 q 846 -10 843 -33 q 804 108 854 57 m 1440 279 l 1375 -78 l 1435 -78 l 1449 7 l 1488 7 l 1499 -78 l 1558 -78 l 1496 279 l 1440 279 m 1582 208 l 1582 -7 q 1604 -60 1582 -40 q 1654 -82 1626 -79 q 1697 -75 1678 -85 q 1736 -28 1729 -61 q 1743 39 1743 6 l 1688 42 q 1687 22 1688 33 q 1684 1 1686 11 q 1678 -18 1682 -10 q 1664 -28 1674 -26 q 1642 -4 1642 -31 l 1642 206 q 1664 229 1642 232 q 1678 219 1674 228 q 1684 201 1682 211 q 1687 179 1686 190 q 1688 160 1688 168 l 1743 163 q 1736 229 1743 196 q 1697 276 1729 263 q 1654 283 1678 286 q 1604 261 1626 281 q 1582 208 1582 242 m 574 982 l 574 1308 l 642 1308 q 688 1303 667 1308 q 722 1272 710 1297 q 733 1241 729 1258 q 735 1207 736 1224 q 726 1175 733 1190 q 707 1150 719 1160 q 664 1135 689 1135 q 618 1135 639 1135 l 618 982 l 574 982 m 1457 613 l 1457 936 l 1488 936 l 1579 719 l 1579 936 l 1619 936 l 1619 613 l 1589 613 l 1494 833 l 1494 613 l 1457 613 m 1543 982 l 1543 1308 l 1574 1308 l 1664 1092 l 1664 1308 l 1703 1308 l 1703 982 l 1674 982 l 1579 1203 l 1579 982 l 1543 982 m 1736 982 l 1804 1308 l 1849 1308 l 1917 982 l 1875 982 l 1858 1063 l 1793 1063 l 1778 982 l 1736 982 m 697 614 q 633 613 668 603 q 586 657 599 622 q 578 692 579 674 q 576 735 576 711 l 576 936 l 619 936 l 619 719 q 622 678 619 701 q 646 643 625 654 q 676 643 664 638 q 694 660 688 649 q 703 685 700 671 q 706 714 706 700 q 706 766 707 742 q 706 818 706 790 l 706 936 l 751 936 l 751 788 q 752 740 751 767 q 749 689 753 714 q 734 643 746 664 q 697 614 722 622 m 2265 -78 l 2265 217 l 2315 217 l 2315 279 l 2154 279 l 2154 217 l 2206 217 l 2206 -78 l 2265 -78 m 1229 -78 l 1367 -78 l 1367 -15 l 1289 -15 l 1289 279 l 1229 279 l 1229 -78 m 1213 979 q 1149 1006 1172 979 q 1125 1072 1126 1033 l 1167 1083 q 1172 1052 1169 1068 q 1185 1026 1175 1036 q 1211 1014 1196 1015 q 1238 1022 1226 1013 q 1249 1053 1250 1033 q 1239 1088 1249 1072 q 1203 1122 1231 1101 q 1170 1151 1188 1136 q 1142 1182 1153 1165 q 1128 1219 1131 1199 q 1129 1256 1125 1239 q 1145 1288 1133 1274 q 1176 1307 1157 1301 q 1217 1309 1194 1311 q 1254 1296 1239 1307 q 1276 1265 1271 1285 q 1283 1226 1282 1246 l 1249 1215 q 1240 1251 1246 1232 q 1213 1276 1233 1271 q 1185 1270 1197 1278 q 1169 1249 1172 1263 q 1171 1223 1167 1235 q 1183 1201 1175 1211 q 1202 1183 1192 1192 q 1222 1168 1213 1175 q 1263 1128 1243 1149 q 1289 1081 1282 1108 q 1275 1010 1296 1040 q 1213 979 1254 979 m 874 610 q 811 636 832 610 q 788 703 790 663 l 831 714 q 834 683 832 699 q 846 657 836 668 q 872 643 857 644 q 899 653 888 642 q 911 683 913 664 q 900 715 910 703 q 884 735 893 725 q 864 751 875 744 q 831 781 849 767 q 801 814 813 796 q 789 848 792 829 q 791 885 786 867 q 807 917 796 903 q 838 936 818 931 q 878 939 856 940 q 917 926 900 938 q 938 895 932 915 q 944 856 943 875 l 910 843 q 901 881 907 863 q 874 904 894 900 q 847 899 858 907 q 832 875 835 892 q 832 851 828 863 q 844 831 836 840 q 863 813 853 821 q 882 797 874 806 q 923 758 904 778 q 947 708 942 739 q 935 640 957 671 q 874 610 914 610 m 1060 -122 l 1111 -122 l 1213 325 l 1156 325 l 1060 -122 m 986 613 l 986 936 l 1113 936 l 1113 901 l 1032 901 l 1032 796 l 1097 796 l 1097 763 l 1032 763 l 1032 642 l 1113 642 l 1113 613 l 986 613 m 767 982 l 767 1308 l 892 1308 l 892 1274 l 811 1274 l 811 1168 l 876 1168 l 876 1135 l 811 1135 l 811 1014 l 893 1014 l 893 982 l 767 982 m 1301 647 q 1324 642 1311 642 q 1343 647 1336 642 q 1360 666 1356 654 q 1368 690 1365 678 q 1369 707 1369 697 q 1368 724 1368 717 l 1368 839 q 1367 867 1368 853 q 1354 893 1365 882 q 1314 904 1336 911 q 1282 874 1292 899 q 1279 822 1278 850 q 1281 771 1281 794 l 1281 713 q 1283 676 1281 696 q 1301 647 1285 657 m 1876 613 l 1876 679 q 1878 704 1876 692 q 1876 728 1879 717 q 1867 760 1874 746 q 1854 790 1861 775 l 1808 936 l 1850 936 l 1899 781 l 1946 936 l 1990 936 q 1968 869 1979 903 q 1946 801 1957 836 l 1924 735 q 1920 713 1919 724 q 1921 693 1921 701 l 1921 613 l 1876 613 m 1390 1017 q 1431 1017 1408 1010 q 1448 1035 1444 1024 q 1453 1058 1451 1047 l 1453 1210 q 1451 1238 1453 1224 q 1439 1263 1450 1253 q 1422 1275 1432 1274 q 1400 1274 1411 1276 q 1369 1246 1376 1272 q 1365 1194 1363 1222 q 1368 1142 1368 1165 l 1368 1082 q 1369 1046 1368 1065 q 1390 1017 1371 1026 m 1951 982 l 1951 1308 l 1996 1308 l 1996 1014 l 2079 1014 l 2079 982 l 1951 982 m 1669 613 l 1669 936 l 1714 936 l 1714 642 l 1796 642 l 1796 613 l 1669 613 m 617 -539 q 586 -530 596 -539 q 573 -508 576 -521 q 569 -478 569 -494 q 569 -450 569 -462 q 570 -419 569 -435 q 576 -393 571 -404 q 591 -376 581 -382 q 621 -371 601 -369 q 647 -381 638 -372 q 659 -401 656 -389 q 663 -428 663 -414 q 663 -456 663 -443 q 663 -483 663 -468 q 658 -510 663 -497 q 644 -531 654 -522 q 617 -539 635 -539 m 757 -333 q 728 -324 738 -333 q 715 -301 718 -315 q 711 -272 711 -287 q 711 -242 711 -256 q 712 -213 711 -228 q 717 -187 713 -199 q 732 -169 722 -176 q 761 -164 742 -162 q 786 -174 778 -165 q 799 -194 794 -182 q 803 -222 803 -207 q 803 -249 803 -236 q 802 -276 803 -261 q 797 -304 801 -292 q 784 -325 793 -317 q 757 -333 775 -333 m 2014 -539 q 1985 -530 1994 -539 q 1972 -508 1975 -521 q 1968 -478 1968 -494 q 1968 -450 1968 -462 q 1969 -419 1968 -435 q 1974 -393 1969 -404 q 1990 -376 1979 -382 q 2019 -371 2000 -369 q 2045 -381 2038 -372 q 2056 -401 2053 -389 q 2058 -428 2058 -414 q 2057 -456 2057 -443 q 2057 -483 2057 -468 q 2053 -510 2057 -497 q 2041 -531 2050 -522 q 2014 -539 2032 -539 m 1917 -331 l 1917 -165 q 1953 -165 1932 -165 q 1989 -176 1974 -164 q 2003 -210 2004 -189 q 2001 -249 2001 -232 q 2002 -288 2001 -265 q 1983 -322 2003 -311 q 1951 -332 1971 -333 q 1917 -331 1932 -331 m 1886 50 q 1887 22 1886 35 q 1885 -3 1888 8 q 1865 -25 1883 -19 q 1849 -22 1857 -26 q 1838 -11 1842 -18 q 1834 24 1833 4 q 1835 60 1835 44 l 1835 143 q 1834 178 1835 158 q 1838 214 1833 199 q 1849 225 1842 221 q 1865 228 1857 229 q 1885 206 1883 222 q 1887 181 1888 194 q 1886 153 1886 168 l 1886 50 m 683 -537 l 686 -372 l 711 -372 l 740 -504 l 768 -372 l 790 -372 l 793 -537 l 775 -537 l 774 -415 l 746 -537 l 731 -537 l 704 -415 l 703 -537 l 683 -537 m 1036 -537 l 1036 -372 q 1069 -371 1053 -372 q 1100 -376 1086 -369 q 1115 -393 1110 -382 q 1119 -417 1119 -404 q 1114 -440 1119 -429 q 1099 -454 1108 -450 l 1122 -537 l 1100 -537 l 1081 -458 l 1063 -458 l 1063 -537 l 1036 -537 m 818 -537 l 821 -372 l 844 -372 l 874 -504 l 903 -372 l 926 -372 l 928 -537 l 913 -537 l 910 -415 l 881 -537 l 865 -537 l 840 -415 l 838 -537 l 818 -537 m 825 -331 l 825 -165 q 856 -164 840 -165 q 886 -169 872 -162 q 901 -187 896 -175 q 908 -211 907 -199 q 903 -234 908 -224 q 886 -249 899 -244 l 911 -331 l 888 -331 l 864 -254 l 847 -254 l 847 -331 l 825 -331 m 1717 -537 l 1717 -372 q 1749 -371 1732 -372 q 1781 -376 1765 -369 q 1794 -393 1789 -382 q 1800 -417 1800 -404 q 1795 -440 1800 -429 q 1781 -454 1790 -450 l 1801 -537 l 1781 -537 l 1760 -458 l 1740 -458 l 1740 -537 l 1717 -537 m 842 365 l 842 533 q 883 533 858 533 q 919 517 908 533 q 924 482 925 501 q 911 453 922 463 q 888 444 900 444 q 864 443 876 443 l 864 365 l 842 365 m 1061 -331 l 1061 -165 l 1082 -165 l 1082 -237 l 1125 -237 l 1125 -165 l 1150 -165 l 1150 -331 l 1125 -331 l 1125 -254 l 1082 -254 l 1082 -331 l 1061 -331 m 1808 -331 l 1808 -165 l 1822 -165 l 1871 -275 l 1871 -165 l 1889 -165 l 1889 -331 l 1875 -331 l 1828 -219 l 1828 -331 l 1808 -331 m 1096 365 l 1132 533 l 1154 533 l 1190 365 l 1165 365 l 1158 410 l 1124 410 l 1117 365 l 1096 365 m 2085 -537 l 2085 -372 l 2099 -372 l 2147 -482 l 2147 -372 l 2165 -372 l 2165 -537 l 2150 -537 l 2101 -424 l 2101 -537 l 2085 -537 m 1700 -331 l 1732 -165 l 1757 -165 l 1792 -331 l 1769 -331 l 1761 -289 l 1728 -289 l 1718 -331 l 1700 -331 m 1292 -537 l 1326 -372 l 1350 -372 l 1385 -537 l 1364 -537 l 1357 -494 l 1321 -494 l 1314 -537 l 1292 -537 m 2028 682 l 2015 936 l 2057 936 l 2043 682 l 2028 682 m 618 1168 q 640 1167 629 1168 q 665 1169 651 1167 q 687 1187 682 1174 q 692 1215 692 1200 q 689 1250 693 1233 q 665 1272 685 1267 q 640 1274 651 1275 q 618 1274 629 1274 l 618 1168 m 1449 -331 q 1408 -327 1425 -337 q 1385 -293 1390 -317 q 1383 -272 1382 -282 q 1385 -254 1385 -262 l 1385 -165 l 1406 -165 l 1406 -239 q 1405 -259 1406 -246 q 1406 -285 1404 -272 q 1412 -307 1407 -297 q 1428 -317 1417 -317 q 1444 -307 1439 -317 q 1452 -285 1450 -297 q 1453 -259 1454 -272 q 1453 -239 1453 -246 l 1453 -165 l 1472 -165 l 1472 -240 q 1473 -265 1472 -251 q 1472 -291 1474 -278 q 1466 -315 1471 -304 q 1449 -331 1461 -326 m 508 -539 q 478 -526 488 -539 q 465 -497 468 -514 q 463 -459 463 -479 q 464 -424 464 -439 q 476 -385 464 -401 q 515 -371 488 -368 q 546 -391 540 -374 q 551 -428 551 -408 l 529 -428 q 530 -413 529 -421 q 526 -399 531 -406 q 511 -386 524 -387 q 493 -396 499 -385 q 487 -424 485 -404 q 489 -456 489 -443 q 487 -483 489 -465 q 494 -512 485 -501 q 511 -520 499 -522 q 526 -507 524 -518 q 530 -492 531 -500 q 529 -476 529 -483 l 551 -476 q 544 -518 551 -497 q 508 -539 538 -539 m 1185 -539 q 1153 -526 1163 -539 q 1142 -497 1144 -514 q 1142 -459 1140 -479 q 1143 -424 1143 -439 q 1153 -385 1143 -401 q 1192 -371 1164 -368 q 1224 -391 1218 -374 q 1229 -428 1229 -408 l 1204 -428 q 1206 -413 1204 -421 q 1203 -399 1207 -406 q 1188 -386 1200 -387 q 1169 -396 1176 -385 q 1163 -424 1161 -404 q 1164 -456 1164 -443 q 1163 -483 1164 -465 q 1171 -512 1161 -501 q 1188 -520 1176 -522 q 1203 -507 1200 -518 q 1206 -492 1207 -500 q 1204 -476 1204 -483 l 1229 -476 q 1222 -518 1229 -497 q 1185 -539 1215 -539 m 1625 364 q 1593 378 1603 364 q 1582 413 1583 392 l 1604 419 q 1608 400 1604 411 q 1619 383 1611 389 q 1637 387 1631 381 q 1643 403 1643 393 q 1630 433 1644 419 q 1604 457 1615 446 q 1583 490 1589 469 q 1594 528 1576 511 q 1640 532 1618 539 q 1656 515 1651 526 q 1663 492 1661 503 l 1643 488 q 1640 503 1642 494 q 1631 518 1638 511 q 1616 518 1624 521 q 1607 504 1608 515 q 1610 482 1599 493 q 1629 463 1621 471 q 1649 444 1639 454 q 1663 418 1660 433 q 1659 381 1669 399 q 1625 364 1649 364 m 1864 -539 q 1831 -524 1842 -539 q 1818 -490 1821 -510 l 1840 -485 q 1843 -503 1840 -493 q 1854 -517 1846 -514 q 1874 -517 1867 -524 q 1881 -501 1881 -511 q 1866 -472 1881 -485 q 1840 -450 1851 -458 q 1819 -413 1825 -435 q 1833 -378 1814 -392 q 1856 -369 1843 -371 q 1878 -374 1869 -368 q 1894 -388 1889 -376 q 1900 -411 1899 -400 l 1881 -418 q 1878 -401 1879 -410 q 1869 -386 1876 -393 q 1842 -399 1847 -381 q 1847 -421 1836 -411 q 1867 -439 1857 -431 q 1887 -460 1876 -450 q 1900 -486 1897 -471 q 1896 -522 1907 -506 q 1864 -539 1885 -539 m 1244 364 q 1213 378 1225 364 q 1200 413 1201 392 l 1222 419 q 1225 400 1222 411 q 1236 383 1228 389 q 1255 387 1247 381 q 1263 403 1263 393 q 1248 433 1263 419 q 1222 457 1233 446 q 1201 490 1207 469 q 1214 528 1196 511 q 1236 534 1224 533 q 1258 532 1249 535 q 1276 515 1271 526 q 1282 492 1281 503 l 1263 488 q 1259 503 1261 494 q 1250 518 1257 511 q 1234 518 1242 521 q 1224 504 1226 515 q 1229 482 1219 493 q 1246 463 1239 471 q 1268 444 1257 454 q 1282 418 1279 433 q 1278 381 1289 399 q 1244 364 1267 364 m 975 1168 q 997 1168 985 1168 q 1021 1171 1010 1168 q 1041 1192 1036 1178 q 1043 1225 1046 1207 q 1040 1251 1043 1240 q 1021 1269 1036 1263 q 997 1274 1010 1275 q 975 1274 985 1274 l 975 1168 m 1461 365 l 1424 533 l 1449 533 l 1472 411 l 1499 533 l 1517 533 l 1482 365 l 1461 365 m 1560 -537 l 1522 -372 l 1543 -372 l 1571 -493 l 1593 -372 l 1617 -372 l 1578 -537 l 1560 -537 m 1301 365 l 1301 533 l 1368 533 l 1368 518 l 1325 518 l 1325 461 l 1360 461 l 1360 444 l 1325 444 l 1325 382 l 1369 382 l 1369 365 l 1301 365 m 1633 -537 l 1633 -372 l 1700 -372 l 1700 -386 l 1657 -386 l 1657 -440 l 1692 -440 l 1692 -458 l 1657 -458 l 1657 -521 l 1700 -521 l 1700 -537 l 1633 -537 m 954 -537 l 954 -372 l 1019 -372 l 1019 -386 l 978 -386 l 978 -440 l 1013 -440 l 1013 -458 l 978 -458 l 978 -521 l 1019 -521 l 1019 -537 l 954 -537 m 1175 -331 l 1175 -165 l 1239 -165 l 1239 -182 l 1199 -182 l 1199 -237 l 1233 -237 l 1233 -254 l 1199 -254 l 1199 -317 l 1239 -317 l 1239 -331 l 1175 -331 m 746 -314 q 766 -315 760 -321 q 775 -299 772 -310 q 778 -276 778 -289 q 778 -256 778 -264 q 778 -239 778 -250 q 779 -217 779 -228 q 776 -197 779 -206 q 768 -183 774 -187 q 743 -186 753 -175 q 733 -211 733 -197 l 733 -237 q 733 -255 733 -243 q 732 -278 732 -267 q 735 -301 732 -290 q 746 -314 738 -311 m 1021 365 l 1021 533 l 1085 533 l 1085 518 l 1042 518 l 1042 461 l 1078 461 l 1078 444 l 1042 444 l 1042 382 l 1085 382 l 1085 365 l 1021 365 m 2003 -515 q 2024 -519 2017 -524 q 2034 -504 2031 -514 q 2038 -482 2038 -494 q 2038 -461 2038 -469 q 2038 -444 2038 -456 q 2038 -423 2039 -433 q 2033 -403 2036 -412 q 2025 -392 2031 -394 q 2001 -392 2008 -381 q 1994 -415 1994 -403 l 1994 -440 q 1993 -458 1994 -447 q 1992 -482 1992 -469 q 1994 -504 1992 -494 q 2003 -515 1996 -514 m 604 -515 q 625 -519 618 -524 q 635 -504 632 -514 q 638 -482 638 -494 q 638 -461 638 -469 q 638 -444 638 -456 q 638 -423 639 -433 q 635 -403 638 -412 q 628 -392 633 -394 q 602 -392 610 -381 q 594 -415 594 -403 q 594 -428 593 -422 q 594 -440 594 -435 q 594 -458 594 -447 q 593 -482 593 -469 q 595 -504 593 -494 q 604 -515 597 -514 m 633 -331 l 633 -165 l 697 -165 l 697 -182 l 658 -182 l 658 -237 l 689 -237 l 689 -254 l 658 -254 l 658 -331 l 633 -331 m 1939 -317 q 1965 -314 1954 -317 q 1978 -293 1975 -311 l 1978 -206 q 1965 -185 1976 -187 q 1939 -182 1954 -182 l 1939 -317 m 996 -331 l 996 -182 l 965 -182 l 965 -165 l 1050 -165 l 1050 -182 l 1019 -182 l 1019 -331 l 996 -331 m 1578 -331 l 1578 -165 l 1601 -165 l 1601 -317 l 1643 -317 l 1643 -331 l 1578 -331 m 1754 365 l 1754 518 l 1722 518 l 1722 533 l 1803 533 l 1803 518 l 1775 518 l 1775 365 l 1754 365 m 1308 -331 l 1308 -165 l 1371 -165 l 1371 -182 l 1326 -182 l 1326 -237 l 1360 -237 l 1360 -254 l 1326 -254 l 1326 -331 l 1308 -331 m 1499 -331 l 1499 -165 l 1521 -165 l 1521 -317 l 1563 -317 l 1563 -331 l 1499 -331 m 940 365 l 940 533 l 961 533 l 961 382 l 1004 382 l 1004 365 l 940 365 m 1683 365 l 1683 533 l 1708 533 l 1708 365 l 1683 365 m 1403 -537 l 1403 -372 l 1424 -372 l 1424 -521 l 1468 -521 l 1468 -537 l 1403 -537 m 1799 1096 l 1854 1096 l 1826 1244 l 1799 1096 m 599 -78 l 658 -78 l 658 -11 l 599 -11 l 599 -78 m 1251 -537 l 1251 -372 l 1275 -372 l 1275 -537 l 1251 -537 m 1538 365 l 1538 533 l 1560 533 l 1560 365 l 1538 365 m 1922 -537 l 1922 -372 l 1943 -372 l 1943 -537 l 1922 -537 m 864 460 q 876 460 869 460 q 890 463 883 460 q 900 475 899 467 q 901 493 901 483 q 890 515 900 513 q 864 518 879 518 l 864 460 m 2015 613 l 2015 658 l 2057 658 l 2057 613 l 2015 613 m 847 -237 q 874 -233 863 -237 q 885 -208 885 -228 q 874 -185 885 -189 q 847 -182 863 -182 l 847 -237 m 1740 -440 q 1767 -437 1756 -440 q 1778 -414 1778 -433 q 1767 -392 1778 -397 q 1740 -386 1756 -386 l 1740 -440 m 1063 -440 q 1088 -437 1078 -440 q 1097 -414 1097 -433 q 1088 -392 1097 -397 q 1063 -386 1078 -386 l 1063 -440 m 1125 425 l 1156 425 l 1143 501 l 1125 425 m 1324 -479 l 1353 -479 l 1339 -403 l 1324 -479 m 1731 -272 l 1760 -272 l 1744 -197 l 1731 -272 m 1457 60 l 1468 131 l 1478 60 l 1457 60 m 2375 279 l 2310 -78 l 2369 -78 l 2383 7 l 2422 7 l 2433 -78 l 2493 -78 l 2431 279 l 2375 279 m 2392 60 l 2403 131 l 2413 60 l 2392 60 z "},"8":{"ha":2606,"x_min":142,"x_max":2493,"o":"m 288 279 l 246 56 l 206 279 l 147 279 l 142 -78 l 197 -78 l 199 68 l 226 -78 l 268 -78 l 297 69 l 300 -78 l 351 -78 l 349 279 l 288 279 m 1946 153 q 1942 217 1946 183 q 1907 271 1938 251 q 1868 283 1890 282 q 1826 278 1846 283 q 1791 249 1803 269 q 1775 204 1779 228 q 1774 177 1774 190 q 1774 150 1774 164 l 1774 53 q 1774 26 1774 39 q 1775 -1 1774 13 q 1791 -46 1779 -25 q 1826 -75 1803 -67 q 1868 -80 1846 -81 q 1907 -68 1890 -79 q 1942 -15 1938 -49 q 1946 50 1946 19 l 1946 153 m 1408 979 q 1322 1051 1335 979 q 1319 1082 1319 1067 q 1319 1113 1319 1097 q 1318 1184 1319 1146 q 1325 1254 1317 1222 q 1355 1295 1333 1282 q 1403 1310 1376 1308 q 1455 1300 1431 1311 q 1489 1261 1479 1289 q 1499 1192 1500 1231 q 1499 1121 1499 1154 q 1498 1083 1499 1101 q 1493 1046 1497 1064 q 1408 979 1478 979 m 1324 610 q 1267 627 1289 610 q 1238 678 1244 644 q 1235 710 1235 694 q 1236 744 1236 726 q 1235 813 1236 776 q 1240 882 1233 850 q 1269 924 1249 911 q 1318 938 1290 938 q 1371 929 1347 939 q 1404 892 1394 919 q 1414 822 1417 860 q 1411 751 1411 783 q 1412 712 1411 729 q 1408 675 1413 694 q 1324 610 1396 610 m 504 108 l 443 279 l 397 279 l 397 -78 l 453 -78 l 453 97 l 515 -78 l 560 -78 l 560 279 l 504 279 l 504 108 m 954 56 l 990 56 q 990 33 990 49 q 988 2 990 17 q 977 -22 985 -12 q 954 -25 969 -31 q 940 -12 944 -22 q 935 9 936 -3 q 934 33 933 21 q 935 51 935 44 l 935 136 q 934 174 935 153 q 938 214 933 196 q 949 226 942 221 q 965 229 957 231 q 985 207 983 224 q 987 181 988 194 q 986 153 986 168 l 1046 153 q 1042 218 1046 183 q 1007 272 1038 253 q 968 284 990 283 q 926 278 946 285 q 891 250 903 271 q 875 206 879 229 q 873 154 872 181 q 874 101 874 128 q 873 52 874 76 q 875 3 872 28 q 885 -40 878 -18 q 913 -71 893 -61 q 957 -83 931 -83 q 999 -67 983 -82 l 1000 -78 l 1047 -78 l 1047 108 l 954 108 l 954 56 m 928 982 l 928 1308 q 994 1309 960 1308 q 1056 1294 1028 1310 q 1082 1262 1072 1283 q 1092 1217 1092 1240 q 1082 1173 1092 1193 q 1053 1146 1072 1153 l 1096 982 l 1053 982 l 1010 1136 l 975 1136 l 975 982 l 928 982 m 2096 108 l 2067 140 q 2048 158 2057 150 q 2035 182 2039 167 q 2034 212 2031 193 q 2056 229 2038 231 q 2069 219 2065 228 q 2076 201 2074 211 q 2078 179 2078 190 q 2079 160 2079 168 l 2135 163 q 2128 229 2135 196 q 2089 276 2121 263 q 2050 283 2069 285 q 2015 274 2031 282 q 1988 249 1999 265 q 1976 213 1978 233 q 1977 169 1974 192 q 1993 131 1981 147 q 2006 113 1997 119 q 2024 96 2015 106 q 2060 55 2040 76 q 2079 6 2079 33 q 2077 -15 2079 -6 q 2065 -25 2075 -24 q 2051 -24 2057 -28 q 2043 -12 2046 -19 q 2033 19 2035 3 q 2031 51 2032 35 l 1975 47 q 1977 3 1975 24 q 1989 -39 1979 -18 q 2024 -75 2000 -64 q 2075 -81 2049 -86 q 2119 -54 2103 -75 q 2138 -10 2135 -33 q 2096 108 2146 57 m 804 108 l 775 140 q 756 158 765 150 q 743 182 747 167 q 742 212 739 193 q 764 229 746 231 q 778 219 774 228 q 784 201 782 211 q 787 179 786 190 q 788 160 788 168 l 843 163 q 836 229 843 196 q 797 276 829 263 q 758 283 778 285 q 723 274 739 282 q 697 249 707 265 q 685 213 686 233 q 685 169 682 192 q 701 131 689 147 q 715 113 706 119 q 732 96 724 106 q 768 55 749 76 q 788 6 788 33 q 785 -15 788 -6 q 774 -25 783 -24 q 760 -24 765 -28 q 751 -12 754 -19 q 742 19 743 3 q 739 51 740 35 l 683 47 q 685 3 683 24 q 697 -39 688 -18 q 733 -75 708 -64 q 783 -81 757 -86 q 827 -54 811 -75 q 846 -10 843 -33 q 804 108 854 57 m 1440 279 l 1375 -78 l 1435 -78 l 1449 7 l 1488 7 l 1499 -78 l 1558 -78 l 1496 279 l 1440 279 m 1582 208 l 1582 -7 q 1604 -60 1582 -40 q 1654 -82 1626 -79 q 1697 -75 1678 -85 q 1736 -28 1729 -61 q 1743 39 1743 6 l 1688 42 q 1687 22 1688 33 q 1684 1 1686 11 q 1678 -18 1682 -10 q 1664 -28 1674 -26 q 1642 -4 1642 -31 l 1642 206 q 1664 229 1642 232 q 1678 219 1674 228 q 1684 201 1682 211 q 1687 179 1686 190 q 1688 160 1688 168 l 1743 163 q 1736 229 1743 196 q 1697 276 1729 263 q 1654 283 1678 286 q 1604 261 1626 281 q 1582 208 1582 242 m 574 982 l 574 1308 l 642 1308 q 688 1303 667 1308 q 722 1272 710 1297 q 733 1241 729 1258 q 735 1207 736 1224 q 726 1175 733 1190 q 707 1150 719 1160 q 664 1135 689 1135 q 618 1135 639 1135 l 618 982 l 574 982 m 1457 613 l 1457 936 l 1488 936 l 1579 719 l 1579 936 l 1619 936 l 1619 613 l 1589 613 l 1494 833 l 1494 613 l 1457 613 m 1543 982 l 1543 1308 l 1574 1308 l 1664 1092 l 1664 1308 l 1703 1308 l 1703 982 l 1674 982 l 1579 1203 l 1579 982 l 1543 982 m 1736 982 l 1804 1308 l 1849 1308 l 1917 982 l 1875 982 l 1858 1063 l 1793 1063 l 1778 982 l 1736 982 m 697 614 q 633 613 668 603 q 586 657 599 622 q 578 692 579 674 q 576 735 576 711 l 576 936 l 619 936 l 619 719 q 622 678 619 701 q 646 643 625 654 q 676 643 664 638 q 694 660 688 649 q 703 685 700 671 q 706 714 706 700 q 706 766 707 742 q 706 818 706 790 l 706 936 l 751 936 l 751 788 q 752 740 751 767 q 749 689 753 714 q 734 643 746 664 q 697 614 722 622 m 2265 -78 l 2265 217 l 2315 217 l 2315 279 l 2154 279 l 2154 217 l 2206 217 l 2206 -78 l 2265 -78 m 1229 -78 l 1367 -78 l 1367 -15 l 1289 -15 l 1289 279 l 1229 279 l 1229 -78 m 1213 979 q 1149 1006 1172 979 q 1125 1072 1126 1033 l 1167 1083 q 1172 1052 1169 1068 q 1185 1026 1175 1036 q 1211 1014 1196 1015 q 1238 1022 1226 1013 q 1249 1053 1250 1033 q 1239 1088 1249 1072 q 1203 1122 1231 1101 q 1170 1151 1188 1136 q 1142 1182 1153 1165 q 1128 1219 1131 1199 q 1129 1256 1125 1239 q 1145 1288 1133 1274 q 1176 1307 1157 1301 q 1217 1309 1194 1311 q 1254 1296 1239 1307 q 1276 1265 1271 1285 q 1283 1226 1282 1246 l 1249 1215 q 1240 1251 1246 1232 q 1213 1276 1233 1271 q 1185 1270 1197 1278 q 1169 1249 1172 1263 q 1171 1223 1167 1235 q 1183 1201 1175 1211 q 1202 1183 1192 1192 q 1222 1168 1213 1175 q 1263 1128 1243 1149 q 1289 1081 1282 1108 q 1275 1010 1296 1040 q 1213 979 1254 979 m 874 610 q 811 636 832 610 q 788 703 790 663 l 831 714 q 834 683 832 699 q 846 657 836 668 q 872 643 857 644 q 899 653 888 642 q 911 683 913 664 q 900 715 910 703 q 884 735 893 725 q 864 751 875 744 q 831 781 849 767 q 801 814 813 796 q 789 848 792 829 q 791 885 786 867 q 807 917 796 903 q 838 936 818 931 q 878 939 856 940 q 917 926 900 938 q 938 895 932 915 q 944 856 943 875 l 910 843 q 901 881 907 863 q 874 904 894 900 q 847 899 858 907 q 832 875 835 892 q 832 851 828 863 q 844 831 836 840 q 863 813 853 821 q 882 797 874 806 q 923 758 904 778 q 947 708 942 739 q 935 640 957 671 q 874 610 914 610 m 1060 -122 l 1111 -122 l 1213 325 l 1156 325 l 1060 -122 m 986 613 l 986 936 l 1113 936 l 1113 901 l 1032 901 l 1032 796 l 1097 796 l 1097 763 l 1032 763 l 1032 642 l 1113 642 l 1113 613 l 986 613 m 767 982 l 767 1308 l 892 1308 l 892 1274 l 811 1274 l 811 1168 l 876 1168 l 876 1135 l 811 1135 l 811 1014 l 893 1014 l 893 982 l 767 982 m 1301 647 q 1324 642 1311 642 q 1343 647 1336 642 q 1360 666 1356 654 q 1368 690 1365 678 q 1369 707 1369 697 q 1368 724 1368 717 l 1368 839 q 1367 867 1368 853 q 1354 893 1365 882 q 1314 904 1336 911 q 1282 874 1292 899 q 1279 822 1278 850 q 1281 771 1281 794 l 1281 713 q 1283 676 1281 696 q 1301 647 1285 657 m 1876 613 l 1876 679 q 1878 704 1876 692 q 1876 728 1879 717 q 1867 760 1874 746 q 1854 790 1861 775 l 1808 936 l 1850 936 l 1899 781 l 1946 936 l 1990 936 q 1968 869 1979 903 q 1946 801 1957 836 l 1924 735 q 1920 713 1919 724 q 1921 693 1921 701 l 1921 613 l 1876 613 m 1390 1017 q 1431 1017 1408 1010 q 1448 1035 1444 1024 q 1453 1058 1451 1047 l 1453 1210 q 1451 1238 1453 1224 q 1439 1263 1450 1253 q 1422 1275 1432 1274 q 1400 1274 1411 1276 q 1369 1246 1376 1272 q 1365 1194 1363 1222 q 1368 1142 1368 1165 l 1368 1082 q 1369 1046 1368 1065 q 1390 1017 1371 1026 m 1951 982 l 1951 1308 l 1996 1308 l 1996 1014 l 2079 1014 l 2079 982 l 1951 982 m 1669 613 l 1669 936 l 1714 936 l 1714 642 l 1796 642 l 1796 613 l 1669 613 m 617 -539 q 586 -530 596 -539 q 573 -508 576 -521 q 569 -478 569 -494 q 569 -450 569 -462 q 570 -419 569 -435 q 576 -393 571 -404 q 591 -376 581 -382 q 621 -371 601 -369 q 647 -381 638 -372 q 659 -401 656 -389 q 663 -428 663 -414 q 663 -456 663 -443 q 663 -483 663 -468 q 658 -510 663 -497 q 644 -531 654 -522 q 617 -539 635 -539 m 757 -333 q 728 -324 738 -333 q 715 -301 718 -315 q 711 -272 711 -287 q 711 -242 711 -256 q 712 -213 711 -228 q 717 -187 713 -199 q 732 -169 722 -176 q 761 -164 742 -162 q 786 -174 778 -165 q 799 -194 794 -182 q 803 -222 803 -207 q 803 -249 803 -236 q 802 -276 803 -261 q 797 -304 801 -292 q 784 -325 793 -317 q 757 -333 775 -333 m 2014 -539 q 1985 -530 1994 -539 q 1972 -508 1975 -521 q 1968 -478 1968 -494 q 1968 -450 1968 -462 q 1969 -419 1968 -435 q 1974 -393 1969 -404 q 1990 -376 1979 -382 q 2019 -371 2000 -369 q 2045 -381 2038 -372 q 2056 -401 2053 -389 q 2058 -428 2058 -414 q 2057 -456 2057 -443 q 2057 -483 2057 -468 q 2053 -510 2057 -497 q 2041 -531 2050 -522 q 2014 -539 2032 -539 m 1917 -331 l 1917 -165 q 1953 -165 1932 -165 q 1989 -176 1974 -164 q 2003 -210 2004 -189 q 2001 -249 2001 -232 q 2002 -288 2001 -265 q 1983 -322 2003 -311 q 1951 -332 1971 -333 q 1917 -331 1932 -331 m 1886 50 q 1887 22 1886 35 q 1885 -3 1888 8 q 1865 -25 1883 -19 q 1849 -22 1857 -26 q 1838 -11 1842 -18 q 1834 24 1833 4 q 1835 60 1835 44 l 1835 143 q 1834 178 1835 158 q 1838 214 1833 199 q 1849 225 1842 221 q 1865 228 1857 229 q 1885 206 1883 222 q 1887 181 1888 194 q 1886 153 1886 168 l 1886 50 m 683 -537 l 686 -372 l 711 -372 l 740 -504 l 768 -372 l 790 -372 l 793 -537 l 775 -537 l 774 -415 l 746 -537 l 731 -537 l 704 -415 l 703 -537 l 683 -537 m 1036 -537 l 1036 -372 q 1069 -371 1053 -372 q 1100 -376 1086 -369 q 1115 -393 1110 -382 q 1119 -417 1119 -404 q 1114 -440 1119 -429 q 1099 -454 1108 -450 l 1122 -537 l 1100 -537 l 1081 -458 l 1063 -458 l 1063 -537 l 1036 -537 m 818 -537 l 821 -372 l 844 -372 l 874 -504 l 903 -372 l 926 -372 l 928 -537 l 913 -537 l 910 -415 l 881 -537 l 865 -537 l 840 -415 l 838 -537 l 818 -537 m 825 -331 l 825 -165 q 856 -164 840 -165 q 886 -169 872 -162 q 901 -187 896 -175 q 908 -211 907 -199 q 903 -234 908 -224 q 886 -249 899 -244 l 911 -331 l 888 -331 l 864 -254 l 847 -254 l 847 -331 l 825 -331 m 1717 -537 l 1717 -372 q 1749 -371 1732 -372 q 1781 -376 1765 -369 q 1794 -393 1789 -382 q 1800 -417 1800 -404 q 1795 -440 1800 -429 q 1781 -454 1790 -450 l 1801 -537 l 1781 -537 l 1760 -458 l 1740 -458 l 1740 -537 l 1717 -537 m 842 365 l 842 533 q 883 533 858 533 q 919 517 908 533 q 924 482 925 501 q 911 453 922 463 q 888 444 900 444 q 864 443 876 443 l 864 365 l 842 365 m 1061 -331 l 1061 -165 l 1082 -165 l 1082 -237 l 1125 -237 l 1125 -165 l 1150 -165 l 1150 -331 l 1125 -331 l 1125 -254 l 1082 -254 l 1082 -331 l 1061 -331 m 1808 -331 l 1808 -165 l 1822 -165 l 1871 -275 l 1871 -165 l 1889 -165 l 1889 -331 l 1875 -331 l 1828 -219 l 1828 -331 l 1808 -331 m 1096 365 l 1132 533 l 1154 533 l 1190 365 l 1165 365 l 1158 410 l 1124 410 l 1117 365 l 1096 365 m 2085 -537 l 2085 -372 l 2099 -372 l 2147 -482 l 2147 -372 l 2165 -372 l 2165 -537 l 2150 -537 l 2101 -424 l 2101 -537 l 2085 -537 m 1700 -331 l 1732 -165 l 1757 -165 l 1792 -331 l 1769 -331 l 1761 -289 l 1728 -289 l 1718 -331 l 1700 -331 m 1292 -537 l 1326 -372 l 1350 -372 l 1385 -537 l 1364 -537 l 1357 -494 l 1321 -494 l 1314 -537 l 1292 -537 m 2028 682 l 2015 936 l 2057 936 l 2043 682 l 2028 682 m 618 1168 q 640 1167 629 1168 q 665 1169 651 1167 q 687 1187 682 1174 q 692 1215 692 1200 q 689 1250 693 1233 q 665 1272 685 1267 q 640 1274 651 1275 q 618 1274 629 1274 l 618 1168 m 1449 -331 q 1408 -327 1425 -337 q 1385 -293 1390 -317 q 1383 -272 1382 -282 q 1385 -254 1385 -262 l 1385 -165 l 1406 -165 l 1406 -239 q 1405 -259 1406 -246 q 1406 -285 1404 -272 q 1412 -307 1407 -297 q 1428 -317 1417 -317 q 1444 -307 1439 -317 q 1452 -285 1450 -297 q 1453 -259 1454 -272 q 1453 -239 1453 -246 l 1453 -165 l 1472 -165 l 1472 -240 q 1473 -265 1472 -251 q 1472 -291 1474 -278 q 1466 -315 1471 -304 q 1449 -331 1461 -326 m 508 -539 q 478 -526 488 -539 q 465 -497 468 -514 q 463 -459 463 -479 q 464 -424 464 -439 q 476 -385 464 -401 q 515 -371 488 -368 q 546 -391 540 -374 q 551 -428 551 -408 l 529 -428 q 530 -413 529 -421 q 526 -399 531 -406 q 511 -386 524 -387 q 493 -396 499 -385 q 487 -424 485 -404 q 489 -456 489 -443 q 487 -483 489 -465 q 494 -512 485 -501 q 511 -520 499 -522 q 526 -507 524 -518 q 530 -492 531 -500 q 529 -476 529 -483 l 551 -476 q 544 -518 551 -497 q 508 -539 538 -539 m 1185 -539 q 1153 -526 1163 -539 q 1142 -497 1144 -514 q 1142 -459 1140 -479 q 1143 -424 1143 -439 q 1153 -385 1143 -401 q 1192 -371 1164 -368 q 1224 -391 1218 -374 q 1229 -428 1229 -408 l 1204 -428 q 1206 -413 1204 -421 q 1203 -399 1207 -406 q 1188 -386 1200 -387 q 1169 -396 1176 -385 q 1163 -424 1161 -404 q 1164 -456 1164 -443 q 1163 -483 1164 -465 q 1171 -512 1161 -501 q 1188 -520 1176 -522 q 1203 -507 1200 -518 q 1206 -492 1207 -500 q 1204 -476 1204 -483 l 1229 -476 q 1222 -518 1229 -497 q 1185 -539 1215 -539 m 1625 364 q 1593 378 1603 364 q 1582 413 1583 392 l 1604 419 q 1608 400 1604 411 q 1619 383 1611 389 q 1637 387 1631 381 q 1643 403 1643 393 q 1630 433 1644 419 q 1604 457 1615 446 q 1583 490 1589 469 q 1594 528 1576 511 q 1640 532 1618 539 q 1656 515 1651 526 q 1663 492 1661 503 l 1643 488 q 1640 503 1642 494 q 1631 518 1638 511 q 1616 518 1624 521 q 1607 504 1608 515 q 1610 482 1599 493 q 1629 463 1621 471 q 1649 444 1639 454 q 1663 418 1660 433 q 1659 381 1669 399 q 1625 364 1649 364 m 1864 -539 q 1831 -524 1842 -539 q 1818 -490 1821 -510 l 1840 -485 q 1843 -503 1840 -493 q 1854 -517 1846 -514 q 1874 -517 1867 -524 q 1881 -501 1881 -511 q 1866 -472 1881 -485 q 1840 -450 1851 -458 q 1819 -413 1825 -435 q 1833 -378 1814 -392 q 1856 -369 1843 -371 q 1878 -374 1869 -368 q 1894 -388 1889 -376 q 1900 -411 1899 -400 l 1881 -418 q 1878 -401 1879 -410 q 1869 -386 1876 -393 q 1842 -399 1847 -381 q 1847 -421 1836 -411 q 1867 -439 1857 -431 q 1887 -460 1876 -450 q 1900 -486 1897 -471 q 1896 -522 1907 -506 q 1864 -539 1885 -539 m 1244 364 q 1213 378 1225 364 q 1200 413 1201 392 l 1222 419 q 1225 400 1222 411 q 1236 383 1228 389 q 1255 387 1247 381 q 1263 403 1263 393 q 1248 433 1263 419 q 1222 457 1233 446 q 1201 490 1207 469 q 1214 528 1196 511 q 1236 534 1224 533 q 1258 532 1249 535 q 1276 515 1271 526 q 1282 492 1281 503 l 1263 488 q 1259 503 1261 494 q 1250 518 1257 511 q 1234 518 1242 521 q 1224 504 1226 515 q 1229 482 1219 493 q 1246 463 1239 471 q 1268 444 1257 454 q 1282 418 1279 433 q 1278 381 1289 399 q 1244 364 1267 364 m 975 1168 q 997 1168 985 1168 q 1021 1171 1010 1168 q 1041 1192 1036 1178 q 1043 1225 1046 1207 q 1040 1251 1043 1240 q 1021 1269 1036 1263 q 997 1274 1010 1275 q 975 1274 985 1274 l 975 1168 m 1461 365 l 1424 533 l 1449 533 l 1472 411 l 1499 533 l 1517 533 l 1482 365 l 1461 365 m 1560 -537 l 1522 -372 l 1543 -372 l 1571 -493 l 1593 -372 l 1617 -372 l 1578 -537 l 1560 -537 m 1301 365 l 1301 533 l 1368 533 l 1368 518 l 1325 518 l 1325 461 l 1360 461 l 1360 444 l 1325 444 l 1325 382 l 1369 382 l 1369 365 l 1301 365 m 1633 -537 l 1633 -372 l 1700 -372 l 1700 -386 l 1657 -386 l 1657 -440 l 1692 -440 l 1692 -458 l 1657 -458 l 1657 -521 l 1700 -521 l 1700 -537 l 1633 -537 m 954 -537 l 954 -372 l 1019 -372 l 1019 -386 l 978 -386 l 978 -440 l 1013 -440 l 1013 -458 l 978 -458 l 978 -521 l 1019 -521 l 1019 -537 l 954 -537 m 1175 -331 l 1175 -165 l 1239 -165 l 1239 -182 l 1199 -182 l 1199 -237 l 1233 -237 l 1233 -254 l 1199 -254 l 1199 -317 l 1239 -317 l 1239 -331 l 1175 -331 m 746 -314 q 766 -315 760 -321 q 775 -299 772 -310 q 778 -276 778 -289 q 778 -256 778 -264 q 778 -239 778 -250 q 779 -217 779 -228 q 776 -197 779 -206 q 768 -183 774 -187 q 743 -186 753 -175 q 733 -211 733 -197 l 733 -237 q 733 -255 733 -243 q 732 -278 732 -267 q 735 -301 732 -290 q 746 -314 738 -311 m 1021 365 l 1021 533 l 1085 533 l 1085 518 l 1042 518 l 1042 461 l 1078 461 l 1078 444 l 1042 444 l 1042 382 l 1085 382 l 1085 365 l 1021 365 m 2003 -515 q 2024 -519 2017 -524 q 2034 -504 2031 -514 q 2038 -482 2038 -494 q 2038 -461 2038 -469 q 2038 -444 2038 -456 q 2038 -423 2039 -433 q 2033 -403 2036 -412 q 2025 -392 2031 -394 q 2001 -392 2008 -381 q 1994 -415 1994 -403 l 1994 -440 q 1993 -458 1994 -447 q 1992 -482 1992 -469 q 1994 -504 1992 -494 q 2003 -515 1996 -514 m 604 -515 q 625 -519 618 -524 q 635 -504 632 -514 q 638 -482 638 -494 q 638 -461 638 -469 q 638 -444 638 -456 q 638 -423 639 -433 q 635 -403 638 -412 q 628 -392 633 -394 q 602 -392 610 -381 q 594 -415 594 -403 q 594 -428 593 -422 q 594 -440 594 -435 q 594 -458 594 -447 q 593 -482 593 -469 q 595 -504 593 -494 q 604 -515 597 -514 m 633 -331 l 633 -165 l 697 -165 l 697 -182 l 658 -182 l 658 -237 l 689 -237 l 689 -254 l 658 -254 l 658 -331 l 633 -331 m 1939 -317 q 1965 -314 1954 -317 q 1978 -293 1975 -311 l 1978 -206 q 1965 -185 1976 -187 q 1939 -182 1954 -182 l 1939 -317 m 996 -331 l 996 -182 l 965 -182 l 965 -165 l 1050 -165 l 1050 -182 l 1019 -182 l 1019 -331 l 996 -331 m 1578 -331 l 1578 -165 l 1601 -165 l 1601 -317 l 1643 -317 l 1643 -331 l 1578 -331 m 1754 365 l 1754 518 l 1722 518 l 1722 533 l 1803 533 l 1803 518 l 1775 518 l 1775 365 l 1754 365 m 1308 -331 l 1308 -165 l 1371 -165 l 1371 -182 l 1326 -182 l 1326 -237 l 1360 -237 l 1360 -254 l 1326 -254 l 1326 -331 l 1308 -331 m 1499 -331 l 1499 -165 l 1521 -165 l 1521 -317 l 1563 -317 l 1563 -331 l 1499 -331 m 940 365 l 940 533 l 961 533 l 961 382 l 1004 382 l 1004 365 l 940 365 m 1683 365 l 1683 533 l 1708 533 l 1708 365 l 1683 365 m 1403 -537 l 1403 -372 l 1424 -372 l 1424 -521 l 1468 -521 l 1468 -537 l 1403 -537 m 1799 1096 l 1854 1096 l 1826 1244 l 1799 1096 m 599 -78 l 658 -78 l 658 -11 l 599 -11 l 599 -78 m 1251 -537 l 1251 -372 l 1275 -372 l 1275 -537 l 1251 -537 m 1538 365 l 1538 533 l 1560 533 l 1560 365 l 1538 365 m 1922 -537 l 1922 -372 l 1943 -372 l 1943 -537 l 1922 -537 m 864 460 q 876 460 869 460 q 890 463 883 460 q 900 475 899 467 q 901 493 901 483 q 890 515 900 513 q 864 518 879 518 l 864 460 m 2015 613 l 2015 658 l 2057 658 l 2057 613 l 2015 613 m 847 -237 q 874 -233 863 -237 q 885 -208 885 -228 q 874 -185 885 -189 q 847 -182 863 -182 l 847 -237 m 1740 -440 q 1767 -437 1756 -440 q 1778 -414 1778 -433 q 1767 -392 1778 -397 q 1740 -386 1756 -386 l 1740 -440 m 1063 -440 q 1088 -437 1078 -440 q 1097 -414 1097 -433 q 1088 -392 1097 -397 q 1063 -386 1078 -386 l 1063 -440 m 1125 425 l 1156 425 l 1143 501 l 1125 425 m 1324 -479 l 1353 -479 l 1339 -403 l 1324 -479 m 1731 -272 l 1760 -272 l 1744 -197 l 1731 -272 m 1457 60 l 1468 131 l 1478 60 l 1457 60 m 2375 279 l 2310 -78 l 2369 -78 l 2383 7 l 2422 7 l 2433 -78 l 2493 -78 l 2431 279 l 2375 279 m 2392 60 l 2403 131 l 2413 60 l 2392 60 z "},"9":{"ha":2606,"x_min":142,"x_max":2493,"o":"m 288 279 l 246 56 l 206 279 l 147 279 l 142 -78 l 197 -78 l 199 68 l 226 -78 l 268 -78 l 297 69 l 300 -78 l 351 -78 l 349 279 l 288 279 m 1946 153 q 1942 217 1946 183 q 1907 271 1938 251 q 1868 283 1890 282 q 1826 278 1846 283 q 1791 249 1803 269 q 1775 204 1779 228 q 1774 177 1774 190 q 1774 150 1774 164 l 1774 53 q 1774 26 1774 39 q 1775 -1 1774 13 q 1791 -46 1779 -25 q 1826 -75 1803 -67 q 1868 -80 1846 -81 q 1907 -68 1890 -79 q 1942 -15 1938 -49 q 1946 50 1946 19 l 1946 153 m 1408 979 q 1322 1051 1335 979 q 1319 1082 1319 1067 q 1319 1113 1319 1097 q 1318 1184 1319 1146 q 1325 1254 1317 1222 q 1355 1295 1333 1282 q 1403 1310 1376 1308 q 1455 1300 1431 1311 q 1489 1261 1479 1289 q 1499 1192 1500 1231 q 1499 1121 1499 1154 q 1498 1083 1499 1101 q 1493 1046 1497 1064 q 1408 979 1478 979 m 1324 610 q 1267 627 1289 610 q 1238 678 1244 644 q 1235 710 1235 694 q 1236 744 1236 726 q 1235 813 1236 776 q 1240 882 1233 850 q 1269 924 1249 911 q 1318 938 1290 938 q 1371 929 1347 939 q 1404 892 1394 919 q 1414 822 1417 860 q 1411 751 1411 783 q 1412 712 1411 729 q 1408 675 1413 694 q 1324 610 1396 610 m 504 108 l 443 279 l 397 279 l 397 -78 l 453 -78 l 453 97 l 515 -78 l 560 -78 l 560 279 l 504 279 l 504 108 m 954 56 l 990 56 q 990 33 990 49 q 988 2 990 17 q 977 -22 985 -12 q 954 -25 969 -31 q 940 -12 944 -22 q 935 9 936 -3 q 934 33 933 21 q 935 51 935 44 l 935 136 q 934 174 935 153 q 938 214 933 196 q 949 226 942 221 q 965 229 957 231 q 985 207 983 224 q 987 181 988 194 q 986 153 986 168 l 1046 153 q 1042 218 1046 183 q 1007 272 1038 253 q 968 284 990 283 q 926 278 946 285 q 891 250 903 271 q 875 206 879 229 q 873 154 872 181 q 874 101 874 128 q 873 52 874 76 q 875 3 872 28 q 885 -40 878 -18 q 913 -71 893 -61 q 957 -83 931 -83 q 999 -67 983 -82 l 1000 -78 l 1047 -78 l 1047 108 l 954 108 l 954 56 m 928 982 l 928 1308 q 994 1309 960 1308 q 1056 1294 1028 1310 q 1082 1262 1072 1283 q 1092 1217 1092 1240 q 1082 1173 1092 1193 q 1053 1146 1072 1153 l 1096 982 l 1053 982 l 1010 1136 l 975 1136 l 975 982 l 928 982 m 2096 108 l 2067 140 q 2048 158 2057 150 q 2035 182 2039 167 q 2034 212 2031 193 q 2056 229 2038 231 q 2069 219 2065 228 q 2076 201 2074 211 q 2078 179 2078 190 q 2079 160 2079 168 l 2135 163 q 2128 229 2135 196 q 2089 276 2121 263 q 2050 283 2069 285 q 2015 274 2031 282 q 1988 249 1999 265 q 1976 213 1978 233 q 1977 169 1974 192 q 1993 131 1981 147 q 2006 113 1997 119 q 2024 96 2015 106 q 2060 55 2040 76 q 2079 6 2079 33 q 2077 -15 2079 -6 q 2065 -25 2075 -24 q 2051 -24 2057 -28 q 2043 -12 2046 -19 q 2033 19 2035 3 q 2031 51 2032 35 l 1975 47 q 1977 3 1975 24 q 1989 -39 1979 -18 q 2024 -75 2000 -64 q 2075 -81 2049 -86 q 2119 -54 2103 -75 q 2138 -10 2135 -33 q 2096 108 2146 57 m 804 108 l 775 140 q 756 158 765 150 q 743 182 747 167 q 742 212 739 193 q 764 229 746 231 q 778 219 774 228 q 784 201 782 211 q 787 179 786 190 q 788 160 788 168 l 843 163 q 836 229 843 196 q 797 276 829 263 q 758 283 778 285 q 723 274 739 282 q 697 249 707 265 q 685 213 686 233 q 685 169 682 192 q 701 131 689 147 q 715 113 706 119 q 732 96 724 106 q 768 55 749 76 q 788 6 788 33 q 785 -15 788 -6 q 774 -25 783 -24 q 760 -24 765 -28 q 751 -12 754 -19 q 742 19 743 3 q 739 51 740 35 l 683 47 q 685 3 683 24 q 697 -39 688 -18 q 733 -75 708 -64 q 783 -81 757 -86 q 827 -54 811 -75 q 846 -10 843 -33 q 804 108 854 57 m 1440 279 l 1375 -78 l 1435 -78 l 1449 7 l 1488 7 l 1499 -78 l 1558 -78 l 1496 279 l 1440 279 m 1582 208 l 1582 -7 q 1604 -60 1582 -40 q 1654 -82 1626 -79 q 1697 -75 1678 -85 q 1736 -28 1729 -61 q 1743 39 1743 6 l 1688 42 q 1687 22 1688 33 q 1684 1 1686 11 q 1678 -18 1682 -10 q 1664 -28 1674 -26 q 1642 -4 1642 -31 l 1642 206 q 1664 229 1642 232 q 1678 219 1674 228 q 1684 201 1682 211 q 1687 179 1686 190 q 1688 160 1688 168 l 1743 163 q 1736 229 1743 196 q 1697 276 1729 263 q 1654 283 1678 286 q 1604 261 1626 281 q 1582 208 1582 242 m 574 982 l 574 1308 l 642 1308 q 688 1303 667 1308 q 722 1272 710 1297 q 733 1241 729 1258 q 735 1207 736 1224 q 726 1175 733 1190 q 707 1150 719 1160 q 664 1135 689 1135 q 618 1135 639 1135 l 618 982 l 574 982 m 1457 613 l 1457 936 l 1488 936 l 1579 719 l 1579 936 l 1619 936 l 1619 613 l 1589 613 l 1494 833 l 1494 613 l 1457 613 m 1543 982 l 1543 1308 l 1574 1308 l 1664 1092 l 1664 1308 l 1703 1308 l 1703 982 l 1674 982 l 1579 1203 l 1579 982 l 1543 982 m 1736 982 l 1804 1308 l 1849 1308 l 1917 982 l 1875 982 l 1858 1063 l 1793 1063 l 1778 982 l 1736 982 m 697 614 q 633 613 668 603 q 586 657 599 622 q 578 692 579 674 q 576 735 576 711 l 576 936 l 619 936 l 619 719 q 622 678 619 701 q 646 643 625 654 q 676 643 664 638 q 694 660 688 649 q 703 685 700 671 q 706 714 706 700 q 706 766 707 742 q 706 818 706 790 l 706 936 l 751 936 l 751 788 q 752 740 751 767 q 749 689 753 714 q 734 643 746 664 q 697 614 722 622 m 2265 -78 l 2265 217 l 2315 217 l 2315 279 l 2154 279 l 2154 217 l 2206 217 l 2206 -78 l 2265 -78 m 1229 -78 l 1367 -78 l 1367 -15 l 1289 -15 l 1289 279 l 1229 279 l 1229 -78 m 1213 979 q 1149 1006 1172 979 q 1125 1072 1126 1033 l 1167 1083 q 1172 1052 1169 1068 q 1185 1026 1175 1036 q 1211 1014 1196 1015 q 1238 1022 1226 1013 q 1249 1053 1250 1033 q 1239 1088 1249 1072 q 1203 1122 1231 1101 q 1170 1151 1188 1136 q 1142 1182 1153 1165 q 1128 1219 1131 1199 q 1129 1256 1125 1239 q 1145 1288 1133 1274 q 1176 1307 1157 1301 q 1217 1309 1194 1311 q 1254 1296 1239 1307 q 1276 1265 1271 1285 q 1283 1226 1282 1246 l 1249 1215 q 1240 1251 1246 1232 q 1213 1276 1233 1271 q 1185 1270 1197 1278 q 1169 1249 1172 1263 q 1171 1223 1167 1235 q 1183 1201 1175 1211 q 1202 1183 1192 1192 q 1222 1168 1213 1175 q 1263 1128 1243 1149 q 1289 1081 1282 1108 q 1275 1010 1296 1040 q 1213 979 1254 979 m 874 610 q 811 636 832 610 q 788 703 790 663 l 831 714 q 834 683 832 699 q 846 657 836 668 q 872 643 857 644 q 899 653 888 642 q 911 683 913 664 q 900 715 910 703 q 884 735 893 725 q 864 751 875 744 q 831 781 849 767 q 801 814 813 796 q 789 848 792 829 q 791 885 786 867 q 807 917 796 903 q 838 936 818 931 q 878 939 856 940 q 917 926 900 938 q 938 895 932 915 q 944 856 943 875 l 910 843 q 901 881 907 863 q 874 904 894 900 q 847 899 858 907 q 832 875 835 892 q 832 851 828 863 q 844 831 836 840 q 863 813 853 821 q 882 797 874 806 q 923 758 904 778 q 947 708 942 739 q 935 640 957 671 q 874 610 914 610 m 1060 -122 l 1111 -122 l 1213 325 l 1156 325 l 1060 -122 m 986 613 l 986 936 l 1113 936 l 1113 901 l 1032 901 l 1032 796 l 1097 796 l 1097 763 l 1032 763 l 1032 642 l 1113 642 l 1113 613 l 986 613 m 767 982 l 767 1308 l 892 1308 l 892 1274 l 811 1274 l 811 1168 l 876 1168 l 876 1135 l 811 1135 l 811 1014 l 893 1014 l 893 982 l 767 982 m 1301 647 q 1324 642 1311 642 q 1343 647 1336 642 q 1360 666 1356 654 q 1368 690 1365 678 q 1369 707 1369 697 q 1368 724 1368 717 l 1368 839 q 1367 867 1368 853 q 1354 893 1365 882 q 1314 904 1336 911 q 1282 874 1292 899 q 1279 822 1278 850 q 1281 771 1281 794 l 1281 713 q 1283 676 1281 696 q 1301 647 1285 657 m 1876 613 l 1876 679 q 1878 704 1876 692 q 1876 728 1879 717 q 1867 760 1874 746 q 1854 790 1861 775 l 1808 936 l 1850 936 l 1899 781 l 1946 936 l 1990 936 q 1968 869 1979 903 q 1946 801 1957 836 l 1924 735 q 1920 713 1919 724 q 1921 693 1921 701 l 1921 613 l 1876 613 m 1390 1017 q 1431 1017 1408 1010 q 1448 1035 1444 1024 q 1453 1058 1451 1047 l 1453 1210 q 1451 1238 1453 1224 q 1439 1263 1450 1253 q 1422 1275 1432 1274 q 1400 1274 1411 1276 q 1369 1246 1376 1272 q 1365 1194 1363 1222 q 1368 1142 1368 1165 l 1368 1082 q 1369 1046 1368 1065 q 1390 1017 1371 1026 m 1951 982 l 1951 1308 l 1996 1308 l 1996 1014 l 2079 1014 l 2079 982 l 1951 982 m 1669 613 l 1669 936 l 1714 936 l 1714 642 l 1796 642 l 1796 613 l 1669 613 m 617 -539 q 586 -530 596 -539 q 573 -508 576 -521 q 569 -478 569 -494 q 569 -450 569 -462 q 570 -419 569 -435 q 576 -393 571 -404 q 591 -376 581 -382 q 621 -371 601 -369 q 647 -381 638 -372 q 659 -401 656 -389 q 663 -428 663 -414 q 663 -456 663 -443 q 663 -483 663 -468 q 658 -510 663 -497 q 644 -531 654 -522 q 617 -539 635 -539 m 757 -333 q 728 -324 738 -333 q 715 -301 718 -315 q 711 -272 711 -287 q 711 -242 711 -256 q 712 -213 711 -228 q 717 -187 713 -199 q 732 -169 722 -176 q 761 -164 742 -162 q 786 -174 778 -165 q 799 -194 794 -182 q 803 -222 803 -207 q 803 -249 803 -236 q 802 -276 803 -261 q 797 -304 801 -292 q 784 -325 793 -317 q 757 -333 775 -333 m 2014 -539 q 1985 -530 1994 -539 q 1972 -508 1975 -521 q 1968 -478 1968 -494 q 1968 -450 1968 -462 q 1969 -419 1968 -435 q 1974 -393 1969 -404 q 1990 -376 1979 -382 q 2019 -371 2000 -369 q 2045 -381 2038 -372 q 2056 -401 2053 -389 q 2058 -428 2058 -414 q 2057 -456 2057 -443 q 2057 -483 2057 -468 q 2053 -510 2057 -497 q 2041 -531 2050 -522 q 2014 -539 2032 -539 m 1917 -331 l 1917 -165 q 1953 -165 1932 -165 q 1989 -176 1974 -164 q 2003 -210 2004 -189 q 2001 -249 2001 -232 q 2002 -288 2001 -265 q 1983 -322 2003 -311 q 1951 -332 1971 -333 q 1917 -331 1932 -331 m 1886 50 q 1887 22 1886 35 q 1885 -3 1888 8 q 1865 -25 1883 -19 q 1849 -22 1857 -26 q 1838 -11 1842 -18 q 1834 24 1833 4 q 1835 60 1835 44 l 1835 143 q 1834 178 1835 158 q 1838 214 1833 199 q 1849 225 1842 221 q 1865 228 1857 229 q 1885 206 1883 222 q 1887 181 1888 194 q 1886 153 1886 168 l 1886 50 m 683 -537 l 686 -372 l 711 -372 l 740 -504 l 768 -372 l 790 -372 l 793 -537 l 775 -537 l 774 -415 l 746 -537 l 731 -537 l 704 -415 l 703 -537 l 683 -537 m 1036 -537 l 1036 -372 q 1069 -371 1053 -372 q 1100 -376 1086 -369 q 1115 -393 1110 -382 q 1119 -417 1119 -404 q 1114 -440 1119 -429 q 1099 -454 1108 -450 l 1122 -537 l 1100 -537 l 1081 -458 l 1063 -458 l 1063 -537 l 1036 -537 m 818 -537 l 821 -372 l 844 -372 l 874 -504 l 903 -372 l 926 -372 l 928 -537 l 913 -537 l 910 -415 l 881 -537 l 865 -537 l 840 -415 l 838 -537 l 818 -537 m 825 -331 l 825 -165 q 856 -164 840 -165 q 886 -169 872 -162 q 901 -187 896 -175 q 908 -211 907 -199 q 903 -234 908 -224 q 886 -249 899 -244 l 911 -331 l 888 -331 l 864 -254 l 847 -254 l 847 -331 l 825 -331 m 1717 -537 l 1717 -372 q 1749 -371 1732 -372 q 1781 -376 1765 -369 q 1794 -393 1789 -382 q 1800 -417 1800 -404 q 1795 -440 1800 -429 q 1781 -454 1790 -450 l 1801 -537 l 1781 -537 l 1760 -458 l 1740 -458 l 1740 -537 l 1717 -537 m 842 365 l 842 533 q 883 533 858 533 q 919 517 908 533 q 924 482 925 501 q 911 453 922 463 q 888 444 900 444 q 864 443 876 443 l 864 365 l 842 365 m 1061 -331 l 1061 -165 l 1082 -165 l 1082 -237 l 1125 -237 l 1125 -165 l 1150 -165 l 1150 -331 l 1125 -331 l 1125 -254 l 1082 -254 l 1082 -331 l 1061 -331 m 1808 -331 l 1808 -165 l 1822 -165 l 1871 -275 l 1871 -165 l 1889 -165 l 1889 -331 l 1875 -331 l 1828 -219 l 1828 -331 l 1808 -331 m 1096 365 l 1132 533 l 1154 533 l 1190 365 l 1165 365 l 1158 410 l 1124 410 l 1117 365 l 1096 365 m 2085 -537 l 2085 -372 l 2099 -372 l 2147 -482 l 2147 -372 l 2165 -372 l 2165 -537 l 2150 -537 l 2101 -424 l 2101 -537 l 2085 -537 m 1700 -331 l 1732 -165 l 1757 -165 l 1792 -331 l 1769 -331 l 1761 -289 l 1728 -289 l 1718 -331 l 1700 -331 m 1292 -537 l 1326 -372 l 1350 -372 l 1385 -537 l 1364 -537 l 1357 -494 l 1321 -494 l 1314 -537 l 1292 -537 m 2028 682 l 2015 936 l 2057 936 l 2043 682 l 2028 682 m 618 1168 q 640 1167 629 1168 q 665 1169 651 1167 q 687 1187 682 1174 q 692 1215 692 1200 q 689 1250 693 1233 q 665 1272 685 1267 q 640 1274 651 1275 q 618 1274 629 1274 l 618 1168 m 1449 -331 q 1408 -327 1425 -337 q 1385 -293 1390 -317 q 1383 -272 1382 -282 q 1385 -254 1385 -262 l 1385 -165 l 1406 -165 l 1406 -239 q 1405 -259 1406 -246 q 1406 -285 1404 -272 q 1412 -307 1407 -297 q 1428 -317 1417 -317 q 1444 -307 1439 -317 q 1452 -285 1450 -297 q 1453 -259 1454 -272 q 1453 -239 1453 -246 l 1453 -165 l 1472 -165 l 1472 -240 q 1473 -265 1472 -251 q 1472 -291 1474 -278 q 1466 -315 1471 -304 q 1449 -331 1461 -326 m 508 -539 q 478 -526 488 -539 q 465 -497 468 -514 q 463 -459 463 -479 q 464 -424 464 -439 q 476 -385 464 -401 q 515 -371 488 -368 q 546 -391 540 -374 q 551 -428 551 -408 l 529 -428 q 530 -413 529 -421 q 526 -399 531 -406 q 511 -386 524 -387 q 493 -396 499 -385 q 487 -424 485 -404 q 489 -456 489 -443 q 487 -483 489 -465 q 494 -512 485 -501 q 511 -520 499 -522 q 526 -507 524 -518 q 530 -492 531 -500 q 529 -476 529 -483 l 551 -476 q 544 -518 551 -497 q 508 -539 538 -539 m 1185 -539 q 1153 -526 1163 -539 q 1142 -497 1144 -514 q 1142 -459 1140 -479 q 1143 -424 1143 -439 q 1153 -385 1143 -401 q 1192 -371 1164 -368 q 1224 -391 1218 -374 q 1229 -428 1229 -408 l 1204 -428 q 1206 -413 1204 -421 q 1203 -399 1207 -406 q 1188 -386 1200 -387 q 1169 -396 1176 -385 q 1163 -424 1161 -404 q 1164 -456 1164 -443 q 1163 -483 1164 -465 q 1171 -512 1161 -501 q 1188 -520 1176 -522 q 1203 -507 1200 -518 q 1206 -492 1207 -500 q 1204 -476 1204 -483 l 1229 -476 q 1222 -518 1229 -497 q 1185 -539 1215 -539 m 1625 364 q 1593 378 1603 364 q 1582 413 1583 392 l 1604 419 q 1608 400 1604 411 q 1619 383 1611 389 q 1637 387 1631 381 q 1643 403 1643 393 q 1630 433 1644 419 q 1604 457 1615 446 q 1583 490 1589 469 q 1594 528 1576 511 q 1640 532 1618 539 q 1656 515 1651 526 q 1663 492 1661 503 l 1643 488 q 1640 503 1642 494 q 1631 518 1638 511 q 1616 518 1624 521 q 1607 504 1608 515 q 1610 482 1599 493 q 1629 463 1621 471 q 1649 444 1639 454 q 1663 418 1660 433 q 1659 381 1669 399 q 1625 364 1649 364 m 1864 -539 q 1831 -524 1842 -539 q 1818 -490 1821 -510 l 1840 -485 q 1843 -503 1840 -493 q 1854 -517 1846 -514 q 1874 -517 1867 -524 q 1881 -501 1881 -511 q 1866 -472 1881 -485 q 1840 -450 1851 -458 q 1819 -413 1825 -435 q 1833 -378 1814 -392 q 1856 -369 1843 -371 q 1878 -374 1869 -368 q 1894 -388 1889 -376 q 1900 -411 1899 -400 l 1881 -418 q 1878 -401 1879 -410 q 1869 -386 1876 -393 q 1842 -399 1847 -381 q 1847 -421 1836 -411 q 1867 -439 1857 -431 q 1887 -460 1876 -450 q 1900 -486 1897 -471 q 1896 -522 1907 -506 q 1864 -539 1885 -539 m 1244 364 q 1213 378 1225 364 q 1200 413 1201 392 l 1222 419 q 1225 400 1222 411 q 1236 383 1228 389 q 1255 387 1247 381 q 1263 403 1263 393 q 1248 433 1263 419 q 1222 457 1233 446 q 1201 490 1207 469 q 1214 528 1196 511 q 1236 534 1224 533 q 1258 532 1249 535 q 1276 515 1271 526 q 1282 492 1281 503 l 1263 488 q 1259 503 1261 494 q 1250 518 1257 511 q 1234 518 1242 521 q 1224 504 1226 515 q 1229 482 1219 493 q 1246 463 1239 471 q 1268 444 1257 454 q 1282 418 1279 433 q 1278 381 1289 399 q 1244 364 1267 364 m 975 1168 q 997 1168 985 1168 q 1021 1171 1010 1168 q 1041 1192 1036 1178 q 1043 1225 1046 1207 q 1040 1251 1043 1240 q 1021 1269 1036 1263 q 997 1274 1010 1275 q 975 1274 985 1274 l 975 1168 m 1461 365 l 1424 533 l 1449 533 l 1472 411 l 1499 533 l 1517 533 l 1482 365 l 1461 365 m 1560 -537 l 1522 -372 l 1543 -372 l 1571 -493 l 1593 -372 l 1617 -372 l 1578 -537 l 1560 -537 m 1301 365 l 1301 533 l 1368 533 l 1368 518 l 1325 518 l 1325 461 l 1360 461 l 1360 444 l 1325 444 l 1325 382 l 1369 382 l 1369 365 l 1301 365 m 1633 -537 l 1633 -372 l 1700 -372 l 1700 -386 l 1657 -386 l 1657 -440 l 1692 -440 l 1692 -458 l 1657 -458 l 1657 -521 l 1700 -521 l 1700 -537 l 1633 -537 m 954 -537 l 954 -372 l 1019 -372 l 1019 -386 l 978 -386 l 978 -440 l 1013 -440 l 1013 -458 l 978 -458 l 978 -521 l 1019 -521 l 1019 -537 l 954 -537 m 1175 -331 l 1175 -165 l 1239 -165 l 1239 -182 l 1199 -182 l 1199 -237 l 1233 -237 l 1233 -254 l 1199 -254 l 1199 -317 l 1239 -317 l 1239 -331 l 1175 -331 m 746 -314 q 766 -315 760 -321 q 775 -299 772 -310 q 778 -276 778 -289 q 778 -256 778 -264 q 778 -239 778 -250 q 779 -217 779 -228 q 776 -197 779 -206 q 768 -183 774 -187 q 743 -186 753 -175 q 733 -211 733 -197 l 733 -237 q 733 -255 733 -243 q 732 -278 732 -267 q 735 -301 732 -290 q 746 -314 738 -311 m 1021 365 l 1021 533 l 1085 533 l 1085 518 l 1042 518 l 1042 461 l 1078 461 l 1078 444 l 1042 444 l 1042 382 l 1085 382 l 1085 365 l 1021 365 m 2003 -515 q 2024 -519 2017 -524 q 2034 -504 2031 -514 q 2038 -482 2038 -494 q 2038 -461 2038 -469 q 2038 -444 2038 -456 q 2038 -423 2039 -433 q 2033 -403 2036 -412 q 2025 -392 2031 -394 q 2001 -392 2008 -381 q 1994 -415 1994 -403 l 1994 -440 q 1993 -458 1994 -447 q 1992 -482 1992 -469 q 1994 -504 1992 -494 q 2003 -515 1996 -514 m 604 -515 q 625 -519 618 -524 q 635 -504 632 -514 q 638 -482 638 -494 q 638 -461 638 -469 q 638 -444 638 -456 q 638 -423 639 -433 q 635 -403 638 -412 q 628 -392 633 -394 q 602 -392 610 -381 q 594 -415 594 -403 q 594 -428 593 -422 q 594 -440 594 -435 q 594 -458 594 -447 q 593 -482 593 -469 q 595 -504 593 -494 q 604 -515 597 -514 m 633 -331 l 633 -165 l 697 -165 l 697 -182 l 658 -182 l 658 -237 l 689 -237 l 689 -254 l 658 -254 l 658 -331 l 633 -331 m 1939 -317 q 1965 -314 1954 -317 q 1978 -293 1975 -311 l 1978 -206 q 1965 -185 1976 -187 q 1939 -182 1954 -182 l 1939 -317 m 996 -331 l 996 -182 l 965 -182 l 965 -165 l 1050 -165 l 1050 -182 l 1019 -182 l 1019 -331 l 996 -331 m 1578 -331 l 1578 -165 l 1601 -165 l 1601 -317 l 1643 -317 l 1643 -331 l 1578 -331 m 1754 365 l 1754 518 l 1722 518 l 1722 533 l 1803 533 l 1803 518 l 1775 518 l 1775 365 l 1754 365 m 1308 -331 l 1308 -165 l 1371 -165 l 1371 -182 l 1326 -182 l 1326 -237 l 1360 -237 l 1360 -254 l 1326 -254 l 1326 -331 l 1308 -331 m 1499 -331 l 1499 -165 l 1521 -165 l 1521 -317 l 1563 -317 l 1563 -331 l 1499 -331 m 940 365 l 940 533 l 961 533 l 961 382 l 1004 382 l 1004 365 l 940 365 m 1683 365 l 1683 533 l 1708 533 l 1708 365 l 1683 365 m 1403 -537 l 1403 -372 l 1424 -372 l 1424 -521 l 1468 -521 l 1468 -537 l 1403 -537 m 1799 1096 l 1854 1096 l 1826 1244 l 1799 1096 m 599 -78 l 658 -78 l 658 -11 l 599 -11 l 599 -78 m 1251 -537 l 1251 -372 l 1275 -372 l 1275 -537 l 1251 -537 m 1538 365 l 1538 533 l 1560 533 l 1560 365 l 1538 365 m 1922 -537 l 1922 -372 l 1943 -372 l 1943 -537 l 1922 -537 m 864 460 q 876 460 869 460 q 890 463 883 460 q 900 475 899 467 q 901 493 901 483 q 890 515 900 513 q 864 518 879 518 l 864 460 m 2015 613 l 2015 658 l 2057 658 l 2057 613 l 2015 613 m 847 -237 q 874 -233 863 -237 q 885 -208 885 -228 q 874 -185 885 -189 q 847 -182 863 -182 l 847 -237 m 1740 -440 q 1767 -437 1756 -440 q 1778 -414 1778 -433 q 1767 -392 1778 -397 q 1740 -386 1756 -386 l 1740 -440 m 1063 -440 q 1088 -437 1078 -440 q 1097 -414 1097 -433 q 1088 -392 1097 -397 q 1063 -386 1078 -386 l 1063 -440 m 1125 425 l 1156 425 l 1143 501 l 1125 425 m 1324 -479 l 1353 -479 l 1339 -403 l 1324 -479 m 1731 -272 l 1760 -272 l 1744 -197 l 1731 -272 m 1457 60 l 1468 131 l 1478 60 l 1457 60 m 2375 279 l 2310 -78 l 2369 -78 l 2383 7 l 2422 7 l 2433 -78 l 2493 -78 l 2431 279 l 2375 279 m 2392 60 l 2403 131 l 2413 60 l 2392 60 z "},"\u0000":{"ha":0,"x_min":0,"x_max":0,"o":""},"\r":{"ha":326,"x_min":0,"x_max":0,"o":""}," ":{"ha":326,"x_min":0,"x_max":0,"o":""},"":{"ha":547,"x_min":-118,"x_max":621,"o":"m 35 -71 l -118 -71 q -61 94 -92 8 q -2 262 -35 169 q 67 449 31 354 q 140 623 101 543 q 223 758 178 703 q 322 840 268 814 q 442 851 376 865 q 522 793 494 839 q 540 689 550 747 q 479 572 531 631 q 324 475 428 513 q 353 429 333 453 q 392 376 372 406 q 424 307 411 346 q 433 217 438 268 q 424 172 431 192 q 406 138 418 153 l 408 135 q 492 210 456 172 q 547 268 528 249 q 583 287 565 286 q 610 277 600 288 q 620 249 621 267 q 601 214 619 232 q 576 188 592 204 q 542 155 560 172 q 509 122 525 138 q 483 96 493 106 q 402 41 451 64 q 297 7 353 18 q 186 -2 242 -4 q 86 18 131 0 l 107 69 q 151 72 125 65 q 215 117 186 82 q 257 193 244 151 q 278 342 283 278 q 254 456 272 407 l 254 457 l 275 515 q 326 552 303 528 q 369 606 350 576 q 403 667 389 635 q 423 726 417 699 q 428 772 429 753 q 418 794 428 790 q 343 733 383 807 q 247 521 303 658 l 35 -71 z "},"!":{"ha":376,"x_min":-8,"x_max":586,"o":"m 143 261 l 372 910 l 586 910 l 213 261 l 143 261 m -8 72 q 23 149 -8 118 q 99 181 54 181 q 176 149 144 181 q 207 72 207 118 q 176 -3 207 28 q 99 -35 144 -35 q 23 -3 54 -35 q -8 72 -8 28 z "},"\"":{"ha":410,"x_min":122,"x_max":625,"o":"m 397 917 l 217 614 l 122 614 l 219 917 l 397 917 m 625 917 l 444 614 l 350 614 l 447 917 l 625 917 z "},"#":{"ha":711,"x_min":-11,"x_max":735,"o":"m 557 194 l 454 194 l 404 92 l 307 92 l 356 194 l 164 194 l 114 92 l 14 92 l 63 194 l -11 194 l 22 278 l 100 278 l 206 499 l 131 499 l 167 583 l 244 583 l 307 714 l 408 714 l 347 583 l 538 583 l 600 714 l 699 714 l 638 583 l 735 583 l 700 499 l 597 499 l 492 278 l 590 278 l 557 194 m 201 278 l 393 278 l 500 499 l 307 499 l 201 278 z "},"$":{"ha":718,"x_min":-42,"x_max":750,"o":"m 699 725 q 741 676 732 703 q 744 625 750 649 q 719 585 738 601 q 680 565 701 568 q 638 577 658 563 q 606 632 617 592 l 593 674 q 496 697 558 696 q 386 674 435 699 q 319 613 338 649 q 323 540 301 578 q 424 475 344 501 q 560 399 517 444 q 610 301 604 353 q 589 199 615 250 q 515 105 563 147 q 402 35 467 63 q 268 3 338 7 l 239 -71 l 171 -71 l 200 3 q 58 29 117 4 q -25 114 0 54 q -36 183 -42 154 q -13 226 -31 211 q 29 244 4 242 q 76 231 54 246 q 111 186 97 217 q 122 107 125 156 q 171 83 143 92 q 239 74 199 74 q 375 99 321 74 q 443 160 429 124 q 423 238 457 197 q 296 308 389 278 q 183 377 219 333 q 144 472 147 421 q 166 574 140 522 q 238 669 192 626 q 346 739 283 711 q 479 769 408 767 l 526 899 l 593 899 l 546 769 q 626 758 590 767 q 699 725 663 749 z "},"%":{"ha":749,"x_min":-93,"x_max":793,"o":"m 24 0 l -93 0 l 678 782 l 793 782 l 24 0 m 218 460 q 119 501 151 460 q 117 622 88 542 q 154 690 131 660 q 207 740 178 719 q 269 771 236 760 q 336 782 303 782 q 431 739 403 782 q 432 625 458 696 q 396 558 419 589 q 344 506 372 528 q 283 472 315 483 q 218 460 250 460 m 242 535 q 284 556 263 535 q 324 624 306 576 q 332 688 339 667 q 304 710 325 710 q 260 688 282 710 q 222 624 238 665 q 214 556 206 576 q 242 535 222 535 m 375 0 q 276 41 308 0 q 274 163 244 82 q 311 230 288 200 q 364 280 335 260 q 426 311 393 300 q 493 322 460 322 q 588 279 560 322 q 589 165 615 236 q 553 99 576 129 q 501 46 529 68 q 440 12 472 24 q 375 0 407 0 m 399 75 q 441 96 419 75 q 481 164 463 117 q 489 228 496 207 q 461 250 482 250 q 417 228 439 250 q 379 164 394 206 q 371 96 363 117 q 399 75 379 75 z "},"(":{"ha":596,"x_min":121,"x_max":757,"o":"m 357 344 q 299 164 318 239 q 283 34 281 89 q 309 -62 285 -21 q 383 -140 333 -103 l 357 -204 q 208 -101 260 -161 q 139 31 157 -42 q 133 183 121 103 q 175 344 144 263 q 253 503 204 425 q 374 653 303 582 q 539 784 444 724 q 756 890 633 844 l 757 825 q 620 748 678 788 q 517 654 563 708 q 433 526 471 600 q 357 344 396 451 z "},")":{"ha":596,"x_min":-103,"x_max":531,"o":"m 297 344 q 355 526 336 450 q 372 660 374 603 q 344 760 369 717 q 271 840 319 803 l 300 890 q 447 788 396 847 q 514 656 497 728 q 519 505 531 585 q 478 344 507 425 q 401 184 449 263 q 282 35 353 106 q 117 -97 211 -36 q -100 -204 22 -158 l -103 -139 q 34 -61 -24 -101 q 138 33 92 -21 q 221 163 183 88 q 297 344 258 238 z "},"*":{"ha":663,"x_min":146,"x_max":660,"o":"m 581 806 l 442 603 l 660 724 l 654 569 l 435 564 l 574 443 l 399 332 l 393 536 l 246 332 l 146 443 l 371 564 l 157 569 l 265 724 l 393 603 l 403 806 l 581 806 z "},"+":{"ha":626,"x_min":89,"x_max":542,"o":"m 432 613 l 372 449 l 542 449 l 513 367 l 343 367 l 279 190 l 185 190 l 250 367 l 89 367 l 118 449 l 279 449 l 338 613 l 432 613 z "},",":{"ha":368,"x_min":-33,"x_max":288,"o":"m 288 203 l 57 -53 l -33 -53 l 79 203 l 288 203 z "},"-":{"ha":368,"x_min":-11,"x_max":347,"o":"m 301 347 l -11 347 l 35 464 l 347 464 l 301 347 z "},".":{"ha":357,"x_min":43,"x_max":258,"o":"m 43 107 q 74 184 43 153 q 150 215 106 215 q 227 184 196 215 q 258 107 258 153 q 227 31 258 63 q 150 0 196 0 q 74 31 106 0 q 43 107 43 63 z "},"/":{"ha":663,"x_min":-119,"x_max":892,"o":"m 19 -67 l -119 -67 l 753 932 l 892 932 l 19 -67 z "},"":{"ha":425,"x_min":236,"x_max":661,"o":"m 661 925 q 611 824 642 868 q 542 749 581 779 q 462 703 504 718 q 379 688 419 688 q 309 702 340 688 q 259 747 278 717 q 238 821 240 776 q 256 925 236 865 l 331 925 q 321 881 324 901 q 326 847 318 861 q 356 824 335 832 q 418 815 378 815 q 490 824 461 815 q 538 849 519 833 q 568 883 557 864 q 588 925 579 903 l 661 925 z "},"":{"ha":257,"x_min":181,"x_max":439,"o":"m 422 789 q 366 715 407 744 q 274 685 325 685 q 203 715 225 685 q 196 789 181 744 q 219 830 204 811 q 255 863 235 849 q 299 885 275 876 q 347 893 322 893 q 419 863 400 893 q 422 789 439 833 z "},"":{"ha":394,"x_min":56,"x_max":351,"o":"m 207 644 q 101 683 144 644 q 56 789 58 722 q 65 844 56 817 q 94 894 75 872 q 141 928 114 915 q 203 942 168 942 q 265 928 238 942 q 311 894 292 915 q 341 845 331 872 q 351 792 351 818 q 340 734 351 761 q 309 688 329 707 q 263 656 289 668 q 207 644 236 644 m 206 717 q 260 738 239 717 q 281 790 281 760 q 260 844 281 818 q 203 869 239 869 q 146 844 167 869 q 128 790 125 818 q 150 738 128 760 q 206 717 172 717 z "},"":{"ha":492,"x_min":190,"x_max":703,"o":"m 190 697 l 385 964 l 486 865 l 243 650 l 190 697 m 394 697 l 601 964 l 703 865 l 447 650 l 394 697 z "},"":{"ha":342,"x_min":-232,"x_max":132,"o":"m 111 -228 q -44 -306 25 -290 q -158 -305 -114 -321 q -217 -251 -203 -289 q -207 -171 -232 -214 q -147 -110 -185 -133 q -68 -65 -108 -86 q 8 -22 -28 -44 q 64 35 44 0 l 132 21 q 97 -26 122 -4 q 43 -70 72 -49 q -14 -112 14 -92 q -57 -156 -42 -133 q -72 -192 -69 -174 q -59 -219 -74 -211 q -10 -216 -44 -226 q 83 -165 24 -206 l 111 -228 z "},"":{"ha":442,"x_min":76,"x_max":464,"o":"m 464 869 l 251 672 l 169 672 l 76 869 l 135 896 l 239 801 l 408 899 l 464 869 z "},":":{"ha":385,"x_min":43,"x_max":397,"o":"m 43 107 q 74 184 43 153 q 150 215 106 215 q 227 184 196 215 q 258 107 258 153 q 227 31 258 63 q 150 0 196 0 q 74 31 106 0 q 43 107 43 63 m 182 524 q 213 601 182 569 q 289 632 244 632 q 366 601 335 632 q 397 524 397 569 q 366 448 397 479 q 289 417 335 417 q 213 448 244 417 q 182 524 182 479 z "},";":{"ha":376,"x_min":-33,"x_max":397,"o":"m 288 203 l 57 -53 l -33 -53 l 79 203 l 288 203 m 182 524 q 213 601 182 569 q 289 632 244 632 q 366 601 335 632 q 397 524 397 569 q 366 448 397 479 q 289 417 335 417 q 213 448 244 417 q 182 524 182 479 z "},"<":{"ha":561,"x_min":101,"x_max":550,"o":"m 321 26 l 101 286 l 111 317 l 525 586 l 550 515 l 325 307 l 408 96 l 321 26 z "},"=":{"ha":626,"x_min":56,"x_max":592,"o":"m 550 414 l 126 414 l 168 513 l 592 513 l 550 414 m 479 219 l 56 219 l 99 319 l 522 319 l 479 219 z "},">":{"ha":561,"x_min":46,"x_max":494,"o":"m 275 586 l 494 326 l 485 296 l 71 26 l 46 97 l 271 306 l 188 517 l 275 586 z "},"?":{"ha":596,"x_min":68,"x_max":697,"o":"m 224 625 q 161 591 188 596 q 121 598 135 586 q 105 634 107 610 q 117 688 103 658 q 160 749 131 717 q 239 807 190 781 q 364 853 297 839 q 493 867 431 867 q 649 815 601 867 q 674 685 697 764 q 599 551 653 614 q 451 447 546 489 q 365 402 399 422 q 312 361 332 382 q 282 315 292 340 q 268 253 272 289 l 201 253 q 208 315 203 288 q 226 368 213 342 q 265 422 239 394 q 332 488 290 450 q 416 570 375 522 q 476 664 457 618 q 486 761 500 722 q 419 800 472 800 q 351 788 393 800 q 276 754 310 775 q 268 687 282 725 q 224 625 254 649 m 68 74 q 99 151 68 119 q 175 182 131 182 q 252 151 221 182 q 283 74 283 119 q 252 -2 283 29 q 175 -33 221 -33 q 99 -2 131 -33 q 68 74 68 29 z "},"@":{"ha":1021,"x_min":-24,"x_max":1013,"o":"m 533 611 q 587 590 565 608 q 614 533 608 572 l 643 611 l 796 611 l 650 240 q 636 133 622 169 q 682 97 650 97 q 719 108 699 97 q 765 144 740 118 q 814 212 789 169 q 863 318 839 254 q 910 504 900 419 q 899 650 921 589 q 820 745 878 711 q 664 779 763 779 q 484 744 568 779 q 330 647 400 708 q 205 500 260 585 q 114 317 150 415 q 72 123 74 208 q 101 -22 69 38 q 197 -112 133 -81 q 353 -143 261 -143 q 414 -142 385 -143 q 476 -137 443 -142 q 545 -126 508 -133 q 628 -107 582 -119 l 644 -185 q 565 -206 600 -197 q 494 -219 529 -214 q 424 -226 460 -224 q 342 -228 388 -228 q 151 -188 232 -228 q 27 -76 71 -149 q -20 97 -17 -4 q 21 318 -24 197 q 133 538 65 439 q 288 707 201 638 q 474 815 374 776 q 685 853 575 853 q 870 811 797 853 q 978 697 943 769 q 1009 527 1013 625 q 965 317 1006 429 q 904 183 938 242 q 828 83 871 124 q 732 22 785 43 q 614 0 679 0 q 515 35 553 0 q 481 142 476 69 q 401 40 444 79 q 311 0 358 0 q 249 22 275 0 q 210 83 222 43 q 203 179 199 122 q 233 306 208 236 q 299 438 261 379 q 379 535 338 496 q 461 595 421 575 q 533 611 501 615 m 374 119 q 454 182 406 111 q 567 408 503 253 q 585 496 585 467 q 569 532 585 525 q 529 517 554 538 q 476 459 504 497 q 420 369 449 421 q 371 263 392 318 q 349 164 349 203 q 374 119 350 125 z "},"\\":{"ha":688,"x_min":251,"x_max":443,"o":"m 251 932 l 353 932 l 443 -53 l 342 -53 l 251 932 z "},"^":{"ha":497,"x_min":146,"x_max":533,"o":"m 146 507 l 358 704 l 440 704 l 533 507 l 475 481 l 371 575 l 201 478 l 146 507 z "},"`":{"ha":418,"x_min":240,"x_max":464,"o":"m 397 696 l 240 897 l 429 978 l 464 717 l 397 696 z "},"{":{"ha":389,"x_min":-2872,"x_max":375,"o":"m -14 -222 q -491 -256 -254 -246 q -958 -274 -728 -265 q -1410 -297 -1187 -283 q -1844 -340 -1632 -310 q -2256 -424 -2056 -371 q -2642 -565 -2456 -478 q -2679 -482 -2654 -528 q -2735 -392 -2704 -436 q -2802 -311 -2767 -347 q -2872 -258 -2837 -275 l -2857 -221 q -2575 -137 -2733 -167 q -2235 -96 -2417 -108 q -1854 -85 -2053 -83 q -1452 -94 -1656 -86 q -1047 -112 -1249 -101 q -657 -128 -846 -122 q -300 -131 -468 -133 q 4 -110 -132 -128 q 158 -56 96 -97 q 253 38 221 -15 q 287 149 286 92 q 256 251 288 206 q 173 286 228 293 q 53 214 118 279 q 19 217 31 210 q 3 236 8 225 q -1 258 -1 247 q 0 268 0 268 q 87 335 43 311 q 172 365 131 360 q 248 358 213 371 q 308 311 283 344 q 367 160 360 246 q 336 -7 375 74 q 210 -148 297 -87 q -14 -222 124 -208 z "},"|":{"ha":475,"x_min":-28,"x_max":493,"o":"m 493 893 l 67 -312 l -28 -312 l 399 893 l 493 893 z "},"}":{"ha":389,"x_min":-3567,"x_max":375,"o":"m -14 -222 q -403 -249 -194 -240 q -835 -265 -611 -258 q -1292 -278 -1058 -272 q -1757 -296 -1525 -285 q -2212 -326 -1989 -307 q -2638 -376 -2435 -344 q -3019 -453 -2842 -407 q -3336 -565 -3197 -499 q -3374 -482 -3349 -528 q -3430 -392 -3399 -436 q -3497 -311 -3461 -347 q -3567 -258 -3532 -275 l -3551 -221 q -3240 -137 -3428 -167 q -2821 -96 -3051 -108 q -2329 -85 -2590 -83 q -1799 -94 -2068 -86 q -1267 -112 -1531 -101 q -765 -128 -1003 -122 q -330 -131 -528 -133 q 4 -110 -132 -128 q 158 -56 96 -97 q 253 38 221 -15 q 287 149 286 92 q 256 251 288 206 q 173 286 228 293 q 53 214 118 279 q 19 217 31 210 q 3 236 8 225 q -1 258 -1 247 q 0 268 0 268 q 87 335 43 311 q 172 365 131 360 q 248 358 213 371 q 308 311 283 344 q 367 160 360 246 q 336 -7 375 74 q 210 -148 297 -87 q -14 -222 124 -208 z "},"~":{"ha":644,"x_min":94,"x_max":604,"o":"m 604 474 q 574 388 596 429 q 523 314 553 346 q 456 263 493 282 q 381 247 419 244 q 334 260 353 249 q 299 286 315 272 q 264 310 282 300 q 219 321 246 321 q 163 302 188 322 q 125 247 138 282 l 94 247 q 128 340 104 297 q 183 415 151 383 q 252 463 215 446 q 326 474 289 479 q 371 458 353 471 q 406 433 389 446 q 439 409 422 419 q 479 399 456 399 q 537 421 513 400 q 571 474 561 442 l 604 474 z "},"":{"ha":715,"x_min":43,"x_max":807,"o":"m 514 399 l 333 399 l 321 349 l 467 349 l 432 285 l 303 285 q 288 194 290 229 q 294 137 286 158 q 322 106 303 115 q 371 94 342 97 q 462 108 407 90 q 576 161 517 125 l 575 86 q 453 28 511 47 q 329 10 396 10 q 138 83 189 10 q 113 285 88 156 l 43 285 l 65 349 l 129 349 l 147 399 l 86 399 l 110 465 l 172 465 q 349 698 240 617 q 610 779 457 779 q 687 771 654 779 q 743 749 719 763 q 782 717 767 735 q 807 682 797 700 l 713 514 l 675 513 l 667 694 q 635 712 651 706 q 594 718 618 718 q 468 657 528 717 q 357 465 408 597 l 551 465 l 514 399 z "},"":{"ha":601,"x_min":-107,"x_max":779,"o":"m 81 -178 q 113 -81 94 -137 q 153 45 132 -24 q 198 192 174 114 q 247 351 222 269 l 96 351 l 122 440 l 272 440 q 305 544 289 494 q 338 639 321 594 q 413 795 371 731 q 510 901 456 860 q 631 961 564 942 q 779 981 697 981 l 761 926 q 648 890 701 926 q 563 765 594 854 q 513 616 539 699 q 458 440 486 533 l 617 440 l 589 351 l 435 351 q 373 146 403 240 q 307 -44 343 51 q 149 -276 251 -196 q -107 -357 46 -357 l -93 -308 q 10 -274 -39 -308 q 81 -178 58 -240 z "},"":{"ha":556,"x_min":-37,"x_max":465,"o":"m 238 153 l 57 -150 l -37 -150 l 60 153 l 238 153 m 465 153 l 285 -150 l 190 -150 l 288 153 l 465 153 z "},"":{"ha":896,"x_min":-12,"x_max":744,"o":"m 190 93 q 140 26 175 53 q 61 0 106 0 q 3 26 19 0 q 3 93 -12 53 q 53 162 17 133 q 131 190 89 190 q 190 162 174 190 q 190 93 206 133 m 460 93 q 410 26 444 53 q 332 0 375 0 q 274 26 290 0 q 272 93 257 53 q 323 161 286 132 q 400 190 360 190 q 459 162 444 190 q 460 93 474 133 m 731 93 q 680 26 715 53 q 600 0 644 0 q 542 26 560 0 q 540 93 525 53 q 592 162 556 133 q 669 190 628 190 q 729 162 714 190 q 731 93 744 133 z "},"":{"ha":442,"x_min":49,"x_max":436,"o":"m 49 701 l 261 899 l 343 899 l 436 701 l 378 675 l 274 769 l 104 672 l 49 701 z "},"":{"ha":917,"x_min":-93,"x_max":838,"o":"m 597 0 q 537 10 563 0 q 497 43 511 21 q 375 0 439 0 q 276 41 308 0 q 274 163 244 82 q 311 230 288 200 q 364 280 335 260 q 426 311 393 300 q 493 322 460 322 q 586 279 558 322 q 715 322 646 322 q 810 279 782 322 q 811 165 838 236 q 775 99 799 129 q 723 46 751 68 q 662 12 694 24 q 597 0 629 0 m 24 0 l -93 0 l 678 782 l 793 782 l 24 0 m 218 460 q 119 501 151 460 q 117 622 88 542 q 154 690 131 660 q 207 740 178 719 q 269 771 236 760 q 336 782 303 782 q 431 739 403 782 q 432 625 458 696 q 396 558 419 589 q 344 506 372 528 q 283 472 315 483 q 218 460 250 460 m 621 75 q 663 96 642 75 q 703 164 685 117 q 711 228 718 207 q 683 250 704 250 q 639 228 661 250 q 601 164 617 206 q 593 96 585 117 q 621 75 601 75 m 242 535 q 284 556 263 535 q 324 624 306 576 q 332 688 339 667 q 304 710 325 710 q 260 688 282 710 q 222 624 238 665 q 214 556 206 576 q 242 535 222 535 m 399 75 q 441 96 419 75 q 481 164 463 117 q 489 228 496 207 q 461 250 482 250 q 417 228 439 250 q 379 164 394 206 q 371 96 363 117 q 399 75 379 75 z "}}}
